<?xml version="1.0" encoding="UTF-8" standalone="no"?>
<svg
   xmlns:sketch="http://www.bohemiancoding.com/sketch/ns"
   xmlns:dc="http://purl.org/dc/elements/1.1/"
   xmlns:cc="http://creativecommons.org/ns#"
   xmlns:rdf="http://www.w3.org/1999/02/22-rdf-syntax-ns#"
   xmlns:svg="http://www.w3.org/2000/svg"
   xmlns="http://www.w3.org/2000/svg"
   xmlns:sodipodi="http://sodipodi.sourceforge.net/DTD/sodipodi-0.dtd"
   xmlns:inkscape="http://www.inkscape.org/namespaces/inkscape"
   width="1530px"
   height="1807px"
   viewBox="0 0 1530 1807"
   version="1.1"
   id="svg2"
   inkscape:version="0.91 r13725"
   sodipodi:docname="seidenstrasse.svg">
  <metadata
     id="metadata21">
    <rdf:RDF>
      <cc:Work
         rdf:about="">
        <dc:format>image/svg+xml</dc:format>
        <dc:type
           rdf:resource="http://purl.org/dc/dcmitype/StillImage" />
      </cc:Work>
    </rdf:RDF>
  </metadata>
  <sodipodi:namedview
     pagecolor="#ffffff"
     bordercolor="#666666"
     borderopacity="1"
     objecttolerance="10"
     gridtolerance="10"
     guidetolerance="10"
     inkscape:pageopacity="0"
     inkscape:pageshadow="2"
     inkscape:window-width="1280"
     inkscape:window-height="1002"
     id="namedview19"
     showgrid="false"
     inkscape:zoom="0.26120642"
     inkscape:cx="1199.6076"
     inkscape:cy="370.32489"
     inkscape:window-x="1280"
     inkscape:window-y="0"
     inkscape:window-maximized="1"
     inkscape:current-layer="g3383" />
  <title
     id="title4">seidenstrasse_warnschild</title>
  <description>Created with Sketch (http://www.bohemiancoding.com/sketch)</description>
  <defs
     id="defs6" />
  <text
     xml:space="preserve"
     style="font-style:normal;font-variant:normal;font-weight:normal;font-stretch:normal;font-size:112.68135071px;line-height:125%;font-family:'Parchment MF';-inkscape-font-specification:'Parchment MF';letter-spacing:0px;word-spacing:0px;fill:#000000;fill-opacity:1;stroke:none;stroke-width:1px;stroke-linecap:butt;stroke-linejoin:miter;stroke-opacity:1"
     x="56.142086"
     y="1467.387"
     id="text3357"
     sodipodi:linespacing="125%"
     inkscape:export-xdpi="600"
     inkscape:export-ydpi="600"><tspan
       sodipodi:role="line"
       id="tspan3359"
       x="56.142086"
       y="1467.387"
       style="font-style:normal;font-variant:normal;font-weight:bold;font-stretch:normal;font-size:179.26579285px;font-family:'Source Code Pro';-inkscape-font-specification:'Source Code Pro Bold'">Seidenstrasse</tspan></text>
  <g
     id="g3383"
     inkscape:export-xdpi="600"
     inkscape:export-ydpi="600">
    <polygon
       id="Triangle-1"
       sketch:type="MSShapeGroup"
       points="75,1282 754.5,112 1434,1282 "
       style="fill:none;fill-rule:evenodd;stroke:#000000;stroke-width:60;stroke-linecap:round;stroke-linejoin:round" />
    <path
       d="m 979.5,901.5 291.0095,53.85675"
       id="Line"
       sketch:type="MSShapeGroup"
       inkscape:connector-curvature="0"
       style="fill:none;fill-rule:evenodd;stroke:#000000;stroke-width:7;stroke-linecap:square" />
    <path
       d="m 970.64281,964.5 291.00949,53.8568"
       id="path11"
       sketch:type="MSShapeGroup"
       inkscape:connector-curvature="0"
       style="fill:none;fill-rule:evenodd;stroke:#000000;stroke-width:7;stroke-linecap:square" />
    <path
       d="m 862.39556,936.10294 -87.45194,-78.74209 -91.16735,151.72805 -0.33638,-0.2022 -102.65904,86.1412 0,0 -32.38445,129.8869 -46.35729,-11.5582 36.28828,-145.5444 0.43231,0.1078 90.03501,-75.54831 0,0 -107.95279,-24.92287 0,0 -119.47511,53.19378 -22.77726,-51.15858 137.03182,-61.0105 0.14738,0.33105 103.12828,23.80903 0,0 76.93263,-128.03739 -106.65304,-45.27152 0,0 -0.63692,0.1238 -26.71326,-137.4278 51.04462,-9.92207 22.32617,114.85819 83.68238,35.52106 c 10.27385,34.15214 44.16068,55.75436 78.93183,48.99554 0.12701,-0.0247 0.25387,-0.0497 0.3806,-0.075 l 0.8512,-0.94535 0.68705,0.61863 c 0.24776,-0.0553 0.49479,-0.11258 0.74126,-0.17088 l 0,0 1.76349,1.05961 -0.53283,0.88677 0,0 85.70775,77.1716 93.31248,18.13811 -9.73126,50.06298 -108.78066,-21.14481 0.18506,-0.95205 z"
       id="Rectangle-1"
       sketch:type="MSShapeGroup"
       inkscape:connector-curvature="0"
       style="fill:#000000;fill-rule:evenodd;stroke:none;stroke-width:1" />
    <path
       d="m 992.05486,914.68881 c -2.77129,-0.48865 -7.05487,-7.68881 -13.75835,-5.63652 -6.70347,2.05228 -8.62072,48.89055 -8.62072,48.89055 l 8.31388,1.46596 c 3.9905,0.70363 6.15069,-2.44081 10.01032,-2.40879 13.22801,0.10971 34.74751,6.16602 46.00001,6 11.2525,-0.16604 16.8378,-37.94618 1.8511,-40.58874 l -43.79624,-7.72246 z"
       id="Rectangle-10"
       sketch:type="MSShapeGroup"
       inkscape:connector-curvature="0"
       style="fill:#000000;fill-rule:evenodd;stroke:none;stroke-width:1" />
    <circle
       id="Oval-1"
       sketch:type="MSShapeGroup"
       transform="matrix(0.98162718,-0.190809,0.190809,0.98162718,0,0)"
       cx="633.08679"
       cy="872.83508"
       r="52"
       style="fill:#000000;fill-rule:evenodd;stroke:none;stroke-width:1" />
  </g>
</svg>
