G04 (created by PCBNEW (2013-may-18)-stable) date Wed 27 May 2015 10:34:55 AM CEST*
%MOIN*%
G04 Gerber Fmt 3.4, Leading zero omitted, Abs format*
%FSLAX34Y34*%
G01*
G70*
G90*
G04 APERTURE LIST*
%ADD10C,0.00590551*%
%ADD11R,0.0236X0.0551*%
%ADD12R,0.025X0.045*%
%ADD13R,0.045X0.025*%
%ADD14R,0.06X0.06*%
%ADD15C,0.06*%
%ADD16R,0.1417X0.063*%
%ADD17C,0.15*%
%ADD18R,0.15X0.15*%
%ADD19R,0.1X0.1*%
%ADD20C,0.1*%
%ADD21C,0.177165*%
%ADD22R,0.0787402X0.0787402*%
%ADD23C,0.0787402*%
%ADD24R,0.063X0.1417*%
%ADD25R,0.02X0.045*%
%ADD26R,0.0394X0.0236*%
%ADD27R,0.0240157X0.0598425*%
%ADD28C,0.0314961*%
%ADD29C,0.019685*%
%ADD30C,0.0393701*%
%ADD31C,0.00669291*%
G04 APERTURE END LIST*
G54D10*
G54D11*
X15000Y-16450D03*
X15000Y-18550D03*
X15500Y-16450D03*
X16000Y-16450D03*
X16500Y-16450D03*
X15500Y-18550D03*
X16000Y-18550D03*
X16500Y-18550D03*
G54D12*
X14300Y-17250D03*
X13700Y-17250D03*
X10700Y-22250D03*
X11300Y-22250D03*
X11950Y-23000D03*
X12550Y-23000D03*
X11950Y-22250D03*
X12550Y-22250D03*
G54D13*
X11000Y-16550D03*
X11000Y-15950D03*
G54D12*
X18950Y-22750D03*
X19550Y-22750D03*
X10700Y-21500D03*
X11300Y-21500D03*
X11950Y-21500D03*
X12550Y-21500D03*
G54D14*
X12000Y-17500D03*
G54D15*
X11000Y-17500D03*
G54D16*
X21333Y-24500D03*
X19167Y-24500D03*
G54D17*
X15000Y-27500D03*
X17000Y-27500D03*
G54D18*
X13000Y-27500D03*
G54D17*
X19000Y-27500D03*
G54D19*
X18000Y-13000D03*
G54D20*
X16000Y-13000D03*
X14000Y-13000D03*
G54D12*
X10700Y-23000D03*
X11300Y-23000D03*
G54D21*
X21250Y-27500D03*
X10750Y-27500D03*
X21250Y-13000D03*
X10750Y-13000D03*
G54D13*
X18500Y-17950D03*
X18500Y-18550D03*
G54D12*
X13700Y-19500D03*
X14300Y-19500D03*
G54D13*
X19250Y-21450D03*
X19250Y-22050D03*
G54D12*
X13700Y-22000D03*
X14300Y-22000D03*
X21450Y-18250D03*
X22050Y-18250D03*
X12550Y-19500D03*
X11950Y-19500D03*
X11300Y-19500D03*
X10700Y-19500D03*
G54D22*
X20500Y-22250D03*
G54D23*
X20500Y-21250D03*
X20500Y-20250D03*
X20500Y-19250D03*
G54D24*
X20500Y-17333D03*
X20500Y-15167D03*
G54D25*
X14500Y-25350D03*
X15000Y-25350D03*
X15500Y-25350D03*
X16000Y-25350D03*
X16500Y-25350D03*
X17000Y-25350D03*
X17500Y-25350D03*
X17500Y-23250D03*
X17000Y-23250D03*
X16500Y-23250D03*
X16000Y-23250D03*
X15500Y-23250D03*
X15000Y-23250D03*
X14500Y-23250D03*
G54D26*
X18183Y-15750D03*
X17317Y-15750D03*
X18183Y-15000D03*
X17317Y-15000D03*
X13933Y-15750D03*
X13067Y-15750D03*
X13933Y-15000D03*
X13067Y-15000D03*
G54D27*
X15000Y-22000D03*
X16000Y-22000D03*
X16000Y-19500D03*
X15000Y-19500D03*
X18500Y-19500D03*
X17500Y-19500D03*
X17500Y-22000D03*
X18500Y-22000D03*
G54D28*
X11000Y-15000D03*
X15500Y-15000D03*
X16500Y-15000D03*
X16000Y-15750D03*
X15000Y-15750D03*
X18000Y-22750D03*
X13000Y-22250D03*
X16500Y-24750D03*
X13000Y-23000D03*
X15500Y-22500D03*
X15500Y-24750D03*
G54D29*
X18500Y-23750D02*
X18500Y-23000D01*
X18750Y-22750D02*
X18500Y-23000D01*
X18750Y-22750D02*
X18950Y-22750D01*
X21333Y-23750D02*
X20250Y-23750D01*
X20250Y-23750D02*
X18500Y-23750D01*
X18500Y-23750D02*
X14500Y-23750D01*
X21333Y-23750D02*
X21250Y-23750D01*
X21250Y-23750D02*
X21333Y-23750D01*
G54D30*
X21333Y-24500D02*
X21333Y-23750D01*
X21333Y-23750D02*
X21333Y-21750D01*
X21333Y-21750D02*
X21333Y-21583D01*
X21000Y-21250D02*
X20500Y-21250D01*
X21333Y-21583D02*
X21000Y-21250D01*
X21250Y-25250D02*
X21250Y-24583D01*
X21000Y-25500D02*
X21250Y-25250D01*
X19000Y-27500D02*
X21000Y-25500D01*
X21250Y-24583D02*
X21333Y-24500D01*
G54D29*
X14500Y-23250D02*
X14500Y-23750D01*
X14500Y-23750D02*
X13500Y-23750D01*
X14250Y-22750D02*
X13750Y-22250D01*
X14500Y-23000D02*
X14250Y-22750D01*
X14500Y-23250D02*
X14500Y-23000D01*
X13750Y-22050D02*
X13700Y-22000D01*
X13750Y-22250D02*
X13750Y-22050D01*
X10700Y-23450D02*
X10700Y-23000D01*
X13500Y-23750D02*
X11000Y-23750D01*
X10700Y-23450D02*
X11000Y-23750D01*
X13500Y-23750D02*
X13500Y-23750D01*
X10700Y-22250D02*
X10700Y-23000D01*
X19250Y-21450D02*
X19800Y-21450D01*
X19800Y-21450D02*
X20000Y-21250D01*
X20000Y-21250D02*
X20500Y-21250D01*
X10700Y-22250D02*
X10700Y-21500D01*
X20500Y-18250D02*
X21450Y-18250D01*
X18183Y-15750D02*
X18183Y-17500D01*
X18183Y-17500D02*
X18250Y-17500D01*
X18500Y-17950D02*
X18500Y-17500D01*
X16000Y-18000D02*
X13500Y-18000D01*
X13250Y-18250D02*
X13250Y-19500D01*
X13500Y-18000D02*
X13250Y-18250D01*
X12550Y-19500D02*
X13250Y-19500D01*
X13250Y-19500D02*
X13700Y-19500D01*
X18750Y-17500D02*
X19500Y-17500D01*
X19667Y-17333D02*
X20500Y-17333D01*
X19500Y-17500D02*
X19667Y-17333D01*
X16000Y-18550D02*
X16000Y-18000D01*
X16500Y-17500D02*
X18250Y-17500D01*
X16000Y-18000D02*
X16500Y-17500D01*
X18250Y-17500D02*
X18500Y-17500D01*
X18500Y-17500D02*
X18750Y-17500D01*
X18183Y-15000D02*
X18183Y-15750D01*
G54D30*
X20500Y-19250D02*
X20500Y-18250D01*
X20500Y-18250D02*
X20500Y-17333D01*
G54D29*
X11300Y-21500D02*
X11950Y-21500D01*
X15000Y-19500D02*
X15000Y-18550D01*
X15000Y-19500D02*
X14300Y-19500D01*
X16500Y-18550D02*
X16500Y-19250D01*
X16750Y-19500D02*
X17500Y-19500D01*
X16500Y-19250D02*
X16750Y-19500D01*
X18500Y-19500D02*
X18500Y-18550D01*
X11000Y-17500D02*
X11000Y-16550D01*
X11000Y-15000D02*
X11000Y-15950D01*
X14500Y-15000D02*
X14500Y-14500D01*
X14500Y-14500D02*
X14500Y-14250D01*
X14000Y-13750D02*
X14000Y-13000D01*
X14500Y-14250D02*
X14000Y-13750D01*
X15500Y-16450D02*
X15500Y-15000D01*
X15500Y-15000D02*
X15500Y-15000D01*
X17317Y-15000D02*
X16500Y-15000D01*
X13933Y-15000D02*
X14500Y-15000D01*
X14500Y-15000D02*
X15500Y-15000D01*
X15500Y-15000D02*
X15567Y-15000D01*
X13750Y-16500D02*
X12500Y-16500D01*
X13933Y-16317D02*
X13750Y-16500D01*
X13933Y-15750D02*
X13933Y-16317D01*
X12000Y-16750D02*
X12000Y-17500D01*
X12250Y-16500D02*
X12000Y-16750D01*
X12500Y-16500D02*
X12250Y-16500D01*
X16000Y-15750D02*
X16000Y-13000D01*
X16000Y-16450D02*
X16000Y-16000D01*
X16000Y-16000D02*
X16000Y-15750D01*
X13933Y-15750D02*
X15000Y-15750D01*
X16750Y-15750D02*
X17250Y-15750D01*
X15933Y-15750D02*
X16750Y-15750D01*
X16000Y-15750D02*
X15933Y-15750D01*
X14300Y-17250D02*
X14750Y-17250D01*
X15000Y-17000D02*
X15000Y-16450D01*
X14750Y-17250D02*
X15000Y-17000D01*
X15000Y-22000D02*
X14300Y-22000D01*
X11300Y-22250D02*
X11950Y-22250D01*
X11300Y-23000D02*
X11950Y-23000D01*
X11950Y-19500D02*
X11300Y-19500D01*
X18250Y-22750D02*
X18500Y-22500D01*
X18500Y-22500D02*
X18500Y-22000D01*
X18250Y-22750D02*
X18000Y-22750D01*
X13000Y-22250D02*
X12550Y-22250D01*
X16500Y-25350D02*
X16500Y-24750D01*
X19250Y-22050D02*
X18800Y-22050D01*
X18800Y-22050D02*
X18750Y-22000D01*
X18750Y-22000D02*
X18500Y-22000D01*
X17000Y-25350D02*
X17000Y-27750D01*
X13000Y-23000D02*
X12550Y-23000D01*
X16000Y-22000D02*
X16000Y-22250D01*
X15750Y-22500D02*
X15500Y-22500D01*
X16000Y-22250D02*
X15750Y-22500D01*
X15500Y-25350D02*
X15500Y-24750D01*
X15000Y-27750D02*
X15000Y-25350D01*
G54D10*
G36*
X22629Y-20466D02*
X22275Y-20466D01*
X22275Y-18455D01*
X22275Y-18044D01*
X22275Y-18004D01*
X22269Y-17990D01*
X22269Y-12798D01*
X22114Y-12423D01*
X21828Y-12136D01*
X21453Y-11980D01*
X21048Y-11980D01*
X20673Y-12135D01*
X20386Y-12421D01*
X20230Y-12796D01*
X20230Y-13201D01*
X20385Y-13576D01*
X20671Y-13863D01*
X21046Y-14019D01*
X21451Y-14019D01*
X21826Y-13864D01*
X22113Y-13578D01*
X22269Y-13203D01*
X22269Y-12798D01*
X22269Y-17990D01*
X22260Y-17968D01*
X22231Y-17939D01*
X22194Y-17924D01*
X22137Y-17924D01*
X22112Y-17949D01*
X22112Y-18137D01*
X22250Y-18137D01*
X22275Y-18112D01*
X22275Y-18044D01*
X22275Y-18455D01*
X22275Y-18387D01*
X22250Y-18362D01*
X22112Y-18362D01*
X22112Y-18550D01*
X22137Y-18575D01*
X22194Y-18575D01*
X22231Y-18560D01*
X22260Y-18531D01*
X22275Y-18495D01*
X22275Y-18455D01*
X22275Y-20466D01*
X21987Y-20466D01*
X21987Y-18550D01*
X21987Y-18362D01*
X21987Y-18137D01*
X21987Y-17949D01*
X21962Y-17924D01*
X21905Y-17924D01*
X21868Y-17939D01*
X21839Y-17968D01*
X21824Y-18004D01*
X21824Y-18044D01*
X21824Y-18112D01*
X21849Y-18137D01*
X21987Y-18137D01*
X21987Y-18362D01*
X21849Y-18362D01*
X21824Y-18387D01*
X21824Y-18455D01*
X21824Y-18495D01*
X21839Y-18531D01*
X21868Y-18560D01*
X21905Y-18575D01*
X21962Y-18575D01*
X21987Y-18550D01*
X21987Y-20466D01*
X21708Y-20466D01*
X21708Y-18448D01*
X21708Y-17998D01*
X21688Y-17949D01*
X21650Y-17911D01*
X21601Y-17891D01*
X21548Y-17891D01*
X21298Y-17891D01*
X21249Y-17911D01*
X21211Y-17949D01*
X21191Y-17998D01*
X21191Y-18018D01*
X20948Y-18018D01*
X20948Y-18015D01*
X20948Y-16598D01*
X20928Y-16548D01*
X20915Y-16536D01*
X20915Y-15895D01*
X20915Y-14438D01*
X20900Y-14401D01*
X20871Y-14373D01*
X20835Y-14358D01*
X20795Y-14358D01*
X20682Y-14358D01*
X20657Y-14383D01*
X20657Y-14812D01*
X20890Y-14812D01*
X20915Y-14787D01*
X20915Y-14438D01*
X20915Y-15895D01*
X20915Y-15546D01*
X20890Y-15521D01*
X20657Y-15521D01*
X20657Y-15950D01*
X20682Y-15975D01*
X20795Y-15975D01*
X20835Y-15975D01*
X20871Y-15960D01*
X20900Y-15932D01*
X20915Y-15895D01*
X20915Y-16536D01*
X20890Y-16511D01*
X20841Y-16491D01*
X20788Y-16491D01*
X20342Y-16491D01*
X20342Y-15950D01*
X20342Y-15521D01*
X20342Y-14812D01*
X20342Y-14383D01*
X20317Y-14358D01*
X20204Y-14358D01*
X20164Y-14358D01*
X20128Y-14373D01*
X20099Y-14401D01*
X20084Y-14438D01*
X20084Y-14787D01*
X20109Y-14812D01*
X20342Y-14812D01*
X20342Y-15521D01*
X20109Y-15521D01*
X20084Y-15546D01*
X20084Y-15895D01*
X20099Y-15932D01*
X20128Y-15960D01*
X20164Y-15975D01*
X20204Y-15975D01*
X20317Y-15975D01*
X20342Y-15950D01*
X20342Y-16491D01*
X20158Y-16491D01*
X20109Y-16511D01*
X20071Y-16548D01*
X20051Y-16597D01*
X20051Y-16650D01*
X20051Y-17101D01*
X19667Y-17101D01*
X19578Y-17118D01*
X19503Y-17169D01*
X19403Y-17268D01*
X18750Y-17268D01*
X18600Y-17268D01*
X18600Y-13480D01*
X18600Y-12519D01*
X18600Y-12479D01*
X18585Y-12443D01*
X18556Y-12414D01*
X18519Y-12399D01*
X18275Y-12399D01*
X18250Y-12424D01*
X18250Y-12750D01*
X18575Y-12750D01*
X18600Y-12724D01*
X18600Y-12519D01*
X18600Y-13480D01*
X18600Y-13275D01*
X18575Y-13250D01*
X18250Y-13250D01*
X18250Y-13575D01*
X18275Y-13600D01*
X18519Y-13600D01*
X18556Y-13585D01*
X18585Y-13556D01*
X18600Y-13520D01*
X18600Y-13480D01*
X18600Y-17268D01*
X18500Y-17268D01*
X18414Y-17268D01*
X18414Y-15997D01*
X18455Y-15981D01*
X18493Y-15943D01*
X18513Y-15894D01*
X18513Y-15841D01*
X18513Y-15605D01*
X18493Y-15556D01*
X18455Y-15518D01*
X18414Y-15501D01*
X18414Y-15247D01*
X18455Y-15231D01*
X18493Y-15193D01*
X18513Y-15144D01*
X18513Y-15091D01*
X18513Y-14855D01*
X18493Y-14806D01*
X18455Y-14768D01*
X18406Y-14748D01*
X18353Y-14748D01*
X17959Y-14748D01*
X17910Y-14768D01*
X17872Y-14806D01*
X17852Y-14855D01*
X17852Y-14908D01*
X17852Y-15144D01*
X17872Y-15193D01*
X17910Y-15231D01*
X17951Y-15248D01*
X17951Y-15502D01*
X17910Y-15518D01*
X17872Y-15556D01*
X17852Y-15605D01*
X17852Y-15658D01*
X17852Y-15894D01*
X17872Y-15943D01*
X17910Y-15981D01*
X17951Y-15998D01*
X17951Y-17268D01*
X17750Y-17268D01*
X17750Y-13575D01*
X17750Y-13250D01*
X17750Y-12750D01*
X17750Y-12424D01*
X17724Y-12399D01*
X17480Y-12399D01*
X17443Y-12414D01*
X17414Y-12443D01*
X17399Y-12479D01*
X17399Y-12519D01*
X17399Y-12724D01*
X17424Y-12750D01*
X17750Y-12750D01*
X17750Y-13250D01*
X17424Y-13250D01*
X17399Y-13275D01*
X17399Y-13480D01*
X17399Y-13520D01*
X17414Y-13556D01*
X17443Y-13585D01*
X17480Y-13600D01*
X17724Y-13600D01*
X17750Y-13575D01*
X17750Y-17268D01*
X17647Y-17268D01*
X17647Y-15841D01*
X17647Y-15605D01*
X17627Y-15556D01*
X17589Y-15518D01*
X17540Y-15498D01*
X17487Y-15498D01*
X17093Y-15498D01*
X17046Y-15518D01*
X16750Y-15518D01*
X16231Y-15518D01*
X16231Y-15113D01*
X16253Y-15164D01*
X16334Y-15246D01*
X16441Y-15290D01*
X16557Y-15290D01*
X16664Y-15246D01*
X16679Y-15231D01*
X17046Y-15231D01*
X17093Y-15251D01*
X17146Y-15251D01*
X17540Y-15251D01*
X17589Y-15231D01*
X17627Y-15193D01*
X17647Y-15144D01*
X17647Y-15091D01*
X17647Y-14855D01*
X17627Y-14806D01*
X17589Y-14768D01*
X17540Y-14748D01*
X17487Y-14748D01*
X17093Y-14748D01*
X17046Y-14768D01*
X16679Y-14768D01*
X16665Y-14753D01*
X16558Y-14709D01*
X16442Y-14709D01*
X16335Y-14753D01*
X16253Y-14834D01*
X16231Y-14887D01*
X16231Y-13589D01*
X16358Y-13537D01*
X16536Y-13359D01*
X16633Y-13126D01*
X16633Y-12874D01*
X16537Y-12641D01*
X16359Y-12463D01*
X16126Y-12366D01*
X15874Y-12366D01*
X15641Y-12462D01*
X15463Y-12640D01*
X15366Y-12873D01*
X15366Y-13125D01*
X15462Y-13358D01*
X15640Y-13536D01*
X15768Y-13589D01*
X15768Y-14886D01*
X15746Y-14835D01*
X15665Y-14753D01*
X15558Y-14709D01*
X15442Y-14709D01*
X15335Y-14753D01*
X15320Y-14768D01*
X14731Y-14768D01*
X14731Y-14500D01*
X14731Y-14250D01*
X14714Y-14161D01*
X14714Y-14161D01*
X14663Y-14086D01*
X14231Y-13653D01*
X14231Y-13589D01*
X14358Y-13537D01*
X14536Y-13359D01*
X14633Y-13126D01*
X14633Y-12874D01*
X14537Y-12641D01*
X14359Y-12463D01*
X14126Y-12366D01*
X13874Y-12366D01*
X13641Y-12462D01*
X13463Y-12640D01*
X13366Y-12873D01*
X13366Y-13125D01*
X13462Y-13358D01*
X13640Y-13536D01*
X13768Y-13589D01*
X13768Y-13750D01*
X13785Y-13838D01*
X13836Y-13913D01*
X14268Y-14346D01*
X14268Y-14500D01*
X14268Y-14768D01*
X14203Y-14768D01*
X14156Y-14748D01*
X14103Y-14748D01*
X13709Y-14748D01*
X13660Y-14768D01*
X13622Y-14806D01*
X13602Y-14855D01*
X13602Y-14908D01*
X13602Y-15144D01*
X13622Y-15193D01*
X13660Y-15231D01*
X13709Y-15251D01*
X13762Y-15251D01*
X14156Y-15251D01*
X14203Y-15231D01*
X14500Y-15231D01*
X15268Y-15231D01*
X15268Y-15636D01*
X15246Y-15585D01*
X15165Y-15503D01*
X15058Y-15459D01*
X14942Y-15459D01*
X14835Y-15503D01*
X14820Y-15518D01*
X14203Y-15518D01*
X14156Y-15498D01*
X14103Y-15498D01*
X13709Y-15498D01*
X13660Y-15518D01*
X13622Y-15556D01*
X13602Y-15605D01*
X13602Y-15658D01*
X13602Y-15894D01*
X13622Y-15943D01*
X13660Y-15981D01*
X13701Y-15998D01*
X13701Y-16220D01*
X13653Y-16268D01*
X13364Y-16268D01*
X13364Y-15848D01*
X13364Y-15651D01*
X13364Y-15098D01*
X13364Y-14901D01*
X13364Y-14861D01*
X13349Y-14825D01*
X13320Y-14796D01*
X13283Y-14781D01*
X13190Y-14781D01*
X13165Y-14806D01*
X13165Y-14941D01*
X13339Y-14941D01*
X13364Y-14915D01*
X13364Y-14901D01*
X13364Y-15098D01*
X13364Y-15084D01*
X13339Y-15059D01*
X13165Y-15059D01*
X13165Y-15193D01*
X13190Y-15218D01*
X13283Y-15218D01*
X13320Y-15203D01*
X13349Y-15174D01*
X13364Y-15138D01*
X13364Y-15098D01*
X13364Y-15651D01*
X13364Y-15611D01*
X13349Y-15575D01*
X13320Y-15546D01*
X13283Y-15531D01*
X13190Y-15531D01*
X13165Y-15556D01*
X13165Y-15691D01*
X13339Y-15691D01*
X13364Y-15665D01*
X13364Y-15651D01*
X13364Y-15848D01*
X13364Y-15834D01*
X13339Y-15809D01*
X13165Y-15809D01*
X13165Y-15943D01*
X13190Y-15968D01*
X13283Y-15968D01*
X13320Y-15953D01*
X13349Y-15924D01*
X13364Y-15888D01*
X13364Y-15848D01*
X13364Y-16268D01*
X12968Y-16268D01*
X12968Y-15943D01*
X12968Y-15809D01*
X12968Y-15691D01*
X12968Y-15556D01*
X12968Y-15193D01*
X12968Y-15059D01*
X12968Y-14941D01*
X12968Y-14806D01*
X12943Y-14781D01*
X12850Y-14781D01*
X12813Y-14796D01*
X12784Y-14825D01*
X12769Y-14861D01*
X12769Y-14901D01*
X12769Y-14915D01*
X12794Y-14941D01*
X12968Y-14941D01*
X12968Y-15059D01*
X12794Y-15059D01*
X12769Y-15084D01*
X12769Y-15098D01*
X12769Y-15138D01*
X12784Y-15174D01*
X12813Y-15203D01*
X12850Y-15218D01*
X12943Y-15218D01*
X12968Y-15193D01*
X12968Y-15556D01*
X12943Y-15531D01*
X12850Y-15531D01*
X12813Y-15546D01*
X12784Y-15575D01*
X12769Y-15611D01*
X12769Y-15651D01*
X12769Y-15665D01*
X12794Y-15691D01*
X12968Y-15691D01*
X12968Y-15809D01*
X12794Y-15809D01*
X12769Y-15834D01*
X12769Y-15848D01*
X12769Y-15888D01*
X12784Y-15924D01*
X12813Y-15953D01*
X12850Y-15968D01*
X12943Y-15968D01*
X12968Y-15943D01*
X12968Y-16268D01*
X12500Y-16268D01*
X12250Y-16268D01*
X12161Y-16285D01*
X12086Y-16336D01*
X12086Y-16336D01*
X11836Y-16586D01*
X11785Y-16661D01*
X11769Y-16743D01*
X11769Y-12798D01*
X11614Y-12423D01*
X11328Y-12136D01*
X10953Y-11980D01*
X10548Y-11980D01*
X10173Y-12135D01*
X9886Y-12421D01*
X9730Y-12796D01*
X9730Y-13201D01*
X9885Y-13576D01*
X10171Y-13863D01*
X10546Y-14019D01*
X10951Y-14019D01*
X11326Y-13864D01*
X11613Y-13578D01*
X11769Y-13203D01*
X11769Y-12798D01*
X11769Y-16743D01*
X11768Y-16750D01*
X11768Y-17066D01*
X11673Y-17066D01*
X11624Y-17086D01*
X11586Y-17124D01*
X11566Y-17173D01*
X11566Y-17226D01*
X11566Y-17826D01*
X11586Y-17875D01*
X11624Y-17913D01*
X11673Y-17933D01*
X11726Y-17933D01*
X12326Y-17933D01*
X12375Y-17913D01*
X12413Y-17875D01*
X12433Y-17826D01*
X12433Y-17773D01*
X12433Y-17173D01*
X12413Y-17124D01*
X12375Y-17086D01*
X12326Y-17066D01*
X12273Y-17066D01*
X12231Y-17066D01*
X12231Y-16846D01*
X12346Y-16731D01*
X12500Y-16731D01*
X13750Y-16731D01*
X13838Y-16714D01*
X13838Y-16714D01*
X13913Y-16663D01*
X14096Y-16480D01*
X14096Y-16480D01*
X14096Y-16480D01*
X14147Y-16405D01*
X14164Y-16317D01*
X14164Y-16317D01*
X14164Y-16317D01*
X14164Y-15997D01*
X14203Y-15981D01*
X14820Y-15981D01*
X14834Y-15996D01*
X14941Y-16040D01*
X15057Y-16040D01*
X15164Y-15996D01*
X15246Y-15915D01*
X15268Y-15862D01*
X15268Y-16100D01*
X15249Y-16144D01*
X15231Y-16098D01*
X15193Y-16061D01*
X15144Y-16041D01*
X15091Y-16041D01*
X14855Y-16041D01*
X14806Y-16061D01*
X14768Y-16098D01*
X14748Y-16147D01*
X14748Y-16200D01*
X14748Y-16751D01*
X14768Y-16799D01*
X14768Y-16903D01*
X14653Y-17018D01*
X14558Y-17018D01*
X14558Y-16998D01*
X14538Y-16949D01*
X14500Y-16911D01*
X14451Y-16891D01*
X14398Y-16891D01*
X14148Y-16891D01*
X14099Y-16911D01*
X14061Y-16949D01*
X14041Y-16998D01*
X14041Y-17051D01*
X14041Y-17501D01*
X14061Y-17550D01*
X14099Y-17588D01*
X14148Y-17608D01*
X14201Y-17608D01*
X14451Y-17608D01*
X14500Y-17588D01*
X14538Y-17550D01*
X14558Y-17501D01*
X14558Y-17481D01*
X14750Y-17481D01*
X14838Y-17464D01*
X14838Y-17464D01*
X14913Y-17413D01*
X15163Y-17163D01*
X15163Y-17163D01*
X15163Y-17163D01*
X15214Y-17088D01*
X15231Y-17000D01*
X15231Y-16799D01*
X15250Y-16755D01*
X15268Y-16801D01*
X15306Y-16838D01*
X15355Y-16858D01*
X15408Y-16858D01*
X15644Y-16858D01*
X15693Y-16838D01*
X15731Y-16801D01*
X15750Y-16755D01*
X15768Y-16801D01*
X15806Y-16838D01*
X15855Y-16858D01*
X15908Y-16858D01*
X16144Y-16858D01*
X16193Y-16838D01*
X16231Y-16801D01*
X16250Y-16755D01*
X16268Y-16801D01*
X16306Y-16838D01*
X16355Y-16858D01*
X16408Y-16858D01*
X16644Y-16858D01*
X16693Y-16838D01*
X16731Y-16801D01*
X16751Y-16752D01*
X16751Y-16699D01*
X16751Y-16148D01*
X16731Y-16098D01*
X16693Y-16061D01*
X16644Y-16041D01*
X16591Y-16041D01*
X16355Y-16041D01*
X16306Y-16061D01*
X16268Y-16098D01*
X16249Y-16144D01*
X16231Y-16100D01*
X16231Y-16000D01*
X16231Y-15981D01*
X16750Y-15981D01*
X17046Y-15981D01*
X17093Y-16001D01*
X17146Y-16001D01*
X17540Y-16001D01*
X17589Y-15981D01*
X17627Y-15943D01*
X17647Y-15894D01*
X17647Y-15841D01*
X17647Y-17268D01*
X16500Y-17268D01*
X16411Y-17285D01*
X16336Y-17336D01*
X15903Y-17768D01*
X13925Y-17768D01*
X13925Y-17455D01*
X13925Y-17044D01*
X13925Y-17004D01*
X13910Y-16968D01*
X13881Y-16939D01*
X13844Y-16924D01*
X13787Y-16924D01*
X13762Y-16949D01*
X13762Y-17137D01*
X13900Y-17137D01*
X13925Y-17112D01*
X13925Y-17044D01*
X13925Y-17455D01*
X13925Y-17387D01*
X13900Y-17362D01*
X13762Y-17362D01*
X13762Y-17550D01*
X13787Y-17575D01*
X13844Y-17575D01*
X13881Y-17560D01*
X13910Y-17531D01*
X13925Y-17495D01*
X13925Y-17455D01*
X13925Y-17768D01*
X13637Y-17768D01*
X13637Y-17550D01*
X13637Y-17362D01*
X13637Y-17137D01*
X13637Y-16949D01*
X13612Y-16924D01*
X13555Y-16924D01*
X13518Y-16939D01*
X13489Y-16968D01*
X13474Y-17004D01*
X13474Y-17044D01*
X13474Y-17112D01*
X13499Y-17137D01*
X13637Y-17137D01*
X13637Y-17362D01*
X13499Y-17362D01*
X13474Y-17387D01*
X13474Y-17455D01*
X13474Y-17495D01*
X13489Y-17531D01*
X13518Y-17560D01*
X13555Y-17575D01*
X13612Y-17575D01*
X13637Y-17550D01*
X13637Y-17768D01*
X13500Y-17768D01*
X13411Y-17785D01*
X13336Y-17836D01*
X13336Y-17836D01*
X13086Y-18086D01*
X13035Y-18161D01*
X13018Y-18250D01*
X13018Y-19268D01*
X12808Y-19268D01*
X12808Y-19248D01*
X12788Y-19199D01*
X12750Y-19161D01*
X12701Y-19141D01*
X12648Y-19141D01*
X12398Y-19141D01*
X12349Y-19161D01*
X12311Y-19199D01*
X12291Y-19248D01*
X12291Y-19301D01*
X12291Y-19751D01*
X12311Y-19800D01*
X12349Y-19838D01*
X12398Y-19858D01*
X12451Y-19858D01*
X12701Y-19858D01*
X12750Y-19838D01*
X12788Y-19800D01*
X12808Y-19751D01*
X12808Y-19731D01*
X13250Y-19731D01*
X13441Y-19731D01*
X13441Y-19751D01*
X13461Y-19800D01*
X13499Y-19838D01*
X13548Y-19858D01*
X13601Y-19858D01*
X13851Y-19858D01*
X13900Y-19838D01*
X13938Y-19800D01*
X13958Y-19751D01*
X13958Y-19698D01*
X13958Y-19248D01*
X13938Y-19199D01*
X13900Y-19161D01*
X13851Y-19141D01*
X13798Y-19141D01*
X13548Y-19141D01*
X13499Y-19161D01*
X13481Y-19179D01*
X13481Y-18346D01*
X13596Y-18231D01*
X14755Y-18231D01*
X14748Y-18247D01*
X14748Y-18300D01*
X14748Y-18851D01*
X14768Y-18899D01*
X14768Y-19123D01*
X14766Y-19125D01*
X14746Y-19174D01*
X14746Y-19227D01*
X14746Y-19268D01*
X14558Y-19268D01*
X14558Y-19248D01*
X14538Y-19199D01*
X14500Y-19161D01*
X14451Y-19141D01*
X14398Y-19141D01*
X14148Y-19141D01*
X14099Y-19161D01*
X14061Y-19199D01*
X14041Y-19248D01*
X14041Y-19301D01*
X14041Y-19751D01*
X14061Y-19800D01*
X14099Y-19838D01*
X14148Y-19858D01*
X14201Y-19858D01*
X14451Y-19858D01*
X14500Y-19838D01*
X14538Y-19800D01*
X14558Y-19751D01*
X14558Y-19731D01*
X14746Y-19731D01*
X14746Y-19825D01*
X14766Y-19874D01*
X14804Y-19912D01*
X14853Y-19932D01*
X14906Y-19932D01*
X15146Y-19932D01*
X15195Y-19912D01*
X15233Y-19874D01*
X15253Y-19825D01*
X15253Y-19772D01*
X15253Y-19174D01*
X15233Y-19125D01*
X15231Y-19123D01*
X15231Y-18899D01*
X15251Y-18852D01*
X15251Y-18799D01*
X15251Y-18274D01*
X15281Y-18274D01*
X15281Y-18294D01*
X15281Y-18387D01*
X15306Y-18412D01*
X15441Y-18412D01*
X15441Y-18274D01*
X15559Y-18274D01*
X15559Y-18412D01*
X15693Y-18412D01*
X15718Y-18387D01*
X15718Y-18294D01*
X15718Y-18274D01*
X15748Y-18274D01*
X15748Y-18300D01*
X15748Y-18851D01*
X15768Y-18901D01*
X15806Y-18938D01*
X15855Y-18958D01*
X15908Y-18958D01*
X16144Y-18958D01*
X16193Y-18938D01*
X16231Y-18901D01*
X16250Y-18855D01*
X16268Y-18899D01*
X16268Y-19250D01*
X16285Y-19338D01*
X16336Y-19413D01*
X16586Y-19663D01*
X16586Y-19663D01*
X16661Y-19714D01*
X16750Y-19731D01*
X17246Y-19731D01*
X17246Y-19825D01*
X17266Y-19874D01*
X17304Y-19912D01*
X17353Y-19932D01*
X17406Y-19932D01*
X17646Y-19932D01*
X17695Y-19912D01*
X17733Y-19874D01*
X17753Y-19825D01*
X17753Y-19772D01*
X17753Y-19174D01*
X17733Y-19125D01*
X17695Y-19087D01*
X17646Y-19067D01*
X17593Y-19067D01*
X17353Y-19067D01*
X17304Y-19087D01*
X17266Y-19125D01*
X17246Y-19174D01*
X17246Y-19227D01*
X17246Y-19268D01*
X16846Y-19268D01*
X16731Y-19153D01*
X16731Y-18899D01*
X16751Y-18852D01*
X16751Y-18799D01*
X16751Y-18248D01*
X16731Y-18198D01*
X16693Y-18161D01*
X16644Y-18141D01*
X16591Y-18141D01*
X16355Y-18141D01*
X16306Y-18161D01*
X16268Y-18198D01*
X16249Y-18244D01*
X16231Y-18200D01*
X16231Y-18096D01*
X16596Y-17731D01*
X18179Y-17731D01*
X18161Y-17749D01*
X18141Y-17798D01*
X18141Y-17851D01*
X18141Y-18101D01*
X18161Y-18150D01*
X18199Y-18188D01*
X18248Y-18208D01*
X18301Y-18208D01*
X18751Y-18208D01*
X18800Y-18188D01*
X18838Y-18150D01*
X18858Y-18101D01*
X18858Y-18048D01*
X18858Y-17798D01*
X18838Y-17749D01*
X18820Y-17731D01*
X19500Y-17731D01*
X19588Y-17714D01*
X19588Y-17714D01*
X19663Y-17663D01*
X19763Y-17564D01*
X20051Y-17564D01*
X20051Y-18067D01*
X20071Y-18117D01*
X20109Y-18154D01*
X20158Y-18174D01*
X20169Y-18174D01*
X20169Y-18250D01*
X20169Y-18834D01*
X20053Y-18950D01*
X19972Y-19144D01*
X19972Y-19354D01*
X20052Y-19548D01*
X20200Y-19696D01*
X20374Y-19768D01*
X20330Y-19802D01*
X20500Y-19971D01*
X20669Y-19802D01*
X20625Y-19768D01*
X20798Y-19697D01*
X20946Y-19549D01*
X21027Y-19355D01*
X21027Y-19145D01*
X20947Y-18951D01*
X20830Y-18834D01*
X20830Y-18481D01*
X21191Y-18481D01*
X21191Y-18501D01*
X21211Y-18550D01*
X21249Y-18588D01*
X21298Y-18608D01*
X21351Y-18608D01*
X21601Y-18608D01*
X21650Y-18588D01*
X21688Y-18550D01*
X21708Y-18501D01*
X21708Y-18448D01*
X21708Y-20466D01*
X20996Y-20466D01*
X20994Y-20466D01*
X20996Y-20464D01*
X21110Y-20351D01*
X21015Y-20255D01*
X20996Y-20273D01*
X20993Y-20277D01*
X20996Y-20166D01*
X20990Y-20136D01*
X20947Y-20080D01*
X20778Y-20250D01*
X20899Y-20371D01*
X20804Y-20466D01*
X20221Y-20466D01*
X20195Y-20466D01*
X20100Y-20371D01*
X20221Y-20250D01*
X20052Y-20080D01*
X20009Y-20136D01*
X20004Y-20275D01*
X19984Y-20255D01*
X19889Y-20351D01*
X20005Y-20466D01*
X18858Y-20466D01*
X18858Y-18648D01*
X18858Y-18398D01*
X18838Y-18349D01*
X18800Y-18311D01*
X18751Y-18291D01*
X18698Y-18291D01*
X18248Y-18291D01*
X18199Y-18311D01*
X18161Y-18349D01*
X18141Y-18398D01*
X18141Y-18451D01*
X18141Y-18701D01*
X18161Y-18750D01*
X18199Y-18788D01*
X18248Y-18808D01*
X18268Y-18808D01*
X18268Y-19123D01*
X18266Y-19125D01*
X18246Y-19174D01*
X18246Y-19227D01*
X18246Y-19825D01*
X18266Y-19874D01*
X18304Y-19912D01*
X18353Y-19932D01*
X18406Y-19932D01*
X18646Y-19932D01*
X18695Y-19912D01*
X18733Y-19874D01*
X18753Y-19825D01*
X18753Y-19772D01*
X18753Y-19174D01*
X18733Y-19125D01*
X18731Y-19123D01*
X18731Y-18808D01*
X18751Y-18808D01*
X18800Y-18788D01*
X18838Y-18750D01*
X18858Y-18701D01*
X18858Y-18648D01*
X18858Y-20466D01*
X16220Y-20466D01*
X16220Y-19779D01*
X16220Y-19220D01*
X16220Y-19180D01*
X16205Y-19143D01*
X16176Y-19115D01*
X16139Y-19100D01*
X16085Y-19100D01*
X16060Y-19125D01*
X16060Y-19350D01*
X16195Y-19350D01*
X16220Y-19325D01*
X16220Y-19220D01*
X16220Y-19779D01*
X16220Y-19674D01*
X16195Y-19649D01*
X16060Y-19649D01*
X16060Y-19874D01*
X16085Y-19899D01*
X16139Y-19899D01*
X16176Y-19884D01*
X16205Y-19856D01*
X16220Y-19819D01*
X16220Y-19779D01*
X16220Y-20466D01*
X15939Y-20466D01*
X15939Y-19874D01*
X15939Y-19649D01*
X15939Y-19350D01*
X15939Y-19125D01*
X15914Y-19100D01*
X15860Y-19100D01*
X15823Y-19115D01*
X15794Y-19143D01*
X15779Y-19180D01*
X15779Y-19220D01*
X15779Y-19325D01*
X15804Y-19350D01*
X15939Y-19350D01*
X15939Y-19649D01*
X15804Y-19649D01*
X15779Y-19674D01*
X15779Y-19779D01*
X15779Y-19819D01*
X15794Y-19856D01*
X15823Y-19884D01*
X15860Y-19899D01*
X15914Y-19899D01*
X15939Y-19874D01*
X15939Y-20466D01*
X15718Y-20466D01*
X15718Y-18805D01*
X15718Y-18712D01*
X15693Y-18687D01*
X15559Y-18687D01*
X15559Y-18900D01*
X15584Y-18925D01*
X15637Y-18925D01*
X15674Y-18910D01*
X15703Y-18882D01*
X15718Y-18845D01*
X15718Y-18805D01*
X15718Y-20466D01*
X15441Y-20466D01*
X15441Y-18900D01*
X15441Y-18687D01*
X15306Y-18687D01*
X15281Y-18712D01*
X15281Y-18805D01*
X15281Y-18845D01*
X15296Y-18882D01*
X15325Y-18910D01*
X15362Y-18925D01*
X15415Y-18925D01*
X15441Y-18900D01*
X15441Y-20466D01*
X12208Y-20466D01*
X12208Y-19698D01*
X12208Y-19248D01*
X12188Y-19199D01*
X12150Y-19161D01*
X12101Y-19141D01*
X12048Y-19141D01*
X11798Y-19141D01*
X11749Y-19161D01*
X11711Y-19199D01*
X11691Y-19248D01*
X11691Y-19268D01*
X11558Y-19268D01*
X11558Y-19248D01*
X11538Y-19199D01*
X11500Y-19161D01*
X11451Y-19141D01*
X11433Y-19141D01*
X11433Y-17414D01*
X11367Y-17254D01*
X11245Y-17132D01*
X11231Y-17126D01*
X11231Y-16808D01*
X11251Y-16808D01*
X11300Y-16788D01*
X11338Y-16750D01*
X11358Y-16701D01*
X11358Y-16648D01*
X11358Y-16398D01*
X11358Y-16048D01*
X11358Y-15798D01*
X11338Y-15749D01*
X11300Y-15711D01*
X11251Y-15691D01*
X11231Y-15691D01*
X11231Y-15179D01*
X11246Y-15165D01*
X11290Y-15058D01*
X11290Y-14942D01*
X11246Y-14835D01*
X11165Y-14753D01*
X11058Y-14709D01*
X10942Y-14709D01*
X10835Y-14753D01*
X10753Y-14834D01*
X10709Y-14941D01*
X10709Y-15057D01*
X10753Y-15164D01*
X10768Y-15179D01*
X10768Y-15691D01*
X10748Y-15691D01*
X10699Y-15711D01*
X10661Y-15749D01*
X10641Y-15798D01*
X10641Y-15851D01*
X10641Y-16101D01*
X10661Y-16150D01*
X10699Y-16188D01*
X10748Y-16208D01*
X10801Y-16208D01*
X11251Y-16208D01*
X11300Y-16188D01*
X11338Y-16150D01*
X11358Y-16101D01*
X11358Y-16048D01*
X11358Y-16398D01*
X11338Y-16349D01*
X11300Y-16311D01*
X11251Y-16291D01*
X11198Y-16291D01*
X10748Y-16291D01*
X10699Y-16311D01*
X10661Y-16349D01*
X10641Y-16398D01*
X10641Y-16451D01*
X10641Y-16701D01*
X10661Y-16750D01*
X10699Y-16788D01*
X10748Y-16808D01*
X10768Y-16808D01*
X10768Y-17126D01*
X10754Y-17132D01*
X10632Y-17254D01*
X10566Y-17413D01*
X10566Y-17585D01*
X10632Y-17745D01*
X10754Y-17867D01*
X10913Y-17933D01*
X11085Y-17933D01*
X11245Y-17867D01*
X11367Y-17745D01*
X11433Y-17586D01*
X11433Y-17414D01*
X11433Y-19141D01*
X11398Y-19141D01*
X11148Y-19141D01*
X11099Y-19161D01*
X11061Y-19199D01*
X11041Y-19248D01*
X11041Y-19301D01*
X11041Y-19751D01*
X11061Y-19800D01*
X11099Y-19838D01*
X11148Y-19858D01*
X11201Y-19858D01*
X11451Y-19858D01*
X11500Y-19838D01*
X11538Y-19800D01*
X11558Y-19751D01*
X11558Y-19731D01*
X11691Y-19731D01*
X11691Y-19751D01*
X11711Y-19800D01*
X11749Y-19838D01*
X11798Y-19858D01*
X11851Y-19858D01*
X12101Y-19858D01*
X12150Y-19838D01*
X12188Y-19800D01*
X12208Y-19751D01*
X12208Y-19698D01*
X12208Y-20466D01*
X10925Y-20466D01*
X10925Y-19705D01*
X10925Y-19294D01*
X10925Y-19254D01*
X10910Y-19218D01*
X10881Y-19189D01*
X10844Y-19174D01*
X10787Y-19174D01*
X10762Y-19199D01*
X10762Y-19387D01*
X10900Y-19387D01*
X10925Y-19362D01*
X10925Y-19294D01*
X10925Y-19705D01*
X10925Y-19637D01*
X10900Y-19612D01*
X10762Y-19612D01*
X10762Y-19800D01*
X10787Y-19825D01*
X10844Y-19825D01*
X10881Y-19810D01*
X10910Y-19781D01*
X10925Y-19745D01*
X10925Y-19705D01*
X10925Y-20466D01*
X10637Y-20466D01*
X10637Y-19800D01*
X10637Y-19612D01*
X10637Y-19387D01*
X10637Y-19199D01*
X10612Y-19174D01*
X10555Y-19174D01*
X10518Y-19189D01*
X10489Y-19218D01*
X10474Y-19254D01*
X10474Y-19294D01*
X10474Y-19362D01*
X10499Y-19387D01*
X10637Y-19387D01*
X10637Y-19612D01*
X10499Y-19612D01*
X10474Y-19637D01*
X10474Y-19705D01*
X10474Y-19745D01*
X10489Y-19781D01*
X10518Y-19810D01*
X10555Y-19825D01*
X10612Y-19825D01*
X10637Y-19800D01*
X10637Y-20466D01*
X9370Y-20466D01*
X9370Y-13011D01*
X9476Y-12473D01*
X9774Y-12026D01*
X10224Y-11727D01*
X10764Y-11620D01*
X21238Y-11620D01*
X21776Y-11726D01*
X22223Y-12024D01*
X22522Y-12474D01*
X22629Y-13014D01*
X22629Y-20466D01*
X22629Y-20466D01*
G37*
G54D31*
X22629Y-20466D02*
X22275Y-20466D01*
X22275Y-18455D01*
X22275Y-18044D01*
X22275Y-18004D01*
X22269Y-17990D01*
X22269Y-12798D01*
X22114Y-12423D01*
X21828Y-12136D01*
X21453Y-11980D01*
X21048Y-11980D01*
X20673Y-12135D01*
X20386Y-12421D01*
X20230Y-12796D01*
X20230Y-13201D01*
X20385Y-13576D01*
X20671Y-13863D01*
X21046Y-14019D01*
X21451Y-14019D01*
X21826Y-13864D01*
X22113Y-13578D01*
X22269Y-13203D01*
X22269Y-12798D01*
X22269Y-17990D01*
X22260Y-17968D01*
X22231Y-17939D01*
X22194Y-17924D01*
X22137Y-17924D01*
X22112Y-17949D01*
X22112Y-18137D01*
X22250Y-18137D01*
X22275Y-18112D01*
X22275Y-18044D01*
X22275Y-18455D01*
X22275Y-18387D01*
X22250Y-18362D01*
X22112Y-18362D01*
X22112Y-18550D01*
X22137Y-18575D01*
X22194Y-18575D01*
X22231Y-18560D01*
X22260Y-18531D01*
X22275Y-18495D01*
X22275Y-18455D01*
X22275Y-20466D01*
X21987Y-20466D01*
X21987Y-18550D01*
X21987Y-18362D01*
X21987Y-18137D01*
X21987Y-17949D01*
X21962Y-17924D01*
X21905Y-17924D01*
X21868Y-17939D01*
X21839Y-17968D01*
X21824Y-18004D01*
X21824Y-18044D01*
X21824Y-18112D01*
X21849Y-18137D01*
X21987Y-18137D01*
X21987Y-18362D01*
X21849Y-18362D01*
X21824Y-18387D01*
X21824Y-18455D01*
X21824Y-18495D01*
X21839Y-18531D01*
X21868Y-18560D01*
X21905Y-18575D01*
X21962Y-18575D01*
X21987Y-18550D01*
X21987Y-20466D01*
X21708Y-20466D01*
X21708Y-18448D01*
X21708Y-17998D01*
X21688Y-17949D01*
X21650Y-17911D01*
X21601Y-17891D01*
X21548Y-17891D01*
X21298Y-17891D01*
X21249Y-17911D01*
X21211Y-17949D01*
X21191Y-17998D01*
X21191Y-18018D01*
X20948Y-18018D01*
X20948Y-18015D01*
X20948Y-16598D01*
X20928Y-16548D01*
X20915Y-16536D01*
X20915Y-15895D01*
X20915Y-14438D01*
X20900Y-14401D01*
X20871Y-14373D01*
X20835Y-14358D01*
X20795Y-14358D01*
X20682Y-14358D01*
X20657Y-14383D01*
X20657Y-14812D01*
X20890Y-14812D01*
X20915Y-14787D01*
X20915Y-14438D01*
X20915Y-15895D01*
X20915Y-15546D01*
X20890Y-15521D01*
X20657Y-15521D01*
X20657Y-15950D01*
X20682Y-15975D01*
X20795Y-15975D01*
X20835Y-15975D01*
X20871Y-15960D01*
X20900Y-15932D01*
X20915Y-15895D01*
X20915Y-16536D01*
X20890Y-16511D01*
X20841Y-16491D01*
X20788Y-16491D01*
X20342Y-16491D01*
X20342Y-15950D01*
X20342Y-15521D01*
X20342Y-14812D01*
X20342Y-14383D01*
X20317Y-14358D01*
X20204Y-14358D01*
X20164Y-14358D01*
X20128Y-14373D01*
X20099Y-14401D01*
X20084Y-14438D01*
X20084Y-14787D01*
X20109Y-14812D01*
X20342Y-14812D01*
X20342Y-15521D01*
X20109Y-15521D01*
X20084Y-15546D01*
X20084Y-15895D01*
X20099Y-15932D01*
X20128Y-15960D01*
X20164Y-15975D01*
X20204Y-15975D01*
X20317Y-15975D01*
X20342Y-15950D01*
X20342Y-16491D01*
X20158Y-16491D01*
X20109Y-16511D01*
X20071Y-16548D01*
X20051Y-16597D01*
X20051Y-16650D01*
X20051Y-17101D01*
X19667Y-17101D01*
X19578Y-17118D01*
X19503Y-17169D01*
X19403Y-17268D01*
X18750Y-17268D01*
X18600Y-17268D01*
X18600Y-13480D01*
X18600Y-12519D01*
X18600Y-12479D01*
X18585Y-12443D01*
X18556Y-12414D01*
X18519Y-12399D01*
X18275Y-12399D01*
X18250Y-12424D01*
X18250Y-12750D01*
X18575Y-12750D01*
X18600Y-12724D01*
X18600Y-12519D01*
X18600Y-13480D01*
X18600Y-13275D01*
X18575Y-13250D01*
X18250Y-13250D01*
X18250Y-13575D01*
X18275Y-13600D01*
X18519Y-13600D01*
X18556Y-13585D01*
X18585Y-13556D01*
X18600Y-13520D01*
X18600Y-13480D01*
X18600Y-17268D01*
X18500Y-17268D01*
X18414Y-17268D01*
X18414Y-15997D01*
X18455Y-15981D01*
X18493Y-15943D01*
X18513Y-15894D01*
X18513Y-15841D01*
X18513Y-15605D01*
X18493Y-15556D01*
X18455Y-15518D01*
X18414Y-15501D01*
X18414Y-15247D01*
X18455Y-15231D01*
X18493Y-15193D01*
X18513Y-15144D01*
X18513Y-15091D01*
X18513Y-14855D01*
X18493Y-14806D01*
X18455Y-14768D01*
X18406Y-14748D01*
X18353Y-14748D01*
X17959Y-14748D01*
X17910Y-14768D01*
X17872Y-14806D01*
X17852Y-14855D01*
X17852Y-14908D01*
X17852Y-15144D01*
X17872Y-15193D01*
X17910Y-15231D01*
X17951Y-15248D01*
X17951Y-15502D01*
X17910Y-15518D01*
X17872Y-15556D01*
X17852Y-15605D01*
X17852Y-15658D01*
X17852Y-15894D01*
X17872Y-15943D01*
X17910Y-15981D01*
X17951Y-15998D01*
X17951Y-17268D01*
X17750Y-17268D01*
X17750Y-13575D01*
X17750Y-13250D01*
X17750Y-12750D01*
X17750Y-12424D01*
X17724Y-12399D01*
X17480Y-12399D01*
X17443Y-12414D01*
X17414Y-12443D01*
X17399Y-12479D01*
X17399Y-12519D01*
X17399Y-12724D01*
X17424Y-12750D01*
X17750Y-12750D01*
X17750Y-13250D01*
X17424Y-13250D01*
X17399Y-13275D01*
X17399Y-13480D01*
X17399Y-13520D01*
X17414Y-13556D01*
X17443Y-13585D01*
X17480Y-13600D01*
X17724Y-13600D01*
X17750Y-13575D01*
X17750Y-17268D01*
X17647Y-17268D01*
X17647Y-15841D01*
X17647Y-15605D01*
X17627Y-15556D01*
X17589Y-15518D01*
X17540Y-15498D01*
X17487Y-15498D01*
X17093Y-15498D01*
X17046Y-15518D01*
X16750Y-15518D01*
X16231Y-15518D01*
X16231Y-15113D01*
X16253Y-15164D01*
X16334Y-15246D01*
X16441Y-15290D01*
X16557Y-15290D01*
X16664Y-15246D01*
X16679Y-15231D01*
X17046Y-15231D01*
X17093Y-15251D01*
X17146Y-15251D01*
X17540Y-15251D01*
X17589Y-15231D01*
X17627Y-15193D01*
X17647Y-15144D01*
X17647Y-15091D01*
X17647Y-14855D01*
X17627Y-14806D01*
X17589Y-14768D01*
X17540Y-14748D01*
X17487Y-14748D01*
X17093Y-14748D01*
X17046Y-14768D01*
X16679Y-14768D01*
X16665Y-14753D01*
X16558Y-14709D01*
X16442Y-14709D01*
X16335Y-14753D01*
X16253Y-14834D01*
X16231Y-14887D01*
X16231Y-13589D01*
X16358Y-13537D01*
X16536Y-13359D01*
X16633Y-13126D01*
X16633Y-12874D01*
X16537Y-12641D01*
X16359Y-12463D01*
X16126Y-12366D01*
X15874Y-12366D01*
X15641Y-12462D01*
X15463Y-12640D01*
X15366Y-12873D01*
X15366Y-13125D01*
X15462Y-13358D01*
X15640Y-13536D01*
X15768Y-13589D01*
X15768Y-14886D01*
X15746Y-14835D01*
X15665Y-14753D01*
X15558Y-14709D01*
X15442Y-14709D01*
X15335Y-14753D01*
X15320Y-14768D01*
X14731Y-14768D01*
X14731Y-14500D01*
X14731Y-14250D01*
X14714Y-14161D01*
X14714Y-14161D01*
X14663Y-14086D01*
X14231Y-13653D01*
X14231Y-13589D01*
X14358Y-13537D01*
X14536Y-13359D01*
X14633Y-13126D01*
X14633Y-12874D01*
X14537Y-12641D01*
X14359Y-12463D01*
X14126Y-12366D01*
X13874Y-12366D01*
X13641Y-12462D01*
X13463Y-12640D01*
X13366Y-12873D01*
X13366Y-13125D01*
X13462Y-13358D01*
X13640Y-13536D01*
X13768Y-13589D01*
X13768Y-13750D01*
X13785Y-13838D01*
X13836Y-13913D01*
X14268Y-14346D01*
X14268Y-14500D01*
X14268Y-14768D01*
X14203Y-14768D01*
X14156Y-14748D01*
X14103Y-14748D01*
X13709Y-14748D01*
X13660Y-14768D01*
X13622Y-14806D01*
X13602Y-14855D01*
X13602Y-14908D01*
X13602Y-15144D01*
X13622Y-15193D01*
X13660Y-15231D01*
X13709Y-15251D01*
X13762Y-15251D01*
X14156Y-15251D01*
X14203Y-15231D01*
X14500Y-15231D01*
X15268Y-15231D01*
X15268Y-15636D01*
X15246Y-15585D01*
X15165Y-15503D01*
X15058Y-15459D01*
X14942Y-15459D01*
X14835Y-15503D01*
X14820Y-15518D01*
X14203Y-15518D01*
X14156Y-15498D01*
X14103Y-15498D01*
X13709Y-15498D01*
X13660Y-15518D01*
X13622Y-15556D01*
X13602Y-15605D01*
X13602Y-15658D01*
X13602Y-15894D01*
X13622Y-15943D01*
X13660Y-15981D01*
X13701Y-15998D01*
X13701Y-16220D01*
X13653Y-16268D01*
X13364Y-16268D01*
X13364Y-15848D01*
X13364Y-15651D01*
X13364Y-15098D01*
X13364Y-14901D01*
X13364Y-14861D01*
X13349Y-14825D01*
X13320Y-14796D01*
X13283Y-14781D01*
X13190Y-14781D01*
X13165Y-14806D01*
X13165Y-14941D01*
X13339Y-14941D01*
X13364Y-14915D01*
X13364Y-14901D01*
X13364Y-15098D01*
X13364Y-15084D01*
X13339Y-15059D01*
X13165Y-15059D01*
X13165Y-15193D01*
X13190Y-15218D01*
X13283Y-15218D01*
X13320Y-15203D01*
X13349Y-15174D01*
X13364Y-15138D01*
X13364Y-15098D01*
X13364Y-15651D01*
X13364Y-15611D01*
X13349Y-15575D01*
X13320Y-15546D01*
X13283Y-15531D01*
X13190Y-15531D01*
X13165Y-15556D01*
X13165Y-15691D01*
X13339Y-15691D01*
X13364Y-15665D01*
X13364Y-15651D01*
X13364Y-15848D01*
X13364Y-15834D01*
X13339Y-15809D01*
X13165Y-15809D01*
X13165Y-15943D01*
X13190Y-15968D01*
X13283Y-15968D01*
X13320Y-15953D01*
X13349Y-15924D01*
X13364Y-15888D01*
X13364Y-15848D01*
X13364Y-16268D01*
X12968Y-16268D01*
X12968Y-15943D01*
X12968Y-15809D01*
X12968Y-15691D01*
X12968Y-15556D01*
X12968Y-15193D01*
X12968Y-15059D01*
X12968Y-14941D01*
X12968Y-14806D01*
X12943Y-14781D01*
X12850Y-14781D01*
X12813Y-14796D01*
X12784Y-14825D01*
X12769Y-14861D01*
X12769Y-14901D01*
X12769Y-14915D01*
X12794Y-14941D01*
X12968Y-14941D01*
X12968Y-15059D01*
X12794Y-15059D01*
X12769Y-15084D01*
X12769Y-15098D01*
X12769Y-15138D01*
X12784Y-15174D01*
X12813Y-15203D01*
X12850Y-15218D01*
X12943Y-15218D01*
X12968Y-15193D01*
X12968Y-15556D01*
X12943Y-15531D01*
X12850Y-15531D01*
X12813Y-15546D01*
X12784Y-15575D01*
X12769Y-15611D01*
X12769Y-15651D01*
X12769Y-15665D01*
X12794Y-15691D01*
X12968Y-15691D01*
X12968Y-15809D01*
X12794Y-15809D01*
X12769Y-15834D01*
X12769Y-15848D01*
X12769Y-15888D01*
X12784Y-15924D01*
X12813Y-15953D01*
X12850Y-15968D01*
X12943Y-15968D01*
X12968Y-15943D01*
X12968Y-16268D01*
X12500Y-16268D01*
X12250Y-16268D01*
X12161Y-16285D01*
X12086Y-16336D01*
X12086Y-16336D01*
X11836Y-16586D01*
X11785Y-16661D01*
X11769Y-16743D01*
X11769Y-12798D01*
X11614Y-12423D01*
X11328Y-12136D01*
X10953Y-11980D01*
X10548Y-11980D01*
X10173Y-12135D01*
X9886Y-12421D01*
X9730Y-12796D01*
X9730Y-13201D01*
X9885Y-13576D01*
X10171Y-13863D01*
X10546Y-14019D01*
X10951Y-14019D01*
X11326Y-13864D01*
X11613Y-13578D01*
X11769Y-13203D01*
X11769Y-12798D01*
X11769Y-16743D01*
X11768Y-16750D01*
X11768Y-17066D01*
X11673Y-17066D01*
X11624Y-17086D01*
X11586Y-17124D01*
X11566Y-17173D01*
X11566Y-17226D01*
X11566Y-17826D01*
X11586Y-17875D01*
X11624Y-17913D01*
X11673Y-17933D01*
X11726Y-17933D01*
X12326Y-17933D01*
X12375Y-17913D01*
X12413Y-17875D01*
X12433Y-17826D01*
X12433Y-17773D01*
X12433Y-17173D01*
X12413Y-17124D01*
X12375Y-17086D01*
X12326Y-17066D01*
X12273Y-17066D01*
X12231Y-17066D01*
X12231Y-16846D01*
X12346Y-16731D01*
X12500Y-16731D01*
X13750Y-16731D01*
X13838Y-16714D01*
X13838Y-16714D01*
X13913Y-16663D01*
X14096Y-16480D01*
X14096Y-16480D01*
X14096Y-16480D01*
X14147Y-16405D01*
X14164Y-16317D01*
X14164Y-16317D01*
X14164Y-16317D01*
X14164Y-15997D01*
X14203Y-15981D01*
X14820Y-15981D01*
X14834Y-15996D01*
X14941Y-16040D01*
X15057Y-16040D01*
X15164Y-15996D01*
X15246Y-15915D01*
X15268Y-15862D01*
X15268Y-16100D01*
X15249Y-16144D01*
X15231Y-16098D01*
X15193Y-16061D01*
X15144Y-16041D01*
X15091Y-16041D01*
X14855Y-16041D01*
X14806Y-16061D01*
X14768Y-16098D01*
X14748Y-16147D01*
X14748Y-16200D01*
X14748Y-16751D01*
X14768Y-16799D01*
X14768Y-16903D01*
X14653Y-17018D01*
X14558Y-17018D01*
X14558Y-16998D01*
X14538Y-16949D01*
X14500Y-16911D01*
X14451Y-16891D01*
X14398Y-16891D01*
X14148Y-16891D01*
X14099Y-16911D01*
X14061Y-16949D01*
X14041Y-16998D01*
X14041Y-17051D01*
X14041Y-17501D01*
X14061Y-17550D01*
X14099Y-17588D01*
X14148Y-17608D01*
X14201Y-17608D01*
X14451Y-17608D01*
X14500Y-17588D01*
X14538Y-17550D01*
X14558Y-17501D01*
X14558Y-17481D01*
X14750Y-17481D01*
X14838Y-17464D01*
X14838Y-17464D01*
X14913Y-17413D01*
X15163Y-17163D01*
X15163Y-17163D01*
X15163Y-17163D01*
X15214Y-17088D01*
X15231Y-17000D01*
X15231Y-16799D01*
X15250Y-16755D01*
X15268Y-16801D01*
X15306Y-16838D01*
X15355Y-16858D01*
X15408Y-16858D01*
X15644Y-16858D01*
X15693Y-16838D01*
X15731Y-16801D01*
X15750Y-16755D01*
X15768Y-16801D01*
X15806Y-16838D01*
X15855Y-16858D01*
X15908Y-16858D01*
X16144Y-16858D01*
X16193Y-16838D01*
X16231Y-16801D01*
X16250Y-16755D01*
X16268Y-16801D01*
X16306Y-16838D01*
X16355Y-16858D01*
X16408Y-16858D01*
X16644Y-16858D01*
X16693Y-16838D01*
X16731Y-16801D01*
X16751Y-16752D01*
X16751Y-16699D01*
X16751Y-16148D01*
X16731Y-16098D01*
X16693Y-16061D01*
X16644Y-16041D01*
X16591Y-16041D01*
X16355Y-16041D01*
X16306Y-16061D01*
X16268Y-16098D01*
X16249Y-16144D01*
X16231Y-16100D01*
X16231Y-16000D01*
X16231Y-15981D01*
X16750Y-15981D01*
X17046Y-15981D01*
X17093Y-16001D01*
X17146Y-16001D01*
X17540Y-16001D01*
X17589Y-15981D01*
X17627Y-15943D01*
X17647Y-15894D01*
X17647Y-15841D01*
X17647Y-17268D01*
X16500Y-17268D01*
X16411Y-17285D01*
X16336Y-17336D01*
X15903Y-17768D01*
X13925Y-17768D01*
X13925Y-17455D01*
X13925Y-17044D01*
X13925Y-17004D01*
X13910Y-16968D01*
X13881Y-16939D01*
X13844Y-16924D01*
X13787Y-16924D01*
X13762Y-16949D01*
X13762Y-17137D01*
X13900Y-17137D01*
X13925Y-17112D01*
X13925Y-17044D01*
X13925Y-17455D01*
X13925Y-17387D01*
X13900Y-17362D01*
X13762Y-17362D01*
X13762Y-17550D01*
X13787Y-17575D01*
X13844Y-17575D01*
X13881Y-17560D01*
X13910Y-17531D01*
X13925Y-17495D01*
X13925Y-17455D01*
X13925Y-17768D01*
X13637Y-17768D01*
X13637Y-17550D01*
X13637Y-17362D01*
X13637Y-17137D01*
X13637Y-16949D01*
X13612Y-16924D01*
X13555Y-16924D01*
X13518Y-16939D01*
X13489Y-16968D01*
X13474Y-17004D01*
X13474Y-17044D01*
X13474Y-17112D01*
X13499Y-17137D01*
X13637Y-17137D01*
X13637Y-17362D01*
X13499Y-17362D01*
X13474Y-17387D01*
X13474Y-17455D01*
X13474Y-17495D01*
X13489Y-17531D01*
X13518Y-17560D01*
X13555Y-17575D01*
X13612Y-17575D01*
X13637Y-17550D01*
X13637Y-17768D01*
X13500Y-17768D01*
X13411Y-17785D01*
X13336Y-17836D01*
X13336Y-17836D01*
X13086Y-18086D01*
X13035Y-18161D01*
X13018Y-18250D01*
X13018Y-19268D01*
X12808Y-19268D01*
X12808Y-19248D01*
X12788Y-19199D01*
X12750Y-19161D01*
X12701Y-19141D01*
X12648Y-19141D01*
X12398Y-19141D01*
X12349Y-19161D01*
X12311Y-19199D01*
X12291Y-19248D01*
X12291Y-19301D01*
X12291Y-19751D01*
X12311Y-19800D01*
X12349Y-19838D01*
X12398Y-19858D01*
X12451Y-19858D01*
X12701Y-19858D01*
X12750Y-19838D01*
X12788Y-19800D01*
X12808Y-19751D01*
X12808Y-19731D01*
X13250Y-19731D01*
X13441Y-19731D01*
X13441Y-19751D01*
X13461Y-19800D01*
X13499Y-19838D01*
X13548Y-19858D01*
X13601Y-19858D01*
X13851Y-19858D01*
X13900Y-19838D01*
X13938Y-19800D01*
X13958Y-19751D01*
X13958Y-19698D01*
X13958Y-19248D01*
X13938Y-19199D01*
X13900Y-19161D01*
X13851Y-19141D01*
X13798Y-19141D01*
X13548Y-19141D01*
X13499Y-19161D01*
X13481Y-19179D01*
X13481Y-18346D01*
X13596Y-18231D01*
X14755Y-18231D01*
X14748Y-18247D01*
X14748Y-18300D01*
X14748Y-18851D01*
X14768Y-18899D01*
X14768Y-19123D01*
X14766Y-19125D01*
X14746Y-19174D01*
X14746Y-19227D01*
X14746Y-19268D01*
X14558Y-19268D01*
X14558Y-19248D01*
X14538Y-19199D01*
X14500Y-19161D01*
X14451Y-19141D01*
X14398Y-19141D01*
X14148Y-19141D01*
X14099Y-19161D01*
X14061Y-19199D01*
X14041Y-19248D01*
X14041Y-19301D01*
X14041Y-19751D01*
X14061Y-19800D01*
X14099Y-19838D01*
X14148Y-19858D01*
X14201Y-19858D01*
X14451Y-19858D01*
X14500Y-19838D01*
X14538Y-19800D01*
X14558Y-19751D01*
X14558Y-19731D01*
X14746Y-19731D01*
X14746Y-19825D01*
X14766Y-19874D01*
X14804Y-19912D01*
X14853Y-19932D01*
X14906Y-19932D01*
X15146Y-19932D01*
X15195Y-19912D01*
X15233Y-19874D01*
X15253Y-19825D01*
X15253Y-19772D01*
X15253Y-19174D01*
X15233Y-19125D01*
X15231Y-19123D01*
X15231Y-18899D01*
X15251Y-18852D01*
X15251Y-18799D01*
X15251Y-18274D01*
X15281Y-18274D01*
X15281Y-18294D01*
X15281Y-18387D01*
X15306Y-18412D01*
X15441Y-18412D01*
X15441Y-18274D01*
X15559Y-18274D01*
X15559Y-18412D01*
X15693Y-18412D01*
X15718Y-18387D01*
X15718Y-18294D01*
X15718Y-18274D01*
X15748Y-18274D01*
X15748Y-18300D01*
X15748Y-18851D01*
X15768Y-18901D01*
X15806Y-18938D01*
X15855Y-18958D01*
X15908Y-18958D01*
X16144Y-18958D01*
X16193Y-18938D01*
X16231Y-18901D01*
X16250Y-18855D01*
X16268Y-18899D01*
X16268Y-19250D01*
X16285Y-19338D01*
X16336Y-19413D01*
X16586Y-19663D01*
X16586Y-19663D01*
X16661Y-19714D01*
X16750Y-19731D01*
X17246Y-19731D01*
X17246Y-19825D01*
X17266Y-19874D01*
X17304Y-19912D01*
X17353Y-19932D01*
X17406Y-19932D01*
X17646Y-19932D01*
X17695Y-19912D01*
X17733Y-19874D01*
X17753Y-19825D01*
X17753Y-19772D01*
X17753Y-19174D01*
X17733Y-19125D01*
X17695Y-19087D01*
X17646Y-19067D01*
X17593Y-19067D01*
X17353Y-19067D01*
X17304Y-19087D01*
X17266Y-19125D01*
X17246Y-19174D01*
X17246Y-19227D01*
X17246Y-19268D01*
X16846Y-19268D01*
X16731Y-19153D01*
X16731Y-18899D01*
X16751Y-18852D01*
X16751Y-18799D01*
X16751Y-18248D01*
X16731Y-18198D01*
X16693Y-18161D01*
X16644Y-18141D01*
X16591Y-18141D01*
X16355Y-18141D01*
X16306Y-18161D01*
X16268Y-18198D01*
X16249Y-18244D01*
X16231Y-18200D01*
X16231Y-18096D01*
X16596Y-17731D01*
X18179Y-17731D01*
X18161Y-17749D01*
X18141Y-17798D01*
X18141Y-17851D01*
X18141Y-18101D01*
X18161Y-18150D01*
X18199Y-18188D01*
X18248Y-18208D01*
X18301Y-18208D01*
X18751Y-18208D01*
X18800Y-18188D01*
X18838Y-18150D01*
X18858Y-18101D01*
X18858Y-18048D01*
X18858Y-17798D01*
X18838Y-17749D01*
X18820Y-17731D01*
X19500Y-17731D01*
X19588Y-17714D01*
X19588Y-17714D01*
X19663Y-17663D01*
X19763Y-17564D01*
X20051Y-17564D01*
X20051Y-18067D01*
X20071Y-18117D01*
X20109Y-18154D01*
X20158Y-18174D01*
X20169Y-18174D01*
X20169Y-18250D01*
X20169Y-18834D01*
X20053Y-18950D01*
X19972Y-19144D01*
X19972Y-19354D01*
X20052Y-19548D01*
X20200Y-19696D01*
X20374Y-19768D01*
X20330Y-19802D01*
X20500Y-19971D01*
X20669Y-19802D01*
X20625Y-19768D01*
X20798Y-19697D01*
X20946Y-19549D01*
X21027Y-19355D01*
X21027Y-19145D01*
X20947Y-18951D01*
X20830Y-18834D01*
X20830Y-18481D01*
X21191Y-18481D01*
X21191Y-18501D01*
X21211Y-18550D01*
X21249Y-18588D01*
X21298Y-18608D01*
X21351Y-18608D01*
X21601Y-18608D01*
X21650Y-18588D01*
X21688Y-18550D01*
X21708Y-18501D01*
X21708Y-18448D01*
X21708Y-20466D01*
X20996Y-20466D01*
X20994Y-20466D01*
X20996Y-20464D01*
X21110Y-20351D01*
X21015Y-20255D01*
X20996Y-20273D01*
X20993Y-20277D01*
X20996Y-20166D01*
X20990Y-20136D01*
X20947Y-20080D01*
X20778Y-20250D01*
X20899Y-20371D01*
X20804Y-20466D01*
X20221Y-20466D01*
X20195Y-20466D01*
X20100Y-20371D01*
X20221Y-20250D01*
X20052Y-20080D01*
X20009Y-20136D01*
X20004Y-20275D01*
X19984Y-20255D01*
X19889Y-20351D01*
X20005Y-20466D01*
X18858Y-20466D01*
X18858Y-18648D01*
X18858Y-18398D01*
X18838Y-18349D01*
X18800Y-18311D01*
X18751Y-18291D01*
X18698Y-18291D01*
X18248Y-18291D01*
X18199Y-18311D01*
X18161Y-18349D01*
X18141Y-18398D01*
X18141Y-18451D01*
X18141Y-18701D01*
X18161Y-18750D01*
X18199Y-18788D01*
X18248Y-18808D01*
X18268Y-18808D01*
X18268Y-19123D01*
X18266Y-19125D01*
X18246Y-19174D01*
X18246Y-19227D01*
X18246Y-19825D01*
X18266Y-19874D01*
X18304Y-19912D01*
X18353Y-19932D01*
X18406Y-19932D01*
X18646Y-19932D01*
X18695Y-19912D01*
X18733Y-19874D01*
X18753Y-19825D01*
X18753Y-19772D01*
X18753Y-19174D01*
X18733Y-19125D01*
X18731Y-19123D01*
X18731Y-18808D01*
X18751Y-18808D01*
X18800Y-18788D01*
X18838Y-18750D01*
X18858Y-18701D01*
X18858Y-18648D01*
X18858Y-20466D01*
X16220Y-20466D01*
X16220Y-19779D01*
X16220Y-19220D01*
X16220Y-19180D01*
X16205Y-19143D01*
X16176Y-19115D01*
X16139Y-19100D01*
X16085Y-19100D01*
X16060Y-19125D01*
X16060Y-19350D01*
X16195Y-19350D01*
X16220Y-19325D01*
X16220Y-19220D01*
X16220Y-19779D01*
X16220Y-19674D01*
X16195Y-19649D01*
X16060Y-19649D01*
X16060Y-19874D01*
X16085Y-19899D01*
X16139Y-19899D01*
X16176Y-19884D01*
X16205Y-19856D01*
X16220Y-19819D01*
X16220Y-19779D01*
X16220Y-20466D01*
X15939Y-20466D01*
X15939Y-19874D01*
X15939Y-19649D01*
X15939Y-19350D01*
X15939Y-19125D01*
X15914Y-19100D01*
X15860Y-19100D01*
X15823Y-19115D01*
X15794Y-19143D01*
X15779Y-19180D01*
X15779Y-19220D01*
X15779Y-19325D01*
X15804Y-19350D01*
X15939Y-19350D01*
X15939Y-19649D01*
X15804Y-19649D01*
X15779Y-19674D01*
X15779Y-19779D01*
X15779Y-19819D01*
X15794Y-19856D01*
X15823Y-19884D01*
X15860Y-19899D01*
X15914Y-19899D01*
X15939Y-19874D01*
X15939Y-20466D01*
X15718Y-20466D01*
X15718Y-18805D01*
X15718Y-18712D01*
X15693Y-18687D01*
X15559Y-18687D01*
X15559Y-18900D01*
X15584Y-18925D01*
X15637Y-18925D01*
X15674Y-18910D01*
X15703Y-18882D01*
X15718Y-18845D01*
X15718Y-18805D01*
X15718Y-20466D01*
X15441Y-20466D01*
X15441Y-18900D01*
X15441Y-18687D01*
X15306Y-18687D01*
X15281Y-18712D01*
X15281Y-18805D01*
X15281Y-18845D01*
X15296Y-18882D01*
X15325Y-18910D01*
X15362Y-18925D01*
X15415Y-18925D01*
X15441Y-18900D01*
X15441Y-20466D01*
X12208Y-20466D01*
X12208Y-19698D01*
X12208Y-19248D01*
X12188Y-19199D01*
X12150Y-19161D01*
X12101Y-19141D01*
X12048Y-19141D01*
X11798Y-19141D01*
X11749Y-19161D01*
X11711Y-19199D01*
X11691Y-19248D01*
X11691Y-19268D01*
X11558Y-19268D01*
X11558Y-19248D01*
X11538Y-19199D01*
X11500Y-19161D01*
X11451Y-19141D01*
X11433Y-19141D01*
X11433Y-17414D01*
X11367Y-17254D01*
X11245Y-17132D01*
X11231Y-17126D01*
X11231Y-16808D01*
X11251Y-16808D01*
X11300Y-16788D01*
X11338Y-16750D01*
X11358Y-16701D01*
X11358Y-16648D01*
X11358Y-16398D01*
X11358Y-16048D01*
X11358Y-15798D01*
X11338Y-15749D01*
X11300Y-15711D01*
X11251Y-15691D01*
X11231Y-15691D01*
X11231Y-15179D01*
X11246Y-15165D01*
X11290Y-15058D01*
X11290Y-14942D01*
X11246Y-14835D01*
X11165Y-14753D01*
X11058Y-14709D01*
X10942Y-14709D01*
X10835Y-14753D01*
X10753Y-14834D01*
X10709Y-14941D01*
X10709Y-15057D01*
X10753Y-15164D01*
X10768Y-15179D01*
X10768Y-15691D01*
X10748Y-15691D01*
X10699Y-15711D01*
X10661Y-15749D01*
X10641Y-15798D01*
X10641Y-15851D01*
X10641Y-16101D01*
X10661Y-16150D01*
X10699Y-16188D01*
X10748Y-16208D01*
X10801Y-16208D01*
X11251Y-16208D01*
X11300Y-16188D01*
X11338Y-16150D01*
X11358Y-16101D01*
X11358Y-16048D01*
X11358Y-16398D01*
X11338Y-16349D01*
X11300Y-16311D01*
X11251Y-16291D01*
X11198Y-16291D01*
X10748Y-16291D01*
X10699Y-16311D01*
X10661Y-16349D01*
X10641Y-16398D01*
X10641Y-16451D01*
X10641Y-16701D01*
X10661Y-16750D01*
X10699Y-16788D01*
X10748Y-16808D01*
X10768Y-16808D01*
X10768Y-17126D01*
X10754Y-17132D01*
X10632Y-17254D01*
X10566Y-17413D01*
X10566Y-17585D01*
X10632Y-17745D01*
X10754Y-17867D01*
X10913Y-17933D01*
X11085Y-17933D01*
X11245Y-17867D01*
X11367Y-17745D01*
X11433Y-17586D01*
X11433Y-17414D01*
X11433Y-19141D01*
X11398Y-19141D01*
X11148Y-19141D01*
X11099Y-19161D01*
X11061Y-19199D01*
X11041Y-19248D01*
X11041Y-19301D01*
X11041Y-19751D01*
X11061Y-19800D01*
X11099Y-19838D01*
X11148Y-19858D01*
X11201Y-19858D01*
X11451Y-19858D01*
X11500Y-19838D01*
X11538Y-19800D01*
X11558Y-19751D01*
X11558Y-19731D01*
X11691Y-19731D01*
X11691Y-19751D01*
X11711Y-19800D01*
X11749Y-19838D01*
X11798Y-19858D01*
X11851Y-19858D01*
X12101Y-19858D01*
X12150Y-19838D01*
X12188Y-19800D01*
X12208Y-19751D01*
X12208Y-19698D01*
X12208Y-20466D01*
X10925Y-20466D01*
X10925Y-19705D01*
X10925Y-19294D01*
X10925Y-19254D01*
X10910Y-19218D01*
X10881Y-19189D01*
X10844Y-19174D01*
X10787Y-19174D01*
X10762Y-19199D01*
X10762Y-19387D01*
X10900Y-19387D01*
X10925Y-19362D01*
X10925Y-19294D01*
X10925Y-19705D01*
X10925Y-19637D01*
X10900Y-19612D01*
X10762Y-19612D01*
X10762Y-19800D01*
X10787Y-19825D01*
X10844Y-19825D01*
X10881Y-19810D01*
X10910Y-19781D01*
X10925Y-19745D01*
X10925Y-19705D01*
X10925Y-20466D01*
X10637Y-20466D01*
X10637Y-19800D01*
X10637Y-19612D01*
X10637Y-19387D01*
X10637Y-19199D01*
X10612Y-19174D01*
X10555Y-19174D01*
X10518Y-19189D01*
X10489Y-19218D01*
X10474Y-19254D01*
X10474Y-19294D01*
X10474Y-19362D01*
X10499Y-19387D01*
X10637Y-19387D01*
X10637Y-19612D01*
X10499Y-19612D01*
X10474Y-19637D01*
X10474Y-19705D01*
X10474Y-19745D01*
X10489Y-19781D01*
X10518Y-19810D01*
X10555Y-19825D01*
X10612Y-19825D01*
X10637Y-19800D01*
X10637Y-20466D01*
X9370Y-20466D01*
X9370Y-13011D01*
X9476Y-12473D01*
X9774Y-12026D01*
X10224Y-11727D01*
X10764Y-11620D01*
X21238Y-11620D01*
X21776Y-11726D01*
X22223Y-12024D01*
X22522Y-12474D01*
X22629Y-13014D01*
X22629Y-20466D01*
G54D10*
G36*
X22629Y-27485D02*
X22522Y-28025D01*
X22269Y-28406D01*
X22269Y-27298D01*
X22114Y-26923D01*
X21828Y-26636D01*
X21453Y-26480D01*
X21048Y-26480D01*
X20673Y-26635D01*
X20386Y-26921D01*
X20230Y-27296D01*
X20230Y-27701D01*
X20385Y-28076D01*
X20671Y-28363D01*
X21046Y-28519D01*
X21451Y-28519D01*
X21826Y-28364D01*
X22113Y-28078D01*
X22269Y-27703D01*
X22269Y-27298D01*
X22269Y-28406D01*
X22223Y-28475D01*
X21776Y-28773D01*
X21238Y-28879D01*
X17883Y-28879D01*
X17883Y-27325D01*
X17749Y-27000D01*
X17700Y-26951D01*
X17700Y-25555D01*
X17700Y-25144D01*
X17700Y-25104D01*
X17685Y-25068D01*
X17656Y-25039D01*
X17619Y-25024D01*
X17575Y-25024D01*
X17550Y-25049D01*
X17550Y-25237D01*
X17675Y-25237D01*
X17700Y-25212D01*
X17700Y-25144D01*
X17700Y-25555D01*
X17700Y-25487D01*
X17675Y-25462D01*
X17550Y-25462D01*
X17550Y-25650D01*
X17575Y-25675D01*
X17619Y-25675D01*
X17656Y-25660D01*
X17685Y-25631D01*
X17700Y-25595D01*
X17700Y-25555D01*
X17700Y-26951D01*
X17501Y-26751D01*
X17450Y-26730D01*
X17450Y-25650D01*
X17450Y-25462D01*
X17450Y-25237D01*
X17450Y-25049D01*
X17424Y-25024D01*
X17380Y-25024D01*
X17343Y-25039D01*
X17314Y-25068D01*
X17299Y-25104D01*
X17299Y-25144D01*
X17299Y-25212D01*
X17324Y-25237D01*
X17450Y-25237D01*
X17450Y-25462D01*
X17324Y-25462D01*
X17299Y-25487D01*
X17299Y-25555D01*
X17299Y-25595D01*
X17314Y-25631D01*
X17343Y-25660D01*
X17380Y-25675D01*
X17424Y-25675D01*
X17450Y-25650D01*
X17450Y-26730D01*
X17231Y-26639D01*
X17231Y-25605D01*
X17233Y-25601D01*
X17233Y-25548D01*
X17233Y-25098D01*
X17213Y-25049D01*
X17175Y-25011D01*
X17126Y-24991D01*
X17073Y-24991D01*
X16873Y-24991D01*
X16824Y-25011D01*
X16790Y-25045D01*
X16790Y-24692D01*
X16746Y-24585D01*
X16665Y-24503D01*
X16558Y-24459D01*
X16442Y-24459D01*
X16335Y-24503D01*
X16253Y-24584D01*
X16209Y-24691D01*
X16209Y-24807D01*
X16253Y-24914D01*
X16268Y-24929D01*
X16268Y-25094D01*
X16266Y-25098D01*
X16266Y-25151D01*
X16266Y-25601D01*
X16286Y-25650D01*
X16324Y-25688D01*
X16373Y-25708D01*
X16426Y-25708D01*
X16626Y-25708D01*
X16675Y-25688D01*
X16713Y-25650D01*
X16733Y-25601D01*
X16733Y-25548D01*
X16733Y-25098D01*
X16731Y-25094D01*
X16731Y-24929D01*
X16746Y-24915D01*
X16790Y-24808D01*
X16790Y-24692D01*
X16790Y-25045D01*
X16786Y-25049D01*
X16766Y-25098D01*
X16766Y-25151D01*
X16766Y-25601D01*
X16768Y-25605D01*
X16768Y-26639D01*
X16500Y-26750D01*
X16251Y-26998D01*
X16200Y-27121D01*
X16200Y-25555D01*
X16200Y-25144D01*
X16200Y-25104D01*
X16185Y-25068D01*
X16156Y-25039D01*
X16119Y-25024D01*
X16075Y-25024D01*
X16050Y-25049D01*
X16050Y-25237D01*
X16175Y-25237D01*
X16200Y-25212D01*
X16200Y-25144D01*
X16200Y-25555D01*
X16200Y-25487D01*
X16175Y-25462D01*
X16050Y-25462D01*
X16050Y-25650D01*
X16075Y-25675D01*
X16119Y-25675D01*
X16156Y-25660D01*
X16185Y-25631D01*
X16200Y-25595D01*
X16200Y-25555D01*
X16200Y-27121D01*
X16116Y-27323D01*
X16116Y-27674D01*
X16250Y-27999D01*
X16498Y-28248D01*
X16823Y-28383D01*
X17174Y-28383D01*
X17499Y-28249D01*
X17748Y-28001D01*
X17883Y-27676D01*
X17883Y-27325D01*
X17883Y-28879D01*
X15950Y-28879D01*
X15950Y-25650D01*
X15950Y-25462D01*
X15950Y-25237D01*
X15950Y-25049D01*
X15924Y-25024D01*
X15880Y-25024D01*
X15843Y-25039D01*
X15814Y-25068D01*
X15799Y-25104D01*
X15799Y-25144D01*
X15799Y-25212D01*
X15824Y-25237D01*
X15950Y-25237D01*
X15950Y-25462D01*
X15824Y-25462D01*
X15799Y-25487D01*
X15799Y-25555D01*
X15799Y-25595D01*
X15814Y-25631D01*
X15843Y-25660D01*
X15880Y-25675D01*
X15924Y-25675D01*
X15950Y-25650D01*
X15950Y-28879D01*
X15883Y-28879D01*
X15883Y-27325D01*
X15790Y-27100D01*
X15790Y-24692D01*
X15746Y-24585D01*
X15665Y-24503D01*
X15558Y-24459D01*
X15442Y-24459D01*
X15335Y-24503D01*
X15253Y-24584D01*
X15209Y-24691D01*
X15209Y-24807D01*
X15253Y-24914D01*
X15268Y-24929D01*
X15268Y-25094D01*
X15266Y-25098D01*
X15266Y-25151D01*
X15266Y-25601D01*
X15286Y-25650D01*
X15324Y-25688D01*
X15373Y-25708D01*
X15426Y-25708D01*
X15626Y-25708D01*
X15675Y-25688D01*
X15713Y-25650D01*
X15733Y-25601D01*
X15733Y-25548D01*
X15733Y-25098D01*
X15731Y-25094D01*
X15731Y-24929D01*
X15746Y-24915D01*
X15790Y-24808D01*
X15790Y-24692D01*
X15790Y-27100D01*
X15749Y-27000D01*
X15501Y-26751D01*
X15231Y-26639D01*
X15231Y-25605D01*
X15233Y-25601D01*
X15233Y-25548D01*
X15233Y-25098D01*
X15213Y-25049D01*
X15175Y-25011D01*
X15126Y-24991D01*
X15073Y-24991D01*
X14873Y-24991D01*
X14824Y-25011D01*
X14786Y-25049D01*
X14766Y-25098D01*
X14766Y-25151D01*
X14766Y-25601D01*
X14768Y-25605D01*
X14768Y-26639D01*
X14700Y-26667D01*
X14700Y-25555D01*
X14700Y-25144D01*
X14700Y-25104D01*
X14685Y-25068D01*
X14656Y-25039D01*
X14619Y-25024D01*
X14575Y-25024D01*
X14550Y-25049D01*
X14550Y-25237D01*
X14675Y-25237D01*
X14700Y-25212D01*
X14700Y-25144D01*
X14700Y-25555D01*
X14700Y-25487D01*
X14675Y-25462D01*
X14550Y-25462D01*
X14550Y-25650D01*
X14575Y-25675D01*
X14619Y-25675D01*
X14656Y-25660D01*
X14685Y-25631D01*
X14700Y-25595D01*
X14700Y-25555D01*
X14700Y-26667D01*
X14500Y-26750D01*
X14450Y-26800D01*
X14450Y-25650D01*
X14450Y-25462D01*
X14450Y-25237D01*
X14450Y-25049D01*
X14424Y-25024D01*
X14380Y-25024D01*
X14343Y-25039D01*
X14314Y-25068D01*
X14299Y-25104D01*
X14299Y-25144D01*
X14299Y-25212D01*
X14324Y-25237D01*
X14450Y-25237D01*
X14450Y-25462D01*
X14324Y-25462D01*
X14299Y-25487D01*
X14299Y-25555D01*
X14299Y-25595D01*
X14314Y-25631D01*
X14343Y-25660D01*
X14380Y-25675D01*
X14424Y-25675D01*
X14450Y-25650D01*
X14450Y-26800D01*
X14251Y-26998D01*
X14116Y-27323D01*
X14116Y-27674D01*
X14250Y-27999D01*
X14498Y-28248D01*
X14823Y-28383D01*
X15174Y-28383D01*
X15499Y-28249D01*
X15748Y-28001D01*
X15883Y-27676D01*
X15883Y-27325D01*
X15883Y-28879D01*
X13850Y-28879D01*
X13850Y-28230D01*
X13850Y-26769D01*
X13850Y-26729D01*
X13835Y-26693D01*
X13806Y-26664D01*
X13769Y-26649D01*
X13385Y-26649D01*
X13360Y-26674D01*
X13360Y-27139D01*
X13825Y-27139D01*
X13850Y-27114D01*
X13850Y-26769D01*
X13850Y-28230D01*
X13850Y-27885D01*
X13825Y-27860D01*
X13360Y-27860D01*
X13360Y-28325D01*
X13385Y-28350D01*
X13769Y-28350D01*
X13806Y-28335D01*
X13835Y-28306D01*
X13850Y-28270D01*
X13850Y-28230D01*
X13850Y-28879D01*
X12639Y-28879D01*
X12639Y-28325D01*
X12639Y-27860D01*
X12639Y-27139D01*
X12639Y-26674D01*
X12614Y-26649D01*
X12230Y-26649D01*
X12193Y-26664D01*
X12164Y-26693D01*
X12149Y-26729D01*
X12149Y-26769D01*
X12149Y-27114D01*
X12174Y-27139D01*
X12639Y-27139D01*
X12639Y-27860D01*
X12174Y-27860D01*
X12149Y-27885D01*
X12149Y-28230D01*
X12149Y-28270D01*
X12164Y-28306D01*
X12193Y-28335D01*
X12230Y-28350D01*
X12614Y-28350D01*
X12639Y-28325D01*
X12639Y-28879D01*
X11769Y-28879D01*
X11769Y-27298D01*
X11614Y-26923D01*
X11328Y-26636D01*
X10953Y-26480D01*
X10548Y-26480D01*
X10173Y-26635D01*
X9886Y-26921D01*
X9730Y-27296D01*
X9730Y-27701D01*
X9885Y-28076D01*
X10171Y-28363D01*
X10546Y-28519D01*
X10951Y-28519D01*
X11326Y-28364D01*
X11613Y-28078D01*
X11769Y-27703D01*
X11769Y-27298D01*
X11769Y-28879D01*
X10764Y-28879D01*
X10224Y-28772D01*
X9774Y-28473D01*
X9476Y-28026D01*
X9370Y-27488D01*
X9370Y-21033D01*
X19922Y-21033D01*
X19911Y-21035D01*
X19836Y-21086D01*
X19703Y-21218D01*
X19556Y-21218D01*
X19550Y-21211D01*
X19501Y-21191D01*
X19448Y-21191D01*
X18998Y-21191D01*
X18949Y-21211D01*
X18911Y-21249D01*
X18891Y-21298D01*
X18891Y-21351D01*
X18891Y-21601D01*
X18911Y-21650D01*
X18949Y-21688D01*
X18998Y-21708D01*
X19051Y-21708D01*
X19501Y-21708D01*
X19550Y-21688D01*
X19556Y-21681D01*
X19800Y-21681D01*
X19888Y-21664D01*
X19888Y-21664D01*
X19963Y-21613D01*
X20046Y-21531D01*
X20052Y-21548D01*
X20200Y-21696D01*
X20343Y-21755D01*
X20278Y-21755D01*
X20126Y-21755D01*
X20086Y-21755D01*
X20049Y-21771D01*
X20021Y-21799D01*
X20005Y-21836D01*
X20005Y-22028D01*
X20031Y-22053D01*
X20303Y-22053D01*
X20303Y-21881D01*
X20696Y-21881D01*
X20696Y-22053D01*
X20968Y-22053D01*
X20994Y-22028D01*
X20994Y-21836D01*
X20978Y-21799D01*
X20950Y-21771D01*
X20913Y-21755D01*
X20873Y-21755D01*
X20721Y-21755D01*
X20656Y-21755D01*
X20798Y-21697D01*
X20889Y-21606D01*
X21002Y-21719D01*
X21002Y-21750D01*
X21002Y-23518D01*
X20994Y-23518D01*
X20994Y-22663D01*
X20994Y-22471D01*
X20968Y-22446D01*
X20696Y-22446D01*
X20696Y-22718D01*
X20721Y-22744D01*
X20873Y-22744D01*
X20913Y-22744D01*
X20950Y-22728D01*
X20978Y-22700D01*
X20994Y-22663D01*
X20994Y-23518D01*
X20303Y-23518D01*
X20303Y-22718D01*
X20303Y-22446D01*
X20031Y-22446D01*
X20005Y-22471D01*
X20005Y-22663D01*
X20021Y-22700D01*
X20049Y-22728D01*
X20086Y-22744D01*
X20126Y-22744D01*
X20278Y-22744D01*
X20303Y-22718D01*
X20303Y-23518D01*
X20250Y-23518D01*
X19775Y-23518D01*
X19775Y-22955D01*
X19775Y-22544D01*
X19775Y-22504D01*
X19760Y-22468D01*
X19731Y-22439D01*
X19694Y-22424D01*
X19637Y-22424D01*
X19612Y-22449D01*
X19612Y-22637D01*
X19750Y-22637D01*
X19775Y-22612D01*
X19775Y-22544D01*
X19775Y-22955D01*
X19775Y-22887D01*
X19750Y-22862D01*
X19612Y-22862D01*
X19612Y-23050D01*
X19637Y-23075D01*
X19694Y-23075D01*
X19731Y-23060D01*
X19760Y-23031D01*
X19775Y-22995D01*
X19775Y-22955D01*
X19775Y-23518D01*
X19487Y-23518D01*
X19487Y-23050D01*
X19487Y-22862D01*
X19487Y-22637D01*
X19487Y-22449D01*
X19462Y-22424D01*
X19405Y-22424D01*
X19368Y-22439D01*
X19339Y-22468D01*
X19324Y-22504D01*
X19324Y-22544D01*
X19324Y-22612D01*
X19349Y-22637D01*
X19487Y-22637D01*
X19487Y-22862D01*
X19349Y-22862D01*
X19324Y-22887D01*
X19324Y-22955D01*
X19324Y-22995D01*
X19339Y-23031D01*
X19368Y-23060D01*
X19405Y-23075D01*
X19462Y-23075D01*
X19487Y-23050D01*
X19487Y-23518D01*
X18731Y-23518D01*
X18731Y-23096D01*
X18744Y-23083D01*
X18749Y-23088D01*
X18798Y-23108D01*
X18851Y-23108D01*
X19101Y-23108D01*
X19150Y-23088D01*
X19188Y-23050D01*
X19208Y-23001D01*
X19208Y-22948D01*
X19208Y-22498D01*
X19188Y-22449D01*
X19150Y-22411D01*
X19101Y-22391D01*
X19048Y-22391D01*
X18798Y-22391D01*
X18749Y-22411D01*
X18731Y-22429D01*
X18731Y-22376D01*
X18733Y-22374D01*
X18753Y-22325D01*
X18753Y-22272D01*
X18753Y-22272D01*
X18800Y-22281D01*
X18943Y-22281D01*
X18949Y-22288D01*
X18998Y-22308D01*
X19051Y-22308D01*
X19501Y-22308D01*
X19550Y-22288D01*
X19588Y-22250D01*
X19608Y-22201D01*
X19608Y-22148D01*
X19608Y-21898D01*
X19588Y-21849D01*
X19550Y-21811D01*
X19501Y-21791D01*
X19448Y-21791D01*
X18998Y-21791D01*
X18949Y-21811D01*
X18943Y-21818D01*
X18887Y-21818D01*
X18838Y-21785D01*
X18753Y-21768D01*
X18753Y-21674D01*
X18733Y-21625D01*
X18695Y-21587D01*
X18646Y-21567D01*
X18593Y-21567D01*
X18353Y-21567D01*
X18304Y-21587D01*
X18266Y-21625D01*
X18246Y-21674D01*
X18246Y-21727D01*
X18246Y-22325D01*
X18266Y-22374D01*
X18268Y-22376D01*
X18268Y-22403D01*
X18166Y-22505D01*
X18165Y-22503D01*
X18058Y-22459D01*
X17942Y-22459D01*
X17835Y-22503D01*
X17753Y-22584D01*
X17720Y-22664D01*
X17720Y-22279D01*
X17720Y-21720D01*
X17720Y-21680D01*
X17705Y-21643D01*
X17676Y-21615D01*
X17639Y-21600D01*
X17585Y-21600D01*
X17560Y-21625D01*
X17560Y-21850D01*
X17695Y-21850D01*
X17720Y-21825D01*
X17720Y-21720D01*
X17720Y-22279D01*
X17720Y-22174D01*
X17695Y-22149D01*
X17560Y-22149D01*
X17560Y-22374D01*
X17585Y-22399D01*
X17639Y-22399D01*
X17676Y-22384D01*
X17705Y-22356D01*
X17720Y-22319D01*
X17720Y-22279D01*
X17720Y-22664D01*
X17709Y-22691D01*
X17709Y-22807D01*
X17753Y-22914D01*
X17834Y-22996D01*
X17941Y-23040D01*
X18057Y-23040D01*
X18164Y-22996D01*
X18179Y-22981D01*
X18250Y-22981D01*
X18272Y-22977D01*
X18268Y-23000D01*
X18268Y-23518D01*
X17726Y-23518D01*
X17733Y-23501D01*
X17733Y-23448D01*
X17733Y-22998D01*
X17713Y-22949D01*
X17675Y-22911D01*
X17626Y-22891D01*
X17573Y-22891D01*
X17439Y-22891D01*
X17439Y-22374D01*
X17439Y-22149D01*
X17439Y-21850D01*
X17439Y-21625D01*
X17414Y-21600D01*
X17360Y-21600D01*
X17323Y-21615D01*
X17294Y-21643D01*
X17279Y-21680D01*
X17279Y-21720D01*
X17279Y-21825D01*
X17304Y-21850D01*
X17439Y-21850D01*
X17439Y-22149D01*
X17304Y-22149D01*
X17279Y-22174D01*
X17279Y-22279D01*
X17279Y-22319D01*
X17294Y-22356D01*
X17323Y-22384D01*
X17360Y-22399D01*
X17414Y-22399D01*
X17439Y-22374D01*
X17439Y-22891D01*
X17373Y-22891D01*
X17324Y-22911D01*
X17286Y-22949D01*
X17266Y-22998D01*
X17266Y-23051D01*
X17266Y-23501D01*
X17273Y-23518D01*
X17226Y-23518D01*
X17233Y-23501D01*
X17233Y-23448D01*
X17233Y-22998D01*
X17213Y-22949D01*
X17175Y-22911D01*
X17126Y-22891D01*
X17073Y-22891D01*
X16873Y-22891D01*
X16824Y-22911D01*
X16786Y-22949D01*
X16766Y-22998D01*
X16766Y-23051D01*
X16766Y-23501D01*
X16773Y-23518D01*
X16726Y-23518D01*
X16733Y-23501D01*
X16733Y-23448D01*
X16733Y-22998D01*
X16713Y-22949D01*
X16675Y-22911D01*
X16626Y-22891D01*
X16573Y-22891D01*
X16373Y-22891D01*
X16324Y-22911D01*
X16286Y-22949D01*
X16266Y-22998D01*
X16266Y-23051D01*
X16266Y-23501D01*
X16273Y-23518D01*
X16253Y-23518D01*
X16253Y-22272D01*
X16253Y-21674D01*
X16233Y-21625D01*
X16195Y-21587D01*
X16146Y-21567D01*
X16093Y-21567D01*
X15853Y-21567D01*
X15804Y-21587D01*
X15766Y-21625D01*
X15746Y-21674D01*
X15746Y-21727D01*
X15746Y-22175D01*
X15666Y-22255D01*
X15665Y-22253D01*
X15558Y-22209D01*
X15442Y-22209D01*
X15335Y-22253D01*
X15253Y-22334D01*
X15209Y-22441D01*
X15209Y-22557D01*
X15253Y-22664D01*
X15334Y-22746D01*
X15441Y-22790D01*
X15557Y-22790D01*
X15664Y-22746D01*
X15679Y-22731D01*
X15750Y-22731D01*
X15838Y-22714D01*
X15838Y-22714D01*
X15913Y-22663D01*
X16145Y-22432D01*
X16146Y-22432D01*
X16195Y-22412D01*
X16233Y-22374D01*
X16253Y-22325D01*
X16253Y-22272D01*
X16253Y-23518D01*
X16226Y-23518D01*
X16233Y-23501D01*
X16233Y-23448D01*
X16233Y-22998D01*
X16213Y-22949D01*
X16175Y-22911D01*
X16126Y-22891D01*
X16073Y-22891D01*
X15873Y-22891D01*
X15824Y-22911D01*
X15786Y-22949D01*
X15766Y-22998D01*
X15766Y-23051D01*
X15766Y-23501D01*
X15773Y-23518D01*
X15726Y-23518D01*
X15733Y-23501D01*
X15733Y-23448D01*
X15733Y-22998D01*
X15713Y-22949D01*
X15675Y-22911D01*
X15626Y-22891D01*
X15573Y-22891D01*
X15373Y-22891D01*
X15324Y-22911D01*
X15286Y-22949D01*
X15266Y-22998D01*
X15266Y-23051D01*
X15266Y-23501D01*
X15273Y-23518D01*
X15226Y-23518D01*
X15233Y-23501D01*
X15233Y-23448D01*
X15233Y-22998D01*
X15213Y-22949D01*
X15175Y-22911D01*
X15126Y-22891D01*
X15073Y-22891D01*
X14873Y-22891D01*
X14824Y-22911D01*
X14786Y-22949D01*
X14766Y-22998D01*
X14766Y-23051D01*
X14766Y-23501D01*
X14773Y-23518D01*
X14731Y-23518D01*
X14731Y-23505D01*
X14733Y-23501D01*
X14733Y-23448D01*
X14733Y-22998D01*
X14729Y-22989D01*
X14714Y-22911D01*
X14663Y-22836D01*
X14663Y-22836D01*
X14413Y-22586D01*
X14186Y-22358D01*
X14201Y-22358D01*
X14451Y-22358D01*
X14500Y-22338D01*
X14538Y-22300D01*
X14558Y-22251D01*
X14558Y-22231D01*
X14746Y-22231D01*
X14746Y-22325D01*
X14766Y-22374D01*
X14804Y-22412D01*
X14853Y-22432D01*
X14906Y-22432D01*
X15146Y-22432D01*
X15195Y-22412D01*
X15233Y-22374D01*
X15253Y-22325D01*
X15253Y-22272D01*
X15253Y-21674D01*
X15233Y-21625D01*
X15195Y-21587D01*
X15146Y-21567D01*
X15093Y-21567D01*
X14853Y-21567D01*
X14804Y-21587D01*
X14766Y-21625D01*
X14746Y-21674D01*
X14746Y-21727D01*
X14746Y-21768D01*
X14558Y-21768D01*
X14558Y-21748D01*
X14538Y-21699D01*
X14500Y-21661D01*
X14451Y-21641D01*
X14398Y-21641D01*
X14148Y-21641D01*
X14099Y-21661D01*
X14061Y-21699D01*
X14041Y-21748D01*
X14041Y-21801D01*
X14041Y-22213D01*
X13981Y-22153D01*
X13981Y-22050D01*
X13964Y-21961D01*
X13964Y-21961D01*
X13958Y-21952D01*
X13958Y-21748D01*
X13938Y-21699D01*
X13900Y-21661D01*
X13851Y-21641D01*
X13798Y-21641D01*
X13548Y-21641D01*
X13499Y-21661D01*
X13461Y-21699D01*
X13441Y-21748D01*
X13441Y-21801D01*
X13441Y-22251D01*
X13461Y-22300D01*
X13499Y-22338D01*
X13548Y-22358D01*
X13548Y-22358D01*
X13548Y-22358D01*
X13586Y-22413D01*
X14086Y-22913D01*
X14266Y-23094D01*
X14266Y-23501D01*
X14268Y-23505D01*
X14268Y-23518D01*
X13500Y-23518D01*
X13290Y-23518D01*
X13290Y-22942D01*
X13290Y-22192D01*
X13246Y-22085D01*
X13165Y-22003D01*
X13058Y-21959D01*
X12942Y-21959D01*
X12835Y-22003D01*
X12820Y-22018D01*
X12808Y-22018D01*
X12808Y-21998D01*
X12788Y-21949D01*
X12775Y-21936D01*
X12775Y-21705D01*
X12775Y-21294D01*
X12775Y-21254D01*
X12760Y-21218D01*
X12731Y-21189D01*
X12694Y-21174D01*
X12637Y-21174D01*
X12612Y-21199D01*
X12612Y-21387D01*
X12750Y-21387D01*
X12775Y-21362D01*
X12775Y-21294D01*
X12775Y-21705D01*
X12775Y-21637D01*
X12750Y-21612D01*
X12612Y-21612D01*
X12612Y-21800D01*
X12637Y-21825D01*
X12694Y-21825D01*
X12731Y-21810D01*
X12760Y-21781D01*
X12775Y-21745D01*
X12775Y-21705D01*
X12775Y-21936D01*
X12750Y-21911D01*
X12701Y-21891D01*
X12648Y-21891D01*
X12487Y-21891D01*
X12487Y-21800D01*
X12487Y-21612D01*
X12487Y-21387D01*
X12487Y-21199D01*
X12462Y-21174D01*
X12405Y-21174D01*
X12368Y-21189D01*
X12339Y-21218D01*
X12324Y-21254D01*
X12324Y-21294D01*
X12324Y-21362D01*
X12349Y-21387D01*
X12487Y-21387D01*
X12487Y-21612D01*
X12349Y-21612D01*
X12324Y-21637D01*
X12324Y-21705D01*
X12324Y-21745D01*
X12339Y-21781D01*
X12368Y-21810D01*
X12405Y-21825D01*
X12462Y-21825D01*
X12487Y-21800D01*
X12487Y-21891D01*
X12398Y-21891D01*
X12349Y-21911D01*
X12311Y-21949D01*
X12291Y-21998D01*
X12291Y-22051D01*
X12291Y-22501D01*
X12311Y-22550D01*
X12349Y-22588D01*
X12398Y-22608D01*
X12451Y-22608D01*
X12701Y-22608D01*
X12750Y-22588D01*
X12788Y-22550D01*
X12808Y-22501D01*
X12808Y-22481D01*
X12820Y-22481D01*
X12834Y-22496D01*
X12941Y-22540D01*
X13057Y-22540D01*
X13164Y-22496D01*
X13246Y-22415D01*
X13290Y-22308D01*
X13290Y-22192D01*
X13290Y-22942D01*
X13246Y-22835D01*
X13165Y-22753D01*
X13058Y-22709D01*
X12942Y-22709D01*
X12835Y-22753D01*
X12820Y-22768D01*
X12808Y-22768D01*
X12808Y-22748D01*
X12788Y-22699D01*
X12750Y-22661D01*
X12701Y-22641D01*
X12648Y-22641D01*
X12398Y-22641D01*
X12349Y-22661D01*
X12311Y-22699D01*
X12291Y-22748D01*
X12291Y-22801D01*
X12291Y-23251D01*
X12311Y-23300D01*
X12349Y-23338D01*
X12398Y-23358D01*
X12451Y-23358D01*
X12701Y-23358D01*
X12750Y-23338D01*
X12788Y-23300D01*
X12808Y-23251D01*
X12808Y-23231D01*
X12820Y-23231D01*
X12834Y-23246D01*
X12941Y-23290D01*
X13057Y-23290D01*
X13164Y-23246D01*
X13246Y-23165D01*
X13290Y-23058D01*
X13290Y-22942D01*
X13290Y-23518D01*
X12208Y-23518D01*
X12208Y-23198D01*
X12208Y-22748D01*
X12208Y-22448D01*
X12208Y-21998D01*
X12208Y-21698D01*
X12208Y-21248D01*
X12188Y-21199D01*
X12150Y-21161D01*
X12101Y-21141D01*
X12048Y-21141D01*
X11798Y-21141D01*
X11749Y-21161D01*
X11711Y-21199D01*
X11691Y-21248D01*
X11691Y-21268D01*
X11558Y-21268D01*
X11558Y-21248D01*
X11538Y-21199D01*
X11500Y-21161D01*
X11451Y-21141D01*
X11398Y-21141D01*
X11148Y-21141D01*
X11099Y-21161D01*
X11061Y-21199D01*
X11041Y-21248D01*
X11041Y-21301D01*
X11041Y-21751D01*
X11061Y-21800D01*
X11099Y-21838D01*
X11148Y-21858D01*
X11201Y-21858D01*
X11451Y-21858D01*
X11500Y-21838D01*
X11538Y-21800D01*
X11558Y-21751D01*
X11558Y-21731D01*
X11691Y-21731D01*
X11691Y-21751D01*
X11711Y-21800D01*
X11749Y-21838D01*
X11798Y-21858D01*
X11851Y-21858D01*
X12101Y-21858D01*
X12150Y-21838D01*
X12188Y-21800D01*
X12208Y-21751D01*
X12208Y-21698D01*
X12208Y-21998D01*
X12188Y-21949D01*
X12150Y-21911D01*
X12101Y-21891D01*
X12048Y-21891D01*
X11798Y-21891D01*
X11749Y-21911D01*
X11711Y-21949D01*
X11691Y-21998D01*
X11691Y-22018D01*
X11558Y-22018D01*
X11558Y-21998D01*
X11538Y-21949D01*
X11500Y-21911D01*
X11451Y-21891D01*
X11398Y-21891D01*
X11148Y-21891D01*
X11099Y-21911D01*
X11061Y-21949D01*
X11041Y-21998D01*
X11041Y-22051D01*
X11041Y-22501D01*
X11061Y-22550D01*
X11099Y-22588D01*
X11148Y-22608D01*
X11201Y-22608D01*
X11451Y-22608D01*
X11500Y-22588D01*
X11538Y-22550D01*
X11558Y-22501D01*
X11558Y-22481D01*
X11691Y-22481D01*
X11691Y-22501D01*
X11711Y-22550D01*
X11749Y-22588D01*
X11798Y-22608D01*
X11851Y-22608D01*
X12101Y-22608D01*
X12150Y-22588D01*
X12188Y-22550D01*
X12208Y-22501D01*
X12208Y-22448D01*
X12208Y-22748D01*
X12188Y-22699D01*
X12150Y-22661D01*
X12101Y-22641D01*
X12048Y-22641D01*
X11798Y-22641D01*
X11749Y-22661D01*
X11711Y-22699D01*
X11691Y-22748D01*
X11691Y-22768D01*
X11558Y-22768D01*
X11558Y-22748D01*
X11538Y-22699D01*
X11500Y-22661D01*
X11451Y-22641D01*
X11398Y-22641D01*
X11148Y-22641D01*
X11099Y-22661D01*
X11061Y-22699D01*
X11041Y-22748D01*
X11041Y-22801D01*
X11041Y-23251D01*
X11061Y-23300D01*
X11099Y-23338D01*
X11148Y-23358D01*
X11201Y-23358D01*
X11451Y-23358D01*
X11500Y-23338D01*
X11538Y-23300D01*
X11558Y-23251D01*
X11558Y-23231D01*
X11691Y-23231D01*
X11691Y-23251D01*
X11711Y-23300D01*
X11749Y-23338D01*
X11798Y-23358D01*
X11851Y-23358D01*
X12101Y-23358D01*
X12150Y-23338D01*
X12188Y-23300D01*
X12208Y-23251D01*
X12208Y-23198D01*
X12208Y-23518D01*
X11096Y-23518D01*
X10931Y-23353D01*
X10931Y-23306D01*
X10938Y-23300D01*
X10958Y-23251D01*
X10958Y-23198D01*
X10958Y-22748D01*
X10938Y-22699D01*
X10931Y-22693D01*
X10931Y-22556D01*
X10938Y-22550D01*
X10958Y-22501D01*
X10958Y-22448D01*
X10958Y-21998D01*
X10938Y-21949D01*
X10931Y-21943D01*
X10931Y-21806D01*
X10938Y-21800D01*
X10958Y-21751D01*
X10958Y-21698D01*
X10958Y-21248D01*
X10938Y-21199D01*
X10900Y-21161D01*
X10851Y-21141D01*
X10798Y-21141D01*
X10548Y-21141D01*
X10499Y-21161D01*
X10461Y-21199D01*
X10441Y-21248D01*
X10441Y-21301D01*
X10441Y-21751D01*
X10461Y-21800D01*
X10468Y-21806D01*
X10468Y-21943D01*
X10461Y-21949D01*
X10441Y-21998D01*
X10441Y-22051D01*
X10441Y-22501D01*
X10461Y-22550D01*
X10468Y-22556D01*
X10468Y-22693D01*
X10461Y-22699D01*
X10441Y-22748D01*
X10441Y-22801D01*
X10441Y-23251D01*
X10461Y-23300D01*
X10468Y-23306D01*
X10468Y-23450D01*
X10485Y-23538D01*
X10536Y-23613D01*
X10836Y-23913D01*
X10836Y-23913D01*
X10911Y-23964D01*
X10999Y-23981D01*
X10999Y-23981D01*
X11000Y-23981D01*
X13500Y-23981D01*
X14500Y-23981D01*
X18500Y-23981D01*
X20250Y-23981D01*
X21002Y-23981D01*
X21002Y-24051D01*
X20598Y-24051D01*
X20548Y-24071D01*
X20511Y-24109D01*
X20491Y-24158D01*
X20491Y-24211D01*
X20491Y-24841D01*
X20511Y-24890D01*
X20548Y-24928D01*
X20597Y-24948D01*
X20650Y-24948D01*
X20919Y-24948D01*
X20919Y-25113D01*
X20766Y-25266D01*
X20766Y-25266D01*
X19975Y-26056D01*
X19975Y-24795D01*
X19975Y-24204D01*
X19975Y-24164D01*
X19960Y-24128D01*
X19932Y-24099D01*
X19895Y-24084D01*
X19546Y-24084D01*
X19521Y-24109D01*
X19521Y-24342D01*
X19950Y-24342D01*
X19975Y-24317D01*
X19975Y-24204D01*
X19975Y-24795D01*
X19975Y-24682D01*
X19950Y-24657D01*
X19521Y-24657D01*
X19521Y-24890D01*
X19546Y-24915D01*
X19895Y-24915D01*
X19932Y-24900D01*
X19960Y-24871D01*
X19975Y-24835D01*
X19975Y-24795D01*
X19975Y-26056D01*
X19345Y-26687D01*
X19176Y-26616D01*
X18825Y-26616D01*
X18812Y-26621D01*
X18812Y-24890D01*
X18812Y-24657D01*
X18812Y-24342D01*
X18812Y-24109D01*
X18787Y-24084D01*
X18438Y-24084D01*
X18401Y-24099D01*
X18373Y-24128D01*
X18358Y-24164D01*
X18358Y-24204D01*
X18358Y-24317D01*
X18383Y-24342D01*
X18812Y-24342D01*
X18812Y-24657D01*
X18383Y-24657D01*
X18358Y-24682D01*
X18358Y-24795D01*
X18358Y-24835D01*
X18373Y-24871D01*
X18401Y-24900D01*
X18438Y-24915D01*
X18787Y-24915D01*
X18812Y-24890D01*
X18812Y-26621D01*
X18500Y-26750D01*
X18251Y-26998D01*
X18116Y-27323D01*
X18116Y-27674D01*
X18250Y-27999D01*
X18498Y-28248D01*
X18823Y-28383D01*
X19174Y-28383D01*
X19499Y-28249D01*
X19748Y-28001D01*
X19883Y-27676D01*
X19883Y-27325D01*
X19813Y-27154D01*
X21233Y-25733D01*
X21233Y-25733D01*
X21233Y-25733D01*
X21483Y-25483D01*
X21483Y-25483D01*
X21483Y-25483D01*
X21555Y-25376D01*
X21555Y-25376D01*
X21580Y-25250D01*
X21580Y-24948D01*
X22067Y-24948D01*
X22117Y-24928D01*
X22154Y-24890D01*
X22174Y-24841D01*
X22174Y-24788D01*
X22174Y-24158D01*
X22154Y-24109D01*
X22117Y-24071D01*
X22068Y-24051D01*
X22015Y-24051D01*
X21663Y-24051D01*
X21663Y-23750D01*
X21663Y-21750D01*
X21663Y-21583D01*
X21638Y-21456D01*
X21638Y-21456D01*
X21566Y-21349D01*
X21250Y-21033D01*
X22629Y-21033D01*
X22629Y-27485D01*
X22629Y-27485D01*
G37*
G54D31*
X22629Y-27485D02*
X22522Y-28025D01*
X22269Y-28406D01*
X22269Y-27298D01*
X22114Y-26923D01*
X21828Y-26636D01*
X21453Y-26480D01*
X21048Y-26480D01*
X20673Y-26635D01*
X20386Y-26921D01*
X20230Y-27296D01*
X20230Y-27701D01*
X20385Y-28076D01*
X20671Y-28363D01*
X21046Y-28519D01*
X21451Y-28519D01*
X21826Y-28364D01*
X22113Y-28078D01*
X22269Y-27703D01*
X22269Y-27298D01*
X22269Y-28406D01*
X22223Y-28475D01*
X21776Y-28773D01*
X21238Y-28879D01*
X17883Y-28879D01*
X17883Y-27325D01*
X17749Y-27000D01*
X17700Y-26951D01*
X17700Y-25555D01*
X17700Y-25144D01*
X17700Y-25104D01*
X17685Y-25068D01*
X17656Y-25039D01*
X17619Y-25024D01*
X17575Y-25024D01*
X17550Y-25049D01*
X17550Y-25237D01*
X17675Y-25237D01*
X17700Y-25212D01*
X17700Y-25144D01*
X17700Y-25555D01*
X17700Y-25487D01*
X17675Y-25462D01*
X17550Y-25462D01*
X17550Y-25650D01*
X17575Y-25675D01*
X17619Y-25675D01*
X17656Y-25660D01*
X17685Y-25631D01*
X17700Y-25595D01*
X17700Y-25555D01*
X17700Y-26951D01*
X17501Y-26751D01*
X17450Y-26730D01*
X17450Y-25650D01*
X17450Y-25462D01*
X17450Y-25237D01*
X17450Y-25049D01*
X17424Y-25024D01*
X17380Y-25024D01*
X17343Y-25039D01*
X17314Y-25068D01*
X17299Y-25104D01*
X17299Y-25144D01*
X17299Y-25212D01*
X17324Y-25237D01*
X17450Y-25237D01*
X17450Y-25462D01*
X17324Y-25462D01*
X17299Y-25487D01*
X17299Y-25555D01*
X17299Y-25595D01*
X17314Y-25631D01*
X17343Y-25660D01*
X17380Y-25675D01*
X17424Y-25675D01*
X17450Y-25650D01*
X17450Y-26730D01*
X17231Y-26639D01*
X17231Y-25605D01*
X17233Y-25601D01*
X17233Y-25548D01*
X17233Y-25098D01*
X17213Y-25049D01*
X17175Y-25011D01*
X17126Y-24991D01*
X17073Y-24991D01*
X16873Y-24991D01*
X16824Y-25011D01*
X16790Y-25045D01*
X16790Y-24692D01*
X16746Y-24585D01*
X16665Y-24503D01*
X16558Y-24459D01*
X16442Y-24459D01*
X16335Y-24503D01*
X16253Y-24584D01*
X16209Y-24691D01*
X16209Y-24807D01*
X16253Y-24914D01*
X16268Y-24929D01*
X16268Y-25094D01*
X16266Y-25098D01*
X16266Y-25151D01*
X16266Y-25601D01*
X16286Y-25650D01*
X16324Y-25688D01*
X16373Y-25708D01*
X16426Y-25708D01*
X16626Y-25708D01*
X16675Y-25688D01*
X16713Y-25650D01*
X16733Y-25601D01*
X16733Y-25548D01*
X16733Y-25098D01*
X16731Y-25094D01*
X16731Y-24929D01*
X16746Y-24915D01*
X16790Y-24808D01*
X16790Y-24692D01*
X16790Y-25045D01*
X16786Y-25049D01*
X16766Y-25098D01*
X16766Y-25151D01*
X16766Y-25601D01*
X16768Y-25605D01*
X16768Y-26639D01*
X16500Y-26750D01*
X16251Y-26998D01*
X16200Y-27121D01*
X16200Y-25555D01*
X16200Y-25144D01*
X16200Y-25104D01*
X16185Y-25068D01*
X16156Y-25039D01*
X16119Y-25024D01*
X16075Y-25024D01*
X16050Y-25049D01*
X16050Y-25237D01*
X16175Y-25237D01*
X16200Y-25212D01*
X16200Y-25144D01*
X16200Y-25555D01*
X16200Y-25487D01*
X16175Y-25462D01*
X16050Y-25462D01*
X16050Y-25650D01*
X16075Y-25675D01*
X16119Y-25675D01*
X16156Y-25660D01*
X16185Y-25631D01*
X16200Y-25595D01*
X16200Y-25555D01*
X16200Y-27121D01*
X16116Y-27323D01*
X16116Y-27674D01*
X16250Y-27999D01*
X16498Y-28248D01*
X16823Y-28383D01*
X17174Y-28383D01*
X17499Y-28249D01*
X17748Y-28001D01*
X17883Y-27676D01*
X17883Y-27325D01*
X17883Y-28879D01*
X15950Y-28879D01*
X15950Y-25650D01*
X15950Y-25462D01*
X15950Y-25237D01*
X15950Y-25049D01*
X15924Y-25024D01*
X15880Y-25024D01*
X15843Y-25039D01*
X15814Y-25068D01*
X15799Y-25104D01*
X15799Y-25144D01*
X15799Y-25212D01*
X15824Y-25237D01*
X15950Y-25237D01*
X15950Y-25462D01*
X15824Y-25462D01*
X15799Y-25487D01*
X15799Y-25555D01*
X15799Y-25595D01*
X15814Y-25631D01*
X15843Y-25660D01*
X15880Y-25675D01*
X15924Y-25675D01*
X15950Y-25650D01*
X15950Y-28879D01*
X15883Y-28879D01*
X15883Y-27325D01*
X15790Y-27100D01*
X15790Y-24692D01*
X15746Y-24585D01*
X15665Y-24503D01*
X15558Y-24459D01*
X15442Y-24459D01*
X15335Y-24503D01*
X15253Y-24584D01*
X15209Y-24691D01*
X15209Y-24807D01*
X15253Y-24914D01*
X15268Y-24929D01*
X15268Y-25094D01*
X15266Y-25098D01*
X15266Y-25151D01*
X15266Y-25601D01*
X15286Y-25650D01*
X15324Y-25688D01*
X15373Y-25708D01*
X15426Y-25708D01*
X15626Y-25708D01*
X15675Y-25688D01*
X15713Y-25650D01*
X15733Y-25601D01*
X15733Y-25548D01*
X15733Y-25098D01*
X15731Y-25094D01*
X15731Y-24929D01*
X15746Y-24915D01*
X15790Y-24808D01*
X15790Y-24692D01*
X15790Y-27100D01*
X15749Y-27000D01*
X15501Y-26751D01*
X15231Y-26639D01*
X15231Y-25605D01*
X15233Y-25601D01*
X15233Y-25548D01*
X15233Y-25098D01*
X15213Y-25049D01*
X15175Y-25011D01*
X15126Y-24991D01*
X15073Y-24991D01*
X14873Y-24991D01*
X14824Y-25011D01*
X14786Y-25049D01*
X14766Y-25098D01*
X14766Y-25151D01*
X14766Y-25601D01*
X14768Y-25605D01*
X14768Y-26639D01*
X14700Y-26667D01*
X14700Y-25555D01*
X14700Y-25144D01*
X14700Y-25104D01*
X14685Y-25068D01*
X14656Y-25039D01*
X14619Y-25024D01*
X14575Y-25024D01*
X14550Y-25049D01*
X14550Y-25237D01*
X14675Y-25237D01*
X14700Y-25212D01*
X14700Y-25144D01*
X14700Y-25555D01*
X14700Y-25487D01*
X14675Y-25462D01*
X14550Y-25462D01*
X14550Y-25650D01*
X14575Y-25675D01*
X14619Y-25675D01*
X14656Y-25660D01*
X14685Y-25631D01*
X14700Y-25595D01*
X14700Y-25555D01*
X14700Y-26667D01*
X14500Y-26750D01*
X14450Y-26800D01*
X14450Y-25650D01*
X14450Y-25462D01*
X14450Y-25237D01*
X14450Y-25049D01*
X14424Y-25024D01*
X14380Y-25024D01*
X14343Y-25039D01*
X14314Y-25068D01*
X14299Y-25104D01*
X14299Y-25144D01*
X14299Y-25212D01*
X14324Y-25237D01*
X14450Y-25237D01*
X14450Y-25462D01*
X14324Y-25462D01*
X14299Y-25487D01*
X14299Y-25555D01*
X14299Y-25595D01*
X14314Y-25631D01*
X14343Y-25660D01*
X14380Y-25675D01*
X14424Y-25675D01*
X14450Y-25650D01*
X14450Y-26800D01*
X14251Y-26998D01*
X14116Y-27323D01*
X14116Y-27674D01*
X14250Y-27999D01*
X14498Y-28248D01*
X14823Y-28383D01*
X15174Y-28383D01*
X15499Y-28249D01*
X15748Y-28001D01*
X15883Y-27676D01*
X15883Y-27325D01*
X15883Y-28879D01*
X13850Y-28879D01*
X13850Y-28230D01*
X13850Y-26769D01*
X13850Y-26729D01*
X13835Y-26693D01*
X13806Y-26664D01*
X13769Y-26649D01*
X13385Y-26649D01*
X13360Y-26674D01*
X13360Y-27139D01*
X13825Y-27139D01*
X13850Y-27114D01*
X13850Y-26769D01*
X13850Y-28230D01*
X13850Y-27885D01*
X13825Y-27860D01*
X13360Y-27860D01*
X13360Y-28325D01*
X13385Y-28350D01*
X13769Y-28350D01*
X13806Y-28335D01*
X13835Y-28306D01*
X13850Y-28270D01*
X13850Y-28230D01*
X13850Y-28879D01*
X12639Y-28879D01*
X12639Y-28325D01*
X12639Y-27860D01*
X12639Y-27139D01*
X12639Y-26674D01*
X12614Y-26649D01*
X12230Y-26649D01*
X12193Y-26664D01*
X12164Y-26693D01*
X12149Y-26729D01*
X12149Y-26769D01*
X12149Y-27114D01*
X12174Y-27139D01*
X12639Y-27139D01*
X12639Y-27860D01*
X12174Y-27860D01*
X12149Y-27885D01*
X12149Y-28230D01*
X12149Y-28270D01*
X12164Y-28306D01*
X12193Y-28335D01*
X12230Y-28350D01*
X12614Y-28350D01*
X12639Y-28325D01*
X12639Y-28879D01*
X11769Y-28879D01*
X11769Y-27298D01*
X11614Y-26923D01*
X11328Y-26636D01*
X10953Y-26480D01*
X10548Y-26480D01*
X10173Y-26635D01*
X9886Y-26921D01*
X9730Y-27296D01*
X9730Y-27701D01*
X9885Y-28076D01*
X10171Y-28363D01*
X10546Y-28519D01*
X10951Y-28519D01*
X11326Y-28364D01*
X11613Y-28078D01*
X11769Y-27703D01*
X11769Y-27298D01*
X11769Y-28879D01*
X10764Y-28879D01*
X10224Y-28772D01*
X9774Y-28473D01*
X9476Y-28026D01*
X9370Y-27488D01*
X9370Y-21033D01*
X19922Y-21033D01*
X19911Y-21035D01*
X19836Y-21086D01*
X19703Y-21218D01*
X19556Y-21218D01*
X19550Y-21211D01*
X19501Y-21191D01*
X19448Y-21191D01*
X18998Y-21191D01*
X18949Y-21211D01*
X18911Y-21249D01*
X18891Y-21298D01*
X18891Y-21351D01*
X18891Y-21601D01*
X18911Y-21650D01*
X18949Y-21688D01*
X18998Y-21708D01*
X19051Y-21708D01*
X19501Y-21708D01*
X19550Y-21688D01*
X19556Y-21681D01*
X19800Y-21681D01*
X19888Y-21664D01*
X19888Y-21664D01*
X19963Y-21613D01*
X20046Y-21531D01*
X20052Y-21548D01*
X20200Y-21696D01*
X20343Y-21755D01*
X20278Y-21755D01*
X20126Y-21755D01*
X20086Y-21755D01*
X20049Y-21771D01*
X20021Y-21799D01*
X20005Y-21836D01*
X20005Y-22028D01*
X20031Y-22053D01*
X20303Y-22053D01*
X20303Y-21881D01*
X20696Y-21881D01*
X20696Y-22053D01*
X20968Y-22053D01*
X20994Y-22028D01*
X20994Y-21836D01*
X20978Y-21799D01*
X20950Y-21771D01*
X20913Y-21755D01*
X20873Y-21755D01*
X20721Y-21755D01*
X20656Y-21755D01*
X20798Y-21697D01*
X20889Y-21606D01*
X21002Y-21719D01*
X21002Y-21750D01*
X21002Y-23518D01*
X20994Y-23518D01*
X20994Y-22663D01*
X20994Y-22471D01*
X20968Y-22446D01*
X20696Y-22446D01*
X20696Y-22718D01*
X20721Y-22744D01*
X20873Y-22744D01*
X20913Y-22744D01*
X20950Y-22728D01*
X20978Y-22700D01*
X20994Y-22663D01*
X20994Y-23518D01*
X20303Y-23518D01*
X20303Y-22718D01*
X20303Y-22446D01*
X20031Y-22446D01*
X20005Y-22471D01*
X20005Y-22663D01*
X20021Y-22700D01*
X20049Y-22728D01*
X20086Y-22744D01*
X20126Y-22744D01*
X20278Y-22744D01*
X20303Y-22718D01*
X20303Y-23518D01*
X20250Y-23518D01*
X19775Y-23518D01*
X19775Y-22955D01*
X19775Y-22544D01*
X19775Y-22504D01*
X19760Y-22468D01*
X19731Y-22439D01*
X19694Y-22424D01*
X19637Y-22424D01*
X19612Y-22449D01*
X19612Y-22637D01*
X19750Y-22637D01*
X19775Y-22612D01*
X19775Y-22544D01*
X19775Y-22955D01*
X19775Y-22887D01*
X19750Y-22862D01*
X19612Y-22862D01*
X19612Y-23050D01*
X19637Y-23075D01*
X19694Y-23075D01*
X19731Y-23060D01*
X19760Y-23031D01*
X19775Y-22995D01*
X19775Y-22955D01*
X19775Y-23518D01*
X19487Y-23518D01*
X19487Y-23050D01*
X19487Y-22862D01*
X19487Y-22637D01*
X19487Y-22449D01*
X19462Y-22424D01*
X19405Y-22424D01*
X19368Y-22439D01*
X19339Y-22468D01*
X19324Y-22504D01*
X19324Y-22544D01*
X19324Y-22612D01*
X19349Y-22637D01*
X19487Y-22637D01*
X19487Y-22862D01*
X19349Y-22862D01*
X19324Y-22887D01*
X19324Y-22955D01*
X19324Y-22995D01*
X19339Y-23031D01*
X19368Y-23060D01*
X19405Y-23075D01*
X19462Y-23075D01*
X19487Y-23050D01*
X19487Y-23518D01*
X18731Y-23518D01*
X18731Y-23096D01*
X18744Y-23083D01*
X18749Y-23088D01*
X18798Y-23108D01*
X18851Y-23108D01*
X19101Y-23108D01*
X19150Y-23088D01*
X19188Y-23050D01*
X19208Y-23001D01*
X19208Y-22948D01*
X19208Y-22498D01*
X19188Y-22449D01*
X19150Y-22411D01*
X19101Y-22391D01*
X19048Y-22391D01*
X18798Y-22391D01*
X18749Y-22411D01*
X18731Y-22429D01*
X18731Y-22376D01*
X18733Y-22374D01*
X18753Y-22325D01*
X18753Y-22272D01*
X18753Y-22272D01*
X18800Y-22281D01*
X18943Y-22281D01*
X18949Y-22288D01*
X18998Y-22308D01*
X19051Y-22308D01*
X19501Y-22308D01*
X19550Y-22288D01*
X19588Y-22250D01*
X19608Y-22201D01*
X19608Y-22148D01*
X19608Y-21898D01*
X19588Y-21849D01*
X19550Y-21811D01*
X19501Y-21791D01*
X19448Y-21791D01*
X18998Y-21791D01*
X18949Y-21811D01*
X18943Y-21818D01*
X18887Y-21818D01*
X18838Y-21785D01*
X18753Y-21768D01*
X18753Y-21674D01*
X18733Y-21625D01*
X18695Y-21587D01*
X18646Y-21567D01*
X18593Y-21567D01*
X18353Y-21567D01*
X18304Y-21587D01*
X18266Y-21625D01*
X18246Y-21674D01*
X18246Y-21727D01*
X18246Y-22325D01*
X18266Y-22374D01*
X18268Y-22376D01*
X18268Y-22403D01*
X18166Y-22505D01*
X18165Y-22503D01*
X18058Y-22459D01*
X17942Y-22459D01*
X17835Y-22503D01*
X17753Y-22584D01*
X17720Y-22664D01*
X17720Y-22279D01*
X17720Y-21720D01*
X17720Y-21680D01*
X17705Y-21643D01*
X17676Y-21615D01*
X17639Y-21600D01*
X17585Y-21600D01*
X17560Y-21625D01*
X17560Y-21850D01*
X17695Y-21850D01*
X17720Y-21825D01*
X17720Y-21720D01*
X17720Y-22279D01*
X17720Y-22174D01*
X17695Y-22149D01*
X17560Y-22149D01*
X17560Y-22374D01*
X17585Y-22399D01*
X17639Y-22399D01*
X17676Y-22384D01*
X17705Y-22356D01*
X17720Y-22319D01*
X17720Y-22279D01*
X17720Y-22664D01*
X17709Y-22691D01*
X17709Y-22807D01*
X17753Y-22914D01*
X17834Y-22996D01*
X17941Y-23040D01*
X18057Y-23040D01*
X18164Y-22996D01*
X18179Y-22981D01*
X18250Y-22981D01*
X18272Y-22977D01*
X18268Y-23000D01*
X18268Y-23518D01*
X17726Y-23518D01*
X17733Y-23501D01*
X17733Y-23448D01*
X17733Y-22998D01*
X17713Y-22949D01*
X17675Y-22911D01*
X17626Y-22891D01*
X17573Y-22891D01*
X17439Y-22891D01*
X17439Y-22374D01*
X17439Y-22149D01*
X17439Y-21850D01*
X17439Y-21625D01*
X17414Y-21600D01*
X17360Y-21600D01*
X17323Y-21615D01*
X17294Y-21643D01*
X17279Y-21680D01*
X17279Y-21720D01*
X17279Y-21825D01*
X17304Y-21850D01*
X17439Y-21850D01*
X17439Y-22149D01*
X17304Y-22149D01*
X17279Y-22174D01*
X17279Y-22279D01*
X17279Y-22319D01*
X17294Y-22356D01*
X17323Y-22384D01*
X17360Y-22399D01*
X17414Y-22399D01*
X17439Y-22374D01*
X17439Y-22891D01*
X17373Y-22891D01*
X17324Y-22911D01*
X17286Y-22949D01*
X17266Y-22998D01*
X17266Y-23051D01*
X17266Y-23501D01*
X17273Y-23518D01*
X17226Y-23518D01*
X17233Y-23501D01*
X17233Y-23448D01*
X17233Y-22998D01*
X17213Y-22949D01*
X17175Y-22911D01*
X17126Y-22891D01*
X17073Y-22891D01*
X16873Y-22891D01*
X16824Y-22911D01*
X16786Y-22949D01*
X16766Y-22998D01*
X16766Y-23051D01*
X16766Y-23501D01*
X16773Y-23518D01*
X16726Y-23518D01*
X16733Y-23501D01*
X16733Y-23448D01*
X16733Y-22998D01*
X16713Y-22949D01*
X16675Y-22911D01*
X16626Y-22891D01*
X16573Y-22891D01*
X16373Y-22891D01*
X16324Y-22911D01*
X16286Y-22949D01*
X16266Y-22998D01*
X16266Y-23051D01*
X16266Y-23501D01*
X16273Y-23518D01*
X16253Y-23518D01*
X16253Y-22272D01*
X16253Y-21674D01*
X16233Y-21625D01*
X16195Y-21587D01*
X16146Y-21567D01*
X16093Y-21567D01*
X15853Y-21567D01*
X15804Y-21587D01*
X15766Y-21625D01*
X15746Y-21674D01*
X15746Y-21727D01*
X15746Y-22175D01*
X15666Y-22255D01*
X15665Y-22253D01*
X15558Y-22209D01*
X15442Y-22209D01*
X15335Y-22253D01*
X15253Y-22334D01*
X15209Y-22441D01*
X15209Y-22557D01*
X15253Y-22664D01*
X15334Y-22746D01*
X15441Y-22790D01*
X15557Y-22790D01*
X15664Y-22746D01*
X15679Y-22731D01*
X15750Y-22731D01*
X15838Y-22714D01*
X15838Y-22714D01*
X15913Y-22663D01*
X16145Y-22432D01*
X16146Y-22432D01*
X16195Y-22412D01*
X16233Y-22374D01*
X16253Y-22325D01*
X16253Y-22272D01*
X16253Y-23518D01*
X16226Y-23518D01*
X16233Y-23501D01*
X16233Y-23448D01*
X16233Y-22998D01*
X16213Y-22949D01*
X16175Y-22911D01*
X16126Y-22891D01*
X16073Y-22891D01*
X15873Y-22891D01*
X15824Y-22911D01*
X15786Y-22949D01*
X15766Y-22998D01*
X15766Y-23051D01*
X15766Y-23501D01*
X15773Y-23518D01*
X15726Y-23518D01*
X15733Y-23501D01*
X15733Y-23448D01*
X15733Y-22998D01*
X15713Y-22949D01*
X15675Y-22911D01*
X15626Y-22891D01*
X15573Y-22891D01*
X15373Y-22891D01*
X15324Y-22911D01*
X15286Y-22949D01*
X15266Y-22998D01*
X15266Y-23051D01*
X15266Y-23501D01*
X15273Y-23518D01*
X15226Y-23518D01*
X15233Y-23501D01*
X15233Y-23448D01*
X15233Y-22998D01*
X15213Y-22949D01*
X15175Y-22911D01*
X15126Y-22891D01*
X15073Y-22891D01*
X14873Y-22891D01*
X14824Y-22911D01*
X14786Y-22949D01*
X14766Y-22998D01*
X14766Y-23051D01*
X14766Y-23501D01*
X14773Y-23518D01*
X14731Y-23518D01*
X14731Y-23505D01*
X14733Y-23501D01*
X14733Y-23448D01*
X14733Y-22998D01*
X14729Y-22989D01*
X14714Y-22911D01*
X14663Y-22836D01*
X14663Y-22836D01*
X14413Y-22586D01*
X14186Y-22358D01*
X14201Y-22358D01*
X14451Y-22358D01*
X14500Y-22338D01*
X14538Y-22300D01*
X14558Y-22251D01*
X14558Y-22231D01*
X14746Y-22231D01*
X14746Y-22325D01*
X14766Y-22374D01*
X14804Y-22412D01*
X14853Y-22432D01*
X14906Y-22432D01*
X15146Y-22432D01*
X15195Y-22412D01*
X15233Y-22374D01*
X15253Y-22325D01*
X15253Y-22272D01*
X15253Y-21674D01*
X15233Y-21625D01*
X15195Y-21587D01*
X15146Y-21567D01*
X15093Y-21567D01*
X14853Y-21567D01*
X14804Y-21587D01*
X14766Y-21625D01*
X14746Y-21674D01*
X14746Y-21727D01*
X14746Y-21768D01*
X14558Y-21768D01*
X14558Y-21748D01*
X14538Y-21699D01*
X14500Y-21661D01*
X14451Y-21641D01*
X14398Y-21641D01*
X14148Y-21641D01*
X14099Y-21661D01*
X14061Y-21699D01*
X14041Y-21748D01*
X14041Y-21801D01*
X14041Y-22213D01*
X13981Y-22153D01*
X13981Y-22050D01*
X13964Y-21961D01*
X13964Y-21961D01*
X13958Y-21952D01*
X13958Y-21748D01*
X13938Y-21699D01*
X13900Y-21661D01*
X13851Y-21641D01*
X13798Y-21641D01*
X13548Y-21641D01*
X13499Y-21661D01*
X13461Y-21699D01*
X13441Y-21748D01*
X13441Y-21801D01*
X13441Y-22251D01*
X13461Y-22300D01*
X13499Y-22338D01*
X13548Y-22358D01*
X13548Y-22358D01*
X13548Y-22358D01*
X13586Y-22413D01*
X14086Y-22913D01*
X14266Y-23094D01*
X14266Y-23501D01*
X14268Y-23505D01*
X14268Y-23518D01*
X13500Y-23518D01*
X13290Y-23518D01*
X13290Y-22942D01*
X13290Y-22192D01*
X13246Y-22085D01*
X13165Y-22003D01*
X13058Y-21959D01*
X12942Y-21959D01*
X12835Y-22003D01*
X12820Y-22018D01*
X12808Y-22018D01*
X12808Y-21998D01*
X12788Y-21949D01*
X12775Y-21936D01*
X12775Y-21705D01*
X12775Y-21294D01*
X12775Y-21254D01*
X12760Y-21218D01*
X12731Y-21189D01*
X12694Y-21174D01*
X12637Y-21174D01*
X12612Y-21199D01*
X12612Y-21387D01*
X12750Y-21387D01*
X12775Y-21362D01*
X12775Y-21294D01*
X12775Y-21705D01*
X12775Y-21637D01*
X12750Y-21612D01*
X12612Y-21612D01*
X12612Y-21800D01*
X12637Y-21825D01*
X12694Y-21825D01*
X12731Y-21810D01*
X12760Y-21781D01*
X12775Y-21745D01*
X12775Y-21705D01*
X12775Y-21936D01*
X12750Y-21911D01*
X12701Y-21891D01*
X12648Y-21891D01*
X12487Y-21891D01*
X12487Y-21800D01*
X12487Y-21612D01*
X12487Y-21387D01*
X12487Y-21199D01*
X12462Y-21174D01*
X12405Y-21174D01*
X12368Y-21189D01*
X12339Y-21218D01*
X12324Y-21254D01*
X12324Y-21294D01*
X12324Y-21362D01*
X12349Y-21387D01*
X12487Y-21387D01*
X12487Y-21612D01*
X12349Y-21612D01*
X12324Y-21637D01*
X12324Y-21705D01*
X12324Y-21745D01*
X12339Y-21781D01*
X12368Y-21810D01*
X12405Y-21825D01*
X12462Y-21825D01*
X12487Y-21800D01*
X12487Y-21891D01*
X12398Y-21891D01*
X12349Y-21911D01*
X12311Y-21949D01*
X12291Y-21998D01*
X12291Y-22051D01*
X12291Y-22501D01*
X12311Y-22550D01*
X12349Y-22588D01*
X12398Y-22608D01*
X12451Y-22608D01*
X12701Y-22608D01*
X12750Y-22588D01*
X12788Y-22550D01*
X12808Y-22501D01*
X12808Y-22481D01*
X12820Y-22481D01*
X12834Y-22496D01*
X12941Y-22540D01*
X13057Y-22540D01*
X13164Y-22496D01*
X13246Y-22415D01*
X13290Y-22308D01*
X13290Y-22192D01*
X13290Y-22942D01*
X13246Y-22835D01*
X13165Y-22753D01*
X13058Y-22709D01*
X12942Y-22709D01*
X12835Y-22753D01*
X12820Y-22768D01*
X12808Y-22768D01*
X12808Y-22748D01*
X12788Y-22699D01*
X12750Y-22661D01*
X12701Y-22641D01*
X12648Y-22641D01*
X12398Y-22641D01*
X12349Y-22661D01*
X12311Y-22699D01*
X12291Y-22748D01*
X12291Y-22801D01*
X12291Y-23251D01*
X12311Y-23300D01*
X12349Y-23338D01*
X12398Y-23358D01*
X12451Y-23358D01*
X12701Y-23358D01*
X12750Y-23338D01*
X12788Y-23300D01*
X12808Y-23251D01*
X12808Y-23231D01*
X12820Y-23231D01*
X12834Y-23246D01*
X12941Y-23290D01*
X13057Y-23290D01*
X13164Y-23246D01*
X13246Y-23165D01*
X13290Y-23058D01*
X13290Y-22942D01*
X13290Y-23518D01*
X12208Y-23518D01*
X12208Y-23198D01*
X12208Y-22748D01*
X12208Y-22448D01*
X12208Y-21998D01*
X12208Y-21698D01*
X12208Y-21248D01*
X12188Y-21199D01*
X12150Y-21161D01*
X12101Y-21141D01*
X12048Y-21141D01*
X11798Y-21141D01*
X11749Y-21161D01*
X11711Y-21199D01*
X11691Y-21248D01*
X11691Y-21268D01*
X11558Y-21268D01*
X11558Y-21248D01*
X11538Y-21199D01*
X11500Y-21161D01*
X11451Y-21141D01*
X11398Y-21141D01*
X11148Y-21141D01*
X11099Y-21161D01*
X11061Y-21199D01*
X11041Y-21248D01*
X11041Y-21301D01*
X11041Y-21751D01*
X11061Y-21800D01*
X11099Y-21838D01*
X11148Y-21858D01*
X11201Y-21858D01*
X11451Y-21858D01*
X11500Y-21838D01*
X11538Y-21800D01*
X11558Y-21751D01*
X11558Y-21731D01*
X11691Y-21731D01*
X11691Y-21751D01*
X11711Y-21800D01*
X11749Y-21838D01*
X11798Y-21858D01*
X11851Y-21858D01*
X12101Y-21858D01*
X12150Y-21838D01*
X12188Y-21800D01*
X12208Y-21751D01*
X12208Y-21698D01*
X12208Y-21998D01*
X12188Y-21949D01*
X12150Y-21911D01*
X12101Y-21891D01*
X12048Y-21891D01*
X11798Y-21891D01*
X11749Y-21911D01*
X11711Y-21949D01*
X11691Y-21998D01*
X11691Y-22018D01*
X11558Y-22018D01*
X11558Y-21998D01*
X11538Y-21949D01*
X11500Y-21911D01*
X11451Y-21891D01*
X11398Y-21891D01*
X11148Y-21891D01*
X11099Y-21911D01*
X11061Y-21949D01*
X11041Y-21998D01*
X11041Y-22051D01*
X11041Y-22501D01*
X11061Y-22550D01*
X11099Y-22588D01*
X11148Y-22608D01*
X11201Y-22608D01*
X11451Y-22608D01*
X11500Y-22588D01*
X11538Y-22550D01*
X11558Y-22501D01*
X11558Y-22481D01*
X11691Y-22481D01*
X11691Y-22501D01*
X11711Y-22550D01*
X11749Y-22588D01*
X11798Y-22608D01*
X11851Y-22608D01*
X12101Y-22608D01*
X12150Y-22588D01*
X12188Y-22550D01*
X12208Y-22501D01*
X12208Y-22448D01*
X12208Y-22748D01*
X12188Y-22699D01*
X12150Y-22661D01*
X12101Y-22641D01*
X12048Y-22641D01*
X11798Y-22641D01*
X11749Y-22661D01*
X11711Y-22699D01*
X11691Y-22748D01*
X11691Y-22768D01*
X11558Y-22768D01*
X11558Y-22748D01*
X11538Y-22699D01*
X11500Y-22661D01*
X11451Y-22641D01*
X11398Y-22641D01*
X11148Y-22641D01*
X11099Y-22661D01*
X11061Y-22699D01*
X11041Y-22748D01*
X11041Y-22801D01*
X11041Y-23251D01*
X11061Y-23300D01*
X11099Y-23338D01*
X11148Y-23358D01*
X11201Y-23358D01*
X11451Y-23358D01*
X11500Y-23338D01*
X11538Y-23300D01*
X11558Y-23251D01*
X11558Y-23231D01*
X11691Y-23231D01*
X11691Y-23251D01*
X11711Y-23300D01*
X11749Y-23338D01*
X11798Y-23358D01*
X11851Y-23358D01*
X12101Y-23358D01*
X12150Y-23338D01*
X12188Y-23300D01*
X12208Y-23251D01*
X12208Y-23198D01*
X12208Y-23518D01*
X11096Y-23518D01*
X10931Y-23353D01*
X10931Y-23306D01*
X10938Y-23300D01*
X10958Y-23251D01*
X10958Y-23198D01*
X10958Y-22748D01*
X10938Y-22699D01*
X10931Y-22693D01*
X10931Y-22556D01*
X10938Y-22550D01*
X10958Y-22501D01*
X10958Y-22448D01*
X10958Y-21998D01*
X10938Y-21949D01*
X10931Y-21943D01*
X10931Y-21806D01*
X10938Y-21800D01*
X10958Y-21751D01*
X10958Y-21698D01*
X10958Y-21248D01*
X10938Y-21199D01*
X10900Y-21161D01*
X10851Y-21141D01*
X10798Y-21141D01*
X10548Y-21141D01*
X10499Y-21161D01*
X10461Y-21199D01*
X10441Y-21248D01*
X10441Y-21301D01*
X10441Y-21751D01*
X10461Y-21800D01*
X10468Y-21806D01*
X10468Y-21943D01*
X10461Y-21949D01*
X10441Y-21998D01*
X10441Y-22051D01*
X10441Y-22501D01*
X10461Y-22550D01*
X10468Y-22556D01*
X10468Y-22693D01*
X10461Y-22699D01*
X10441Y-22748D01*
X10441Y-22801D01*
X10441Y-23251D01*
X10461Y-23300D01*
X10468Y-23306D01*
X10468Y-23450D01*
X10485Y-23538D01*
X10536Y-23613D01*
X10836Y-23913D01*
X10836Y-23913D01*
X10911Y-23964D01*
X10999Y-23981D01*
X10999Y-23981D01*
X11000Y-23981D01*
X13500Y-23981D01*
X14500Y-23981D01*
X18500Y-23981D01*
X20250Y-23981D01*
X21002Y-23981D01*
X21002Y-24051D01*
X20598Y-24051D01*
X20548Y-24071D01*
X20511Y-24109D01*
X20491Y-24158D01*
X20491Y-24211D01*
X20491Y-24841D01*
X20511Y-24890D01*
X20548Y-24928D01*
X20597Y-24948D01*
X20650Y-24948D01*
X20919Y-24948D01*
X20919Y-25113D01*
X20766Y-25266D01*
X20766Y-25266D01*
X19975Y-26056D01*
X19975Y-24795D01*
X19975Y-24204D01*
X19975Y-24164D01*
X19960Y-24128D01*
X19932Y-24099D01*
X19895Y-24084D01*
X19546Y-24084D01*
X19521Y-24109D01*
X19521Y-24342D01*
X19950Y-24342D01*
X19975Y-24317D01*
X19975Y-24204D01*
X19975Y-24795D01*
X19975Y-24682D01*
X19950Y-24657D01*
X19521Y-24657D01*
X19521Y-24890D01*
X19546Y-24915D01*
X19895Y-24915D01*
X19932Y-24900D01*
X19960Y-24871D01*
X19975Y-24835D01*
X19975Y-24795D01*
X19975Y-26056D01*
X19345Y-26687D01*
X19176Y-26616D01*
X18825Y-26616D01*
X18812Y-26621D01*
X18812Y-24890D01*
X18812Y-24657D01*
X18812Y-24342D01*
X18812Y-24109D01*
X18787Y-24084D01*
X18438Y-24084D01*
X18401Y-24099D01*
X18373Y-24128D01*
X18358Y-24164D01*
X18358Y-24204D01*
X18358Y-24317D01*
X18383Y-24342D01*
X18812Y-24342D01*
X18812Y-24657D01*
X18383Y-24657D01*
X18358Y-24682D01*
X18358Y-24795D01*
X18358Y-24835D01*
X18373Y-24871D01*
X18401Y-24900D01*
X18438Y-24915D01*
X18787Y-24915D01*
X18812Y-24890D01*
X18812Y-26621D01*
X18500Y-26750D01*
X18251Y-26998D01*
X18116Y-27323D01*
X18116Y-27674D01*
X18250Y-27999D01*
X18498Y-28248D01*
X18823Y-28383D01*
X19174Y-28383D01*
X19499Y-28249D01*
X19748Y-28001D01*
X19883Y-27676D01*
X19883Y-27325D01*
X19813Y-27154D01*
X21233Y-25733D01*
X21233Y-25733D01*
X21233Y-25733D01*
X21483Y-25483D01*
X21483Y-25483D01*
X21483Y-25483D01*
X21555Y-25376D01*
X21555Y-25376D01*
X21580Y-25250D01*
X21580Y-24948D01*
X22067Y-24948D01*
X22117Y-24928D01*
X22154Y-24890D01*
X22174Y-24841D01*
X22174Y-24788D01*
X22174Y-24158D01*
X22154Y-24109D01*
X22117Y-24071D01*
X22068Y-24051D01*
X22015Y-24051D01*
X21663Y-24051D01*
X21663Y-23750D01*
X21663Y-21750D01*
X21663Y-21583D01*
X21638Y-21456D01*
X21638Y-21456D01*
X21566Y-21349D01*
X21250Y-21033D01*
X22629Y-21033D01*
X22629Y-27485D01*
M02*
