M48
;DRILL file {Pcbnew (2013-may-18)-stable} date Wed 27 May 2015 10:24:42 AM CEST
;FORMAT={3:3/ absolute / metric / suppress leading zeros}
FMAT,2
METRIC,TZ
T1C0.250
T2C0.813
T3C1.016
T4C1.524
T5C3.200
%
G90
G05
M71
T1
X27940Y-38100
X33020Y-56515
X33020Y-58420
X38100Y-40005
X39370Y-38100
X39370Y-57150
X39370Y-62865
X40640Y-40005
X41910Y-38100
X41910Y-62865
X45720Y-57785
T2
X52070Y-48895
X52070Y-51435
X52070Y-53975
X52070Y-56515
T3
X27940Y-44450
X30480Y-44450
T4
X33020Y-69850
X35560Y-33020
X38100Y-69850
X40640Y-33020
X43180Y-69850
X45720Y-33020
X48260Y-69850
T5
X27305Y-33020
X27305Y-69850
X53975Y-33020
X53975Y-69850
T0
M30
