G04 (created by PCBNEW (2013-may-18)-stable) date Wed 27 May 2015 10:34:55 AM CEST*
%MOIN*%
G04 Gerber Fmt 3.4, Leading zero omitted, Abs format*
%FSLAX34Y34*%
G01*
G70*
G90*
G04 APERTURE LIST*
%ADD10C,0.00590551*%
%ADD11R,0.0236X0.0551*%
%ADD12R,0.025X0.045*%
%ADD13R,0.045X0.025*%
%ADD14R,0.06X0.06*%
%ADD15C,0.06*%
%ADD16R,0.1417X0.063*%
%ADD17C,0.15*%
%ADD18R,0.15X0.15*%
%ADD19R,0.1X0.1*%
%ADD20C,0.1*%
%ADD21C,0.177165*%
%ADD22R,0.0787402X0.0787402*%
%ADD23C,0.0787402*%
%ADD24R,0.063X0.1417*%
%ADD25R,0.02X0.045*%
%ADD26R,0.0394X0.0236*%
%ADD27R,0.0240157X0.0598425*%
G04 APERTURE END LIST*
G54D10*
G54D11*
X15000Y-16450D03*
X15000Y-18550D03*
X15500Y-16450D03*
X16000Y-16450D03*
X16500Y-16450D03*
X15500Y-18550D03*
X16000Y-18550D03*
X16500Y-18550D03*
G54D12*
X14300Y-17250D03*
X13700Y-17250D03*
X10700Y-22250D03*
X11300Y-22250D03*
X11950Y-23000D03*
X12550Y-23000D03*
X11950Y-22250D03*
X12550Y-22250D03*
G54D13*
X11000Y-16550D03*
X11000Y-15950D03*
G54D12*
X18950Y-22750D03*
X19550Y-22750D03*
X10700Y-21500D03*
X11300Y-21500D03*
X11950Y-21500D03*
X12550Y-21500D03*
G54D14*
X12000Y-17500D03*
G54D15*
X11000Y-17500D03*
G54D16*
X21333Y-24500D03*
X19167Y-24500D03*
G54D17*
X15000Y-27500D03*
X17000Y-27500D03*
G54D18*
X13000Y-27500D03*
G54D17*
X19000Y-27500D03*
G54D19*
X18000Y-13000D03*
G54D20*
X16000Y-13000D03*
X14000Y-13000D03*
G54D12*
X10700Y-23000D03*
X11300Y-23000D03*
G54D21*
X21250Y-27500D03*
X10750Y-27500D03*
X21250Y-13000D03*
X10750Y-13000D03*
G54D13*
X18500Y-17950D03*
X18500Y-18550D03*
G54D12*
X13700Y-19500D03*
X14300Y-19500D03*
G54D13*
X19250Y-21450D03*
X19250Y-22050D03*
G54D12*
X13700Y-22000D03*
X14300Y-22000D03*
X21450Y-18250D03*
X22050Y-18250D03*
X12550Y-19500D03*
X11950Y-19500D03*
X11300Y-19500D03*
X10700Y-19500D03*
G54D22*
X20500Y-22250D03*
G54D23*
X20500Y-21250D03*
X20500Y-20250D03*
X20500Y-19250D03*
G54D24*
X20500Y-17333D03*
X20500Y-15167D03*
G54D25*
X14500Y-25350D03*
X15000Y-25350D03*
X15500Y-25350D03*
X16000Y-25350D03*
X16500Y-25350D03*
X17000Y-25350D03*
X17500Y-25350D03*
X17500Y-23250D03*
X17000Y-23250D03*
X16500Y-23250D03*
X16000Y-23250D03*
X15500Y-23250D03*
X15000Y-23250D03*
X14500Y-23250D03*
G54D26*
X18183Y-15750D03*
X17317Y-15750D03*
X18183Y-15000D03*
X17317Y-15000D03*
X13933Y-15750D03*
X13067Y-15750D03*
X13933Y-15000D03*
X13067Y-15000D03*
G54D27*
X15000Y-22000D03*
X16000Y-22000D03*
X16000Y-19500D03*
X15000Y-19500D03*
X18500Y-19500D03*
X17500Y-19500D03*
X17500Y-22000D03*
X18500Y-22000D03*
M02*
