G04 (created by PCBNEW (2013-may-18)-stable) date Wed 27 May 2015 10:34:55 AM CEST*
%MOIN*%
G04 Gerber Fmt 3.4, Leading zero omitted, Abs format*
%FSLAX34Y34*%
G01*
G70*
G90*
G04 APERTURE LIST*
%ADD10C,0.00590551*%
%ADD11C,0.0147638*%
%ADD12C,0.00787402*%
%ADD13C,0.005*%
%ADD14C,0.006*%
%ADD15C,0.012*%
%ADD16C,0.015*%
%ADD17C,0.008*%
%ADD18C,0.00984252*%
%ADD19C,0.00738189*%
G04 APERTURE END LIST*
G54D10*
G54D11*
X10210Y-19755D02*
X10239Y-19671D01*
X10239Y-19530D01*
X10210Y-19474D01*
X10182Y-19446D01*
X10126Y-19418D01*
X10070Y-19418D01*
X10014Y-19446D01*
X9985Y-19474D01*
X9957Y-19530D01*
X9929Y-19643D01*
X9901Y-19699D01*
X9873Y-19727D01*
X9817Y-19755D01*
X9760Y-19755D01*
X9704Y-19727D01*
X9676Y-19699D01*
X9648Y-19643D01*
X9648Y-19502D01*
X9676Y-19418D01*
X10210Y-19193D02*
X10239Y-19109D01*
X10239Y-18968D01*
X10210Y-18912D01*
X10182Y-18884D01*
X10126Y-18856D01*
X10070Y-18856D01*
X10014Y-18884D01*
X9985Y-18912D01*
X9957Y-18968D01*
X9929Y-19080D01*
X9901Y-19137D01*
X9873Y-19165D01*
X9817Y-19193D01*
X9760Y-19193D01*
X9704Y-19165D01*
X9676Y-19137D01*
X9648Y-19080D01*
X9648Y-18940D01*
X9676Y-18856D01*
X10210Y-18631D02*
X10239Y-18546D01*
X10239Y-18406D01*
X10210Y-18349D01*
X10182Y-18321D01*
X10126Y-18293D01*
X10070Y-18293D01*
X10014Y-18321D01*
X9985Y-18349D01*
X9957Y-18406D01*
X9929Y-18518D01*
X9901Y-18574D01*
X9873Y-18602D01*
X9817Y-18631D01*
X9760Y-18631D01*
X9704Y-18602D01*
X9676Y-18574D01*
X9648Y-18518D01*
X9648Y-18377D01*
X9676Y-18293D01*
X9648Y-18096D02*
X9648Y-17703D01*
X10239Y-17956D01*
X10239Y-17028D02*
X9648Y-17028D01*
X10070Y-16831D01*
X9648Y-16634D01*
X10239Y-16634D01*
X10239Y-16268D02*
X10210Y-16325D01*
X10182Y-16353D01*
X10126Y-16381D01*
X9957Y-16381D01*
X9901Y-16353D01*
X9873Y-16325D01*
X9845Y-16268D01*
X9845Y-16184D01*
X9873Y-16128D01*
X9901Y-16100D01*
X9957Y-16071D01*
X10126Y-16071D01*
X10182Y-16100D01*
X10210Y-16128D01*
X10239Y-16184D01*
X10239Y-16268D01*
X10239Y-15565D02*
X9648Y-15565D01*
X10210Y-15565D02*
X10239Y-15622D01*
X10239Y-15734D01*
X10210Y-15790D01*
X10182Y-15818D01*
X10126Y-15847D01*
X9957Y-15847D01*
X9901Y-15818D01*
X9873Y-15790D01*
X9845Y-15734D01*
X9845Y-15622D01*
X9873Y-15565D01*
X10210Y-15059D02*
X10239Y-15115D01*
X10239Y-15228D01*
X10210Y-15284D01*
X10154Y-15312D01*
X9929Y-15312D01*
X9873Y-15284D01*
X9845Y-15228D01*
X9845Y-15115D01*
X9873Y-15059D01*
X9929Y-15031D01*
X9985Y-15031D01*
X10042Y-15312D01*
X10239Y-14778D02*
X9845Y-14778D01*
X9901Y-14778D02*
X9873Y-14750D01*
X9845Y-14694D01*
X9845Y-14609D01*
X9873Y-14553D01*
X9929Y-14525D01*
X10239Y-14525D01*
X9929Y-14525D02*
X9873Y-14497D01*
X9845Y-14440D01*
X9845Y-14356D01*
X9873Y-14300D01*
X9929Y-14272D01*
X10239Y-14272D01*
G54D12*
X21250Y-20750D02*
X22500Y-20750D01*
X19000Y-20750D02*
X19750Y-20750D01*
X16500Y-20750D02*
X17000Y-20750D01*
X9500Y-20750D02*
X14250Y-20750D01*
G54D13*
X14700Y-18200D02*
X14700Y-18250D01*
X14700Y-18250D02*
X16800Y-18250D01*
X16800Y-16750D02*
X14700Y-16750D01*
X14700Y-16750D02*
X14700Y-18200D01*
X14700Y-17300D02*
X14900Y-17300D01*
X14900Y-17300D02*
X14900Y-17700D01*
X14900Y-17700D02*
X14700Y-17700D01*
X16800Y-16750D02*
X16800Y-18250D01*
X14450Y-17500D02*
X13550Y-17500D01*
X13550Y-17500D02*
X13550Y-17000D01*
X13550Y-17000D02*
X14450Y-17000D01*
X14450Y-17000D02*
X14450Y-17500D01*
X10550Y-22000D02*
X11450Y-22000D01*
X11450Y-22000D02*
X11450Y-22500D01*
X11450Y-22500D02*
X10550Y-22500D01*
X10550Y-22500D02*
X10550Y-22000D01*
X11800Y-22750D02*
X12700Y-22750D01*
X12700Y-22750D02*
X12700Y-23250D01*
X12700Y-23250D02*
X11800Y-23250D01*
X11800Y-23250D02*
X11800Y-22750D01*
X11800Y-22000D02*
X12700Y-22000D01*
X12700Y-22000D02*
X12700Y-22500D01*
X12700Y-22500D02*
X11800Y-22500D01*
X11800Y-22500D02*
X11800Y-22000D01*
X10750Y-16700D02*
X10750Y-15800D01*
X10750Y-15800D02*
X11250Y-15800D01*
X11250Y-15800D02*
X11250Y-16700D01*
X11250Y-16700D02*
X10750Y-16700D01*
X18800Y-22500D02*
X19700Y-22500D01*
X19700Y-22500D02*
X19700Y-23000D01*
X19700Y-23000D02*
X18800Y-23000D01*
X18800Y-23000D02*
X18800Y-22500D01*
X10550Y-21250D02*
X11450Y-21250D01*
X11450Y-21250D02*
X11450Y-21750D01*
X11450Y-21750D02*
X10550Y-21750D01*
X10550Y-21750D02*
X10550Y-21250D01*
X11800Y-21250D02*
X12700Y-21250D01*
X12700Y-21250D02*
X12700Y-21750D01*
X12700Y-21750D02*
X11800Y-21750D01*
X11800Y-21750D02*
X11800Y-21250D01*
G54D14*
X12500Y-17000D02*
X12500Y-18000D01*
X12500Y-18000D02*
X10500Y-18000D01*
X10500Y-18000D02*
X10500Y-17000D01*
X10500Y-17000D02*
X12500Y-17000D01*
G54D13*
X19100Y-24200D02*
X19100Y-24800D01*
X19150Y-24950D02*
X19150Y-24050D01*
X19200Y-23950D02*
X19200Y-25050D01*
X19250Y-25150D02*
X19250Y-23850D01*
X19300Y-23800D02*
X19300Y-25200D01*
X21450Y-24500D02*
G75*
G03X21450Y-24500I-1200J0D01*
G74*
G01*
X18950Y-23200D02*
X18950Y-25800D01*
X18950Y-25800D02*
X21250Y-25800D01*
X21250Y-25800D02*
X21550Y-25500D01*
X21550Y-25500D02*
X21550Y-23500D01*
X21550Y-23500D02*
X21250Y-23200D01*
X21250Y-23200D02*
X18950Y-23200D01*
X21100Y-24500D02*
X20800Y-24500D01*
X20950Y-24350D02*
X20950Y-24650D01*
G54D15*
X12000Y-26000D02*
X12000Y-29000D01*
X20000Y-29000D02*
X20000Y-26000D01*
X20000Y-28500D02*
X12000Y-28500D01*
X12000Y-26000D02*
X20000Y-26000D01*
X12000Y-29000D02*
X20000Y-29000D01*
X19000Y-11500D02*
X19000Y-14500D01*
X13000Y-11500D02*
X13000Y-14500D01*
X19000Y-12000D02*
X13000Y-12000D01*
X19000Y-14500D02*
X13000Y-14500D01*
X19000Y-11500D02*
X13000Y-11500D01*
G54D13*
X10550Y-22750D02*
X11450Y-22750D01*
X11450Y-22750D02*
X11450Y-23250D01*
X11450Y-23250D02*
X10550Y-23250D01*
X10550Y-23250D02*
X10550Y-22750D01*
G54D16*
X22150Y-27500D02*
G75*
G03X22150Y-27500I-900J0D01*
G74*
G01*
X11650Y-27500D02*
G75*
G03X11650Y-27500I-900J0D01*
G74*
G01*
X22150Y-13000D02*
G75*
G03X22150Y-13000I-900J0D01*
G74*
G01*
X11650Y-13000D02*
G75*
G03X11650Y-13000I-900J0D01*
G74*
G01*
G54D13*
X18750Y-17800D02*
X18750Y-18700D01*
X18750Y-18700D02*
X18250Y-18700D01*
X18250Y-18700D02*
X18250Y-17800D01*
X18250Y-17800D02*
X18750Y-17800D01*
X13550Y-19250D02*
X14450Y-19250D01*
X14450Y-19250D02*
X14450Y-19750D01*
X14450Y-19750D02*
X13550Y-19750D01*
X13550Y-19750D02*
X13550Y-19250D01*
X19500Y-21300D02*
X19500Y-22200D01*
X19500Y-22200D02*
X19000Y-22200D01*
X19000Y-22200D02*
X19000Y-21300D01*
X19000Y-21300D02*
X19500Y-21300D01*
X13550Y-21750D02*
X14450Y-21750D01*
X14450Y-21750D02*
X14450Y-22250D01*
X14450Y-22250D02*
X13550Y-22250D01*
X13550Y-22250D02*
X13550Y-21750D01*
X21300Y-18000D02*
X22200Y-18000D01*
X22200Y-18000D02*
X22200Y-18500D01*
X22200Y-18500D02*
X21300Y-18500D01*
X21300Y-18500D02*
X21300Y-18000D01*
X12700Y-19750D02*
X11800Y-19750D01*
X11800Y-19750D02*
X11800Y-19250D01*
X11800Y-19250D02*
X12700Y-19250D01*
X12700Y-19250D02*
X12700Y-19750D01*
X11450Y-19750D02*
X10550Y-19750D01*
X10550Y-19750D02*
X10550Y-19250D01*
X10550Y-19250D02*
X11450Y-19250D01*
X11450Y-19250D02*
X11450Y-19750D01*
G54D15*
X20000Y-22750D02*
X20000Y-22750D01*
X21000Y-22750D02*
X20000Y-22750D01*
X20000Y-22750D02*
X20000Y-22750D01*
X20000Y-22750D02*
X20000Y-18750D01*
X20000Y-18750D02*
X21000Y-18750D01*
X21000Y-18750D02*
X21000Y-22750D01*
X21000Y-21750D02*
X20000Y-21750D01*
G54D13*
X20800Y-15100D02*
X20200Y-15100D01*
X20050Y-15150D02*
X20950Y-15150D01*
X21050Y-15200D02*
X19950Y-15200D01*
X19850Y-15250D02*
X21150Y-15250D01*
X21200Y-15300D02*
X19800Y-15300D01*
X21700Y-16250D02*
G75*
G03X21700Y-16250I-1200J0D01*
G74*
G01*
X21800Y-14950D02*
X19200Y-14950D01*
X19200Y-14950D02*
X19200Y-17250D01*
X19200Y-17250D02*
X19500Y-17550D01*
X19500Y-17550D02*
X21500Y-17550D01*
X21500Y-17550D02*
X21800Y-17250D01*
X21800Y-17250D02*
X21800Y-14950D01*
X20500Y-17100D02*
X20500Y-16800D01*
X20650Y-16950D02*
X20350Y-16950D01*
G54D17*
X14100Y-23550D02*
X17900Y-23550D01*
X17900Y-23550D02*
X17900Y-25050D01*
X17900Y-25050D02*
X14100Y-25050D01*
X14100Y-25050D02*
X14100Y-23550D01*
X14100Y-24050D02*
X14400Y-24050D01*
X14400Y-24050D02*
X14400Y-24450D01*
X14400Y-24450D02*
X14100Y-24450D01*
G54D13*
X17947Y-15474D02*
X17947Y-16026D01*
X18104Y-15474D02*
X17396Y-15474D01*
X17396Y-15474D02*
X17396Y-16026D01*
X17396Y-16026D02*
X18104Y-16026D01*
X18104Y-16026D02*
X18104Y-15474D01*
X17947Y-14724D02*
X17947Y-15276D01*
X18104Y-14724D02*
X17396Y-14724D01*
X17396Y-14724D02*
X17396Y-15276D01*
X17396Y-15276D02*
X18104Y-15276D01*
X18104Y-15276D02*
X18104Y-14724D01*
X13697Y-15474D02*
X13697Y-16026D01*
X13854Y-15474D02*
X13146Y-15474D01*
X13146Y-15474D02*
X13146Y-16026D01*
X13146Y-16026D02*
X13854Y-16026D01*
X13854Y-16026D02*
X13854Y-15474D01*
X13697Y-14724D02*
X13697Y-15276D01*
X13854Y-14724D02*
X13146Y-14724D01*
X13146Y-14724D02*
X13146Y-15276D01*
X13146Y-15276D02*
X13854Y-15276D01*
X13854Y-15276D02*
X13854Y-14724D01*
G54D18*
X14750Y-21500D02*
X14750Y-20000D01*
X14750Y-20000D02*
X16250Y-20000D01*
X16250Y-20000D02*
X16250Y-21500D01*
X16250Y-21500D02*
X14750Y-21500D01*
X15125Y-21340D02*
G75*
G03X15125Y-21340I-111J0D01*
G74*
G01*
X18750Y-20000D02*
X18750Y-21500D01*
X18750Y-21500D02*
X17250Y-21500D01*
X17250Y-21500D02*
X17250Y-20000D01*
X17250Y-20000D02*
X18750Y-20000D01*
X18597Y-20159D02*
G75*
G03X18597Y-20159I-111J0D01*
G74*
G01*
G54D19*
X16961Y-17119D02*
X16961Y-16824D01*
X17271Y-17091D02*
X17257Y-17105D01*
X17214Y-17119D01*
X17186Y-17119D01*
X17144Y-17105D01*
X17116Y-17077D01*
X17102Y-17049D01*
X17088Y-16992D01*
X17088Y-16950D01*
X17102Y-16894D01*
X17116Y-16866D01*
X17144Y-16838D01*
X17186Y-16824D01*
X17214Y-16824D01*
X17257Y-16838D01*
X17271Y-16852D01*
X17552Y-17119D02*
X17383Y-17119D01*
X17467Y-17119D02*
X17467Y-16824D01*
X17439Y-16866D01*
X17411Y-16894D01*
X17383Y-16908D01*
G54D12*
G54D19*
X14793Y-18119D02*
X14793Y-17824D01*
X14892Y-18035D01*
X14990Y-17824D01*
X14990Y-18119D01*
X15300Y-18091D02*
X15285Y-18105D01*
X15243Y-18119D01*
X15215Y-18119D01*
X15173Y-18105D01*
X15145Y-18077D01*
X15131Y-18049D01*
X15117Y-17992D01*
X15117Y-17950D01*
X15131Y-17894D01*
X15145Y-17866D01*
X15173Y-17838D01*
X15215Y-17824D01*
X15243Y-17824D01*
X15285Y-17838D01*
X15300Y-17852D01*
X15426Y-18119D02*
X15426Y-17824D01*
X15539Y-17824D01*
X15567Y-17838D01*
X15581Y-17852D01*
X15595Y-17880D01*
X15595Y-17922D01*
X15581Y-17950D01*
X15567Y-17964D01*
X15539Y-17978D01*
X15426Y-17978D01*
X15707Y-17852D02*
X15721Y-17838D01*
X15750Y-17824D01*
X15820Y-17824D01*
X15848Y-17838D01*
X15862Y-17852D01*
X15876Y-17880D01*
X15876Y-17908D01*
X15862Y-17950D01*
X15693Y-18119D01*
X15876Y-18119D01*
X16143Y-17824D02*
X16003Y-17824D01*
X15989Y-17964D01*
X16003Y-17950D01*
X16031Y-17936D01*
X16101Y-17936D01*
X16129Y-17950D01*
X16143Y-17964D01*
X16157Y-17992D01*
X16157Y-18063D01*
X16143Y-18091D01*
X16129Y-18105D01*
X16101Y-18119D01*
X16031Y-18119D01*
X16003Y-18105D01*
X15989Y-18091D01*
X16424Y-17824D02*
X16284Y-17824D01*
X16270Y-17964D01*
X16284Y-17950D01*
X16312Y-17936D01*
X16382Y-17936D01*
X16410Y-17950D01*
X16424Y-17964D01*
X16438Y-17992D01*
X16438Y-18063D01*
X16424Y-18091D01*
X16410Y-18105D01*
X16382Y-18119D01*
X16312Y-18119D01*
X16284Y-18105D01*
X16270Y-18091D01*
X16720Y-18119D02*
X16551Y-18119D01*
X16635Y-18119D02*
X16635Y-17824D01*
X16607Y-17866D01*
X16579Y-17894D01*
X16551Y-17908D01*
X12950Y-17369D02*
X12852Y-17228D01*
X12782Y-17369D02*
X12782Y-17074D01*
X12894Y-17074D01*
X12922Y-17088D01*
X12936Y-17102D01*
X12950Y-17130D01*
X12950Y-17172D01*
X12936Y-17200D01*
X12922Y-17214D01*
X12894Y-17228D01*
X12782Y-17228D01*
X13049Y-17074D02*
X13232Y-17074D01*
X13133Y-17186D01*
X13175Y-17186D01*
X13203Y-17200D01*
X13217Y-17214D01*
X13232Y-17242D01*
X13232Y-17313D01*
X13217Y-17341D01*
X13203Y-17355D01*
X13175Y-17369D01*
X13091Y-17369D01*
X13063Y-17355D01*
X13049Y-17341D01*
G54D12*
G54D19*
X9950Y-22369D02*
X9852Y-22228D01*
X9782Y-22369D02*
X9782Y-22074D01*
X9894Y-22074D01*
X9922Y-22088D01*
X9936Y-22102D01*
X9950Y-22130D01*
X9950Y-22172D01*
X9936Y-22200D01*
X9922Y-22214D01*
X9894Y-22228D01*
X9782Y-22228D01*
X10063Y-22102D02*
X10077Y-22088D01*
X10105Y-22074D01*
X10175Y-22074D01*
X10203Y-22088D01*
X10217Y-22102D01*
X10232Y-22130D01*
X10232Y-22158D01*
X10217Y-22200D01*
X10049Y-22369D01*
X10232Y-22369D01*
G54D12*
G54D19*
X13282Y-23619D02*
X13282Y-23324D01*
X13352Y-23324D01*
X13394Y-23338D01*
X13422Y-23366D01*
X13436Y-23394D01*
X13450Y-23450D01*
X13450Y-23492D01*
X13436Y-23549D01*
X13422Y-23577D01*
X13394Y-23605D01*
X13352Y-23619D01*
X13282Y-23619D01*
X13732Y-23619D02*
X13563Y-23619D01*
X13647Y-23619D02*
X13647Y-23324D01*
X13619Y-23366D01*
X13591Y-23394D01*
X13563Y-23408D01*
G54D12*
G54D19*
X13282Y-22869D02*
X13282Y-22574D01*
X13352Y-22574D01*
X13394Y-22588D01*
X13422Y-22616D01*
X13436Y-22644D01*
X13450Y-22700D01*
X13450Y-22742D01*
X13436Y-22799D01*
X13422Y-22827D01*
X13394Y-22855D01*
X13352Y-22869D01*
X13282Y-22869D01*
X13563Y-22602D02*
X13577Y-22588D01*
X13605Y-22574D01*
X13675Y-22574D01*
X13703Y-22588D01*
X13717Y-22602D01*
X13732Y-22630D01*
X13732Y-22658D01*
X13717Y-22700D01*
X13549Y-22869D01*
X13732Y-22869D01*
G54D12*
G54D19*
X11700Y-16369D02*
X11602Y-16228D01*
X11532Y-16369D02*
X11532Y-16074D01*
X11644Y-16074D01*
X11672Y-16088D01*
X11686Y-16102D01*
X11700Y-16130D01*
X11700Y-16172D01*
X11686Y-16200D01*
X11672Y-16214D01*
X11644Y-16228D01*
X11532Y-16228D01*
X11953Y-16172D02*
X11953Y-16369D01*
X11883Y-16060D02*
X11813Y-16271D01*
X11996Y-16271D01*
G54D12*
G54D19*
X18450Y-23341D02*
X18436Y-23355D01*
X18394Y-23369D01*
X18366Y-23369D01*
X18324Y-23355D01*
X18296Y-23327D01*
X18282Y-23299D01*
X18267Y-23242D01*
X18267Y-23200D01*
X18282Y-23144D01*
X18296Y-23116D01*
X18324Y-23088D01*
X18366Y-23074D01*
X18394Y-23074D01*
X18436Y-23088D01*
X18450Y-23102D01*
X18563Y-23102D02*
X18577Y-23088D01*
X18605Y-23074D01*
X18675Y-23074D01*
X18703Y-23088D01*
X18717Y-23102D01*
X18732Y-23130D01*
X18732Y-23158D01*
X18717Y-23200D01*
X18549Y-23369D01*
X18732Y-23369D01*
G54D12*
G54D19*
X9950Y-21619D02*
X9852Y-21478D01*
X9782Y-21619D02*
X9782Y-21324D01*
X9894Y-21324D01*
X9922Y-21338D01*
X9936Y-21352D01*
X9950Y-21380D01*
X9950Y-21422D01*
X9936Y-21450D01*
X9922Y-21464D01*
X9894Y-21478D01*
X9782Y-21478D01*
X10217Y-21324D02*
X10077Y-21324D01*
X10063Y-21464D01*
X10077Y-21450D01*
X10105Y-21436D01*
X10175Y-21436D01*
X10203Y-21450D01*
X10217Y-21464D01*
X10232Y-21492D01*
X10232Y-21563D01*
X10217Y-21591D01*
X10203Y-21605D01*
X10175Y-21619D01*
X10105Y-21619D01*
X10077Y-21605D01*
X10063Y-21591D01*
G54D12*
G54D19*
X13032Y-21619D02*
X13032Y-21324D01*
X13102Y-21324D01*
X13144Y-21338D01*
X13172Y-21366D01*
X13186Y-21394D01*
X13200Y-21450D01*
X13200Y-21492D01*
X13186Y-21549D01*
X13172Y-21577D01*
X13144Y-21605D01*
X13102Y-21619D01*
X13032Y-21619D01*
X13299Y-21324D02*
X13482Y-21324D01*
X13383Y-21436D01*
X13425Y-21436D01*
X13453Y-21450D01*
X13467Y-21464D01*
X13482Y-21492D01*
X13482Y-21563D01*
X13467Y-21591D01*
X13453Y-21605D01*
X13425Y-21619D01*
X13341Y-21619D01*
X13313Y-21605D01*
X13299Y-21591D01*
G54D12*
G54D19*
X11253Y-18074D02*
X11253Y-18285D01*
X11239Y-18327D01*
X11211Y-18355D01*
X11169Y-18369D01*
X11141Y-18369D01*
X11394Y-18369D02*
X11394Y-18074D01*
X11507Y-18074D01*
X11535Y-18088D01*
X11549Y-18102D01*
X11563Y-18130D01*
X11563Y-18172D01*
X11549Y-18200D01*
X11535Y-18214D01*
X11507Y-18228D01*
X11394Y-18228D01*
X11844Y-18369D02*
X11675Y-18369D01*
X11760Y-18369D02*
X11760Y-18074D01*
X11732Y-18116D01*
X11703Y-18144D01*
X11675Y-18158D01*
G54D12*
G54D19*
X20450Y-26341D02*
X20436Y-26355D01*
X20394Y-26369D01*
X20366Y-26369D01*
X20324Y-26355D01*
X20296Y-26327D01*
X20282Y-26299D01*
X20267Y-26242D01*
X20267Y-26200D01*
X20282Y-26144D01*
X20296Y-26116D01*
X20324Y-26088D01*
X20366Y-26074D01*
X20394Y-26074D01*
X20436Y-26088D01*
X20450Y-26102D01*
X20732Y-26369D02*
X20563Y-26369D01*
X20647Y-26369D02*
X20647Y-26074D01*
X20619Y-26116D01*
X20591Y-26144D01*
X20563Y-26158D01*
G54D12*
G54D19*
X12032Y-25619D02*
X12032Y-25324D01*
X12144Y-25324D01*
X12172Y-25338D01*
X12186Y-25352D01*
X12200Y-25380D01*
X12200Y-25422D01*
X12186Y-25450D01*
X12172Y-25464D01*
X12144Y-25478D01*
X12032Y-25478D01*
X12482Y-25619D02*
X12313Y-25619D01*
X12397Y-25619D02*
X12397Y-25324D01*
X12369Y-25366D01*
X12341Y-25394D01*
X12313Y-25408D01*
G54D12*
G54D19*
X12282Y-14369D02*
X12282Y-14074D01*
X12450Y-14369D02*
X12324Y-14200D01*
X12450Y-14074D02*
X12282Y-14242D01*
X12732Y-14369D02*
X12563Y-14369D01*
X12647Y-14369D02*
X12647Y-14074D01*
X12619Y-14116D01*
X12591Y-14144D01*
X12563Y-14158D01*
G54D12*
G54D19*
X9950Y-23119D02*
X9852Y-22978D01*
X9782Y-23119D02*
X9782Y-22824D01*
X9894Y-22824D01*
X9922Y-22838D01*
X9936Y-22852D01*
X9950Y-22880D01*
X9950Y-22922D01*
X9936Y-22950D01*
X9922Y-22964D01*
X9894Y-22978D01*
X9782Y-22978D01*
X10232Y-23119D02*
X10063Y-23119D01*
X10147Y-23119D02*
X10147Y-22824D01*
X10119Y-22866D01*
X10091Y-22894D01*
X10063Y-22908D01*
G54D12*
G54D19*
X17700Y-18369D02*
X17602Y-18228D01*
X17532Y-18369D02*
X17532Y-18074D01*
X17644Y-18074D01*
X17672Y-18088D01*
X17686Y-18102D01*
X17700Y-18130D01*
X17700Y-18172D01*
X17686Y-18200D01*
X17672Y-18214D01*
X17644Y-18228D01*
X17532Y-18228D01*
X17869Y-18200D02*
X17841Y-18186D01*
X17827Y-18172D01*
X17813Y-18144D01*
X17813Y-18130D01*
X17827Y-18102D01*
X17841Y-18088D01*
X17869Y-18074D01*
X17925Y-18074D01*
X17953Y-18088D01*
X17967Y-18102D01*
X17982Y-18130D01*
X17982Y-18144D01*
X17967Y-18172D01*
X17953Y-18186D01*
X17925Y-18200D01*
X17869Y-18200D01*
X17841Y-18214D01*
X17827Y-18228D01*
X17813Y-18257D01*
X17813Y-18313D01*
X17827Y-18341D01*
X17841Y-18355D01*
X17869Y-18369D01*
X17925Y-18369D01*
X17953Y-18355D01*
X17967Y-18341D01*
X17982Y-18313D01*
X17982Y-18257D01*
X17967Y-18228D01*
X17953Y-18214D01*
X17925Y-18200D01*
G54D12*
G54D19*
X13950Y-20369D02*
X13852Y-20228D01*
X13782Y-20369D02*
X13782Y-20074D01*
X13894Y-20074D01*
X13922Y-20088D01*
X13936Y-20102D01*
X13950Y-20130D01*
X13950Y-20172D01*
X13936Y-20200D01*
X13922Y-20214D01*
X13894Y-20228D01*
X13782Y-20228D01*
X14091Y-20369D02*
X14147Y-20369D01*
X14175Y-20355D01*
X14189Y-20341D01*
X14217Y-20299D01*
X14232Y-20242D01*
X14232Y-20130D01*
X14217Y-20102D01*
X14203Y-20088D01*
X14175Y-20074D01*
X14119Y-20074D01*
X14091Y-20088D01*
X14077Y-20102D01*
X14063Y-20130D01*
X14063Y-20200D01*
X14077Y-20228D01*
X14091Y-20242D01*
X14119Y-20257D01*
X14175Y-20257D01*
X14203Y-20242D01*
X14217Y-20228D01*
X14232Y-20200D01*
G54D12*
G54D19*
X19200Y-21119D02*
X19102Y-20978D01*
X19032Y-21119D02*
X19032Y-20824D01*
X19144Y-20824D01*
X19172Y-20838D01*
X19186Y-20852D01*
X19200Y-20880D01*
X19200Y-20922D01*
X19186Y-20950D01*
X19172Y-20964D01*
X19144Y-20978D01*
X19032Y-20978D01*
X19299Y-20824D02*
X19496Y-20824D01*
X19369Y-21119D01*
G54D12*
G54D19*
X14200Y-21619D02*
X14102Y-21478D01*
X14032Y-21619D02*
X14032Y-21324D01*
X14144Y-21324D01*
X14172Y-21338D01*
X14186Y-21352D01*
X14200Y-21380D01*
X14200Y-21422D01*
X14186Y-21450D01*
X14172Y-21464D01*
X14144Y-21478D01*
X14032Y-21478D01*
X14453Y-21324D02*
X14397Y-21324D01*
X14369Y-21338D01*
X14355Y-21352D01*
X14327Y-21394D01*
X14313Y-21450D01*
X14313Y-21563D01*
X14327Y-21591D01*
X14341Y-21605D01*
X14369Y-21619D01*
X14425Y-21619D01*
X14453Y-21605D01*
X14467Y-21591D01*
X14482Y-21563D01*
X14482Y-21492D01*
X14467Y-21464D01*
X14453Y-21450D01*
X14425Y-21436D01*
X14369Y-21436D01*
X14341Y-21450D01*
X14327Y-21464D01*
X14313Y-21492D01*
G54D12*
G54D19*
X21700Y-19091D02*
X21686Y-19105D01*
X21644Y-19119D01*
X21616Y-19119D01*
X21574Y-19105D01*
X21546Y-19077D01*
X21532Y-19049D01*
X21517Y-18992D01*
X21517Y-18950D01*
X21532Y-18894D01*
X21546Y-18866D01*
X21574Y-18838D01*
X21616Y-18824D01*
X21644Y-18824D01*
X21686Y-18838D01*
X21700Y-18852D01*
X21953Y-18922D02*
X21953Y-19119D01*
X21883Y-18810D02*
X21813Y-19021D01*
X21996Y-19021D01*
G54D12*
G54D19*
X12060Y-20369D02*
X11961Y-20228D01*
X11891Y-20369D02*
X11891Y-20074D01*
X12003Y-20074D01*
X12032Y-20088D01*
X12046Y-20102D01*
X12060Y-20130D01*
X12060Y-20172D01*
X12046Y-20200D01*
X12032Y-20214D01*
X12003Y-20228D01*
X11891Y-20228D01*
X12341Y-20369D02*
X12172Y-20369D01*
X12257Y-20369D02*
X12257Y-20074D01*
X12228Y-20116D01*
X12200Y-20144D01*
X12172Y-20158D01*
X12524Y-20074D02*
X12552Y-20074D01*
X12580Y-20088D01*
X12594Y-20102D01*
X12608Y-20130D01*
X12622Y-20186D01*
X12622Y-20257D01*
X12608Y-20313D01*
X12594Y-20341D01*
X12580Y-20355D01*
X12552Y-20369D01*
X12524Y-20369D01*
X12496Y-20355D01*
X12482Y-20341D01*
X12467Y-20313D01*
X12453Y-20257D01*
X12453Y-20186D01*
X12467Y-20130D01*
X12482Y-20102D01*
X12496Y-20088D01*
X12524Y-20074D01*
G54D12*
G54D19*
X10782Y-20369D02*
X10782Y-20074D01*
X10852Y-20074D01*
X10894Y-20088D01*
X10922Y-20116D01*
X10936Y-20144D01*
X10950Y-20200D01*
X10950Y-20242D01*
X10936Y-20299D01*
X10922Y-20327D01*
X10894Y-20355D01*
X10852Y-20369D01*
X10782Y-20369D01*
X11203Y-20172D02*
X11203Y-20369D01*
X11133Y-20060D02*
X11063Y-20271D01*
X11246Y-20271D01*
G54D12*
G54D19*
X21275Y-22574D02*
X21275Y-22813D01*
X21289Y-22841D01*
X21303Y-22855D01*
X21331Y-22869D01*
X21387Y-22869D01*
X21415Y-22855D01*
X21429Y-22841D01*
X21443Y-22813D01*
X21443Y-22574D01*
X21739Y-22869D02*
X21570Y-22869D01*
X21654Y-22869D02*
X21654Y-22574D01*
X21626Y-22616D01*
X21598Y-22644D01*
X21570Y-22658D01*
G54D12*
G54D19*
X22200Y-16341D02*
X22186Y-16355D01*
X22144Y-16369D01*
X22116Y-16369D01*
X22074Y-16355D01*
X22046Y-16327D01*
X22032Y-16299D01*
X22017Y-16242D01*
X22017Y-16200D01*
X22032Y-16144D01*
X22046Y-16116D01*
X22074Y-16088D01*
X22116Y-16074D01*
X22144Y-16074D01*
X22186Y-16088D01*
X22200Y-16102D01*
X22299Y-16074D02*
X22482Y-16074D01*
X22383Y-16186D01*
X22425Y-16186D01*
X22453Y-16200D01*
X22467Y-16214D01*
X22482Y-16242D01*
X22482Y-16313D01*
X22467Y-16341D01*
X22453Y-16355D01*
X22425Y-16369D01*
X22341Y-16369D01*
X22313Y-16355D01*
X22299Y-16341D01*
G54D12*
G54D19*
X13525Y-25074D02*
X13525Y-25313D01*
X13539Y-25341D01*
X13553Y-25355D01*
X13581Y-25369D01*
X13637Y-25369D01*
X13665Y-25355D01*
X13679Y-25341D01*
X13693Y-25313D01*
X13693Y-25074D01*
X13820Y-25102D02*
X13834Y-25088D01*
X13862Y-25074D01*
X13932Y-25074D01*
X13960Y-25088D01*
X13974Y-25102D01*
X13989Y-25130D01*
X13989Y-25158D01*
X13974Y-25200D01*
X13806Y-25369D01*
X13989Y-25369D01*
G54D12*
G54D19*
X14924Y-23824D02*
X15121Y-23824D01*
X14994Y-24119D01*
X15360Y-23922D02*
X15360Y-24119D01*
X15289Y-23810D02*
X15219Y-24021D01*
X15402Y-24021D01*
X15514Y-24119D02*
X15514Y-23824D01*
X15514Y-23964D02*
X15683Y-23964D01*
X15683Y-24119D02*
X15683Y-23824D01*
X15992Y-24091D02*
X15978Y-24105D01*
X15936Y-24119D01*
X15908Y-24119D01*
X15866Y-24105D01*
X15838Y-24077D01*
X15824Y-24049D01*
X15810Y-23992D01*
X15810Y-23950D01*
X15824Y-23894D01*
X15838Y-23866D01*
X15866Y-23838D01*
X15908Y-23824D01*
X15936Y-23824D01*
X15978Y-23838D01*
X15992Y-23852D01*
X16077Y-23824D02*
X16246Y-23824D01*
X16161Y-24119D02*
X16161Y-23824D01*
X16499Y-24119D02*
X16330Y-24119D01*
X16414Y-24119D02*
X16414Y-23824D01*
X16386Y-23866D01*
X16358Y-23894D01*
X16330Y-23908D01*
X16611Y-23852D02*
X16625Y-23838D01*
X16653Y-23824D01*
X16724Y-23824D01*
X16752Y-23838D01*
X16766Y-23852D01*
X16780Y-23880D01*
X16780Y-23908D01*
X16766Y-23950D01*
X16597Y-24119D01*
X16780Y-24119D01*
X17047Y-23824D02*
X16906Y-23824D01*
X16892Y-23964D01*
X16906Y-23950D01*
X16935Y-23936D01*
X17005Y-23936D01*
X17033Y-23950D01*
X17047Y-23964D01*
X17061Y-23992D01*
X17061Y-24063D01*
X17047Y-24091D01*
X17033Y-24105D01*
X17005Y-24119D01*
X16935Y-24119D01*
X16906Y-24105D01*
X16892Y-24091D01*
G54D12*
G54D19*
X16282Y-15869D02*
X16282Y-15574D01*
X16352Y-15574D01*
X16394Y-15588D01*
X16422Y-15616D01*
X16436Y-15644D01*
X16450Y-15700D01*
X16450Y-15742D01*
X16436Y-15799D01*
X16422Y-15827D01*
X16394Y-15855D01*
X16352Y-15869D01*
X16282Y-15869D01*
X16717Y-15574D02*
X16577Y-15574D01*
X16563Y-15714D01*
X16577Y-15700D01*
X16605Y-15686D01*
X16675Y-15686D01*
X16703Y-15700D01*
X16717Y-15714D01*
X16732Y-15742D01*
X16732Y-15813D01*
X16717Y-15841D01*
X16703Y-15855D01*
X16675Y-15869D01*
X16605Y-15869D01*
X16577Y-15855D01*
X16563Y-15841D01*
G54D12*
G54D19*
X18532Y-15119D02*
X18532Y-14824D01*
X18602Y-14824D01*
X18644Y-14838D01*
X18672Y-14866D01*
X18686Y-14894D01*
X18700Y-14950D01*
X18700Y-14992D01*
X18686Y-15049D01*
X18672Y-15077D01*
X18644Y-15105D01*
X18602Y-15119D01*
X18532Y-15119D01*
X18799Y-14824D02*
X18996Y-14824D01*
X18869Y-15119D01*
G54D12*
G54D19*
X12032Y-15869D02*
X12032Y-15574D01*
X12102Y-15574D01*
X12144Y-15588D01*
X12172Y-15616D01*
X12186Y-15644D01*
X12200Y-15700D01*
X12200Y-15742D01*
X12186Y-15799D01*
X12172Y-15827D01*
X12144Y-15855D01*
X12102Y-15869D01*
X12032Y-15869D01*
X12453Y-15574D02*
X12397Y-15574D01*
X12369Y-15588D01*
X12355Y-15602D01*
X12327Y-15644D01*
X12313Y-15700D01*
X12313Y-15813D01*
X12327Y-15841D01*
X12341Y-15855D01*
X12369Y-15869D01*
X12425Y-15869D01*
X12453Y-15855D01*
X12467Y-15841D01*
X12482Y-15813D01*
X12482Y-15742D01*
X12467Y-15714D01*
X12453Y-15700D01*
X12425Y-15686D01*
X12369Y-15686D01*
X12341Y-15700D01*
X12327Y-15714D01*
X12313Y-15742D01*
G54D12*
G54D19*
X14532Y-15119D02*
X14532Y-14824D01*
X14602Y-14824D01*
X14644Y-14838D01*
X14672Y-14866D01*
X14686Y-14894D01*
X14700Y-14950D01*
X14700Y-14992D01*
X14686Y-15049D01*
X14672Y-15077D01*
X14644Y-15105D01*
X14602Y-15119D01*
X14532Y-15119D01*
X14869Y-14950D02*
X14841Y-14936D01*
X14827Y-14922D01*
X14813Y-14894D01*
X14813Y-14880D01*
X14827Y-14852D01*
X14841Y-14838D01*
X14869Y-14824D01*
X14925Y-14824D01*
X14953Y-14838D01*
X14967Y-14852D01*
X14982Y-14880D01*
X14982Y-14894D01*
X14967Y-14922D01*
X14953Y-14936D01*
X14925Y-14950D01*
X14869Y-14950D01*
X14841Y-14964D01*
X14827Y-14978D01*
X14813Y-15007D01*
X14813Y-15063D01*
X14827Y-15091D01*
X14841Y-15105D01*
X14869Y-15119D01*
X14925Y-15119D01*
X14953Y-15105D01*
X14967Y-15091D01*
X14982Y-15063D01*
X14982Y-15007D01*
X14967Y-14978D01*
X14953Y-14964D01*
X14925Y-14950D01*
G54D12*
G54D19*
X16461Y-20369D02*
X16461Y-20074D01*
X16771Y-20341D02*
X16757Y-20355D01*
X16714Y-20369D01*
X16686Y-20369D01*
X16644Y-20355D01*
X16616Y-20327D01*
X16602Y-20299D01*
X16588Y-20242D01*
X16588Y-20200D01*
X16602Y-20144D01*
X16616Y-20116D01*
X16644Y-20088D01*
X16686Y-20074D01*
X16714Y-20074D01*
X16757Y-20088D01*
X16771Y-20102D01*
X16869Y-20074D02*
X17052Y-20074D01*
X16953Y-20186D01*
X16996Y-20186D01*
X17024Y-20200D01*
X17038Y-20214D01*
X17052Y-20242D01*
X17052Y-20313D01*
X17038Y-20341D01*
X17024Y-20355D01*
X16996Y-20369D01*
X16911Y-20369D01*
X16883Y-20355D01*
X16869Y-20341D01*
G54D12*
G54D19*
X18961Y-20369D02*
X18961Y-20074D01*
X19271Y-20341D02*
X19257Y-20355D01*
X19214Y-20369D01*
X19186Y-20369D01*
X19144Y-20355D01*
X19116Y-20327D01*
X19102Y-20299D01*
X19088Y-20242D01*
X19088Y-20200D01*
X19102Y-20144D01*
X19116Y-20116D01*
X19144Y-20088D01*
X19186Y-20074D01*
X19214Y-20074D01*
X19257Y-20088D01*
X19271Y-20102D01*
X19383Y-20102D02*
X19397Y-20088D01*
X19425Y-20074D01*
X19496Y-20074D01*
X19524Y-20088D01*
X19538Y-20102D01*
X19552Y-20130D01*
X19552Y-20158D01*
X19538Y-20200D01*
X19369Y-20369D01*
X19552Y-20369D01*
G54D12*
M02*
