M48
;DRILL file {Pcbnew (2013-may-18)-stable} date Tue 02 Jun 2015 08:32:08 PM CEST
;FORMAT={3:3/ absolute / metric / keep zeros}
FMAT,2
METRIC,TZ
T1C0.250
T2C0.813
T3C1.016
T4C1.524
T5C3.200
%
G90
G05
M71
T1
X027940Y-038100
X033020Y-056515
X033020Y-058420
X038100Y-040005
X039370Y-038100
X039370Y-057150
X039370Y-062865
X040640Y-040005
X041910Y-038100
X041910Y-062865
X045720Y-057785
T2
X052070Y-048895
X052070Y-051435
X052070Y-053975
X052070Y-056515
T3
X027940Y-044450
X030480Y-044450
T4
X033020Y-069850
X035560Y-033020
X038100Y-069850
X040640Y-033020
X043180Y-069850
X045720Y-033020
X048260Y-069850
T5
X027305Y-033020
X027305Y-069850
X053975Y-033020
X053975Y-069850
T0
M30
