G04 (created by PCBNEW (2013-may-18)-stable) date Wed 27 May 2015 10:34:55 AM CEST*
%MOIN*%
G04 Gerber Fmt 3.4, Leading zero omitted, Abs format*
%FSLAX34Y34*%
G01*
G70*
G90*
G04 APERTURE LIST*
%ADD10C,0.00590551*%
%ADD11R,0.06X0.06*%
%ADD12C,0.06*%
%ADD13C,0.15*%
%ADD14R,0.15X0.15*%
%ADD15R,0.1X0.1*%
%ADD16C,0.1*%
%ADD17C,0.177165*%
%ADD18R,0.0787402X0.0787402*%
%ADD19C,0.0787402*%
%ADD20C,0.0314961*%
%ADD21C,0.019685*%
%ADD22C,0.00669291*%
G04 APERTURE END LIST*
G54D10*
G54D11*
X12000Y-17500D03*
G54D12*
X11000Y-17500D03*
G54D13*
X15000Y-27500D03*
X17000Y-27500D03*
G54D14*
X13000Y-27500D03*
G54D13*
X19000Y-27500D03*
G54D15*
X18000Y-13000D03*
G54D16*
X16000Y-13000D03*
X14000Y-13000D03*
G54D17*
X21250Y-27500D03*
X10750Y-27500D03*
X21250Y-13000D03*
X10750Y-13000D03*
G54D18*
X20500Y-22250D03*
G54D19*
X20500Y-21250D03*
X20500Y-20250D03*
X20500Y-19250D03*
G54D20*
X11000Y-15000D03*
X15500Y-15000D03*
X16500Y-15000D03*
X16000Y-15750D03*
X15000Y-15750D03*
X18000Y-22750D03*
X13000Y-22250D03*
X16500Y-24750D03*
X13000Y-23000D03*
X15500Y-22500D03*
X15500Y-24750D03*
G54D21*
X15500Y-15000D02*
X11000Y-15000D01*
X16500Y-15000D02*
X15500Y-15000D01*
X15000Y-15750D02*
X16000Y-15750D01*
X16750Y-22000D02*
X17500Y-22750D01*
X16500Y-22000D02*
X16750Y-22000D01*
X18000Y-22750D02*
X17500Y-22750D01*
X13250Y-22000D02*
X16500Y-22000D01*
X13000Y-22250D02*
X13250Y-22000D01*
X16500Y-22000D02*
X16500Y-24750D01*
X13500Y-22500D02*
X13000Y-23000D01*
X15500Y-22500D02*
X13500Y-22500D01*
X15500Y-22500D02*
X15500Y-24750D01*
X15500Y-24750D02*
X15500Y-24750D01*
G54D10*
G36*
X22629Y-20466D02*
X22269Y-20466D01*
X22269Y-12798D01*
X22114Y-12423D01*
X21828Y-12136D01*
X21453Y-11980D01*
X21048Y-11980D01*
X20673Y-12135D01*
X20386Y-12421D01*
X20230Y-12796D01*
X20230Y-13201D01*
X20385Y-13576D01*
X20671Y-13863D01*
X21046Y-14019D01*
X21451Y-14019D01*
X21826Y-13864D01*
X22113Y-13578D01*
X22269Y-13203D01*
X22269Y-12798D01*
X22269Y-20466D01*
X21027Y-20466D01*
X20996Y-20466D01*
X20994Y-20466D01*
X20996Y-20464D01*
X21027Y-20434D01*
X21110Y-20351D01*
X21027Y-20267D01*
X21027Y-19145D01*
X20947Y-18951D01*
X20799Y-18803D01*
X20605Y-18722D01*
X20395Y-18722D01*
X20201Y-18802D01*
X20053Y-18950D01*
X19972Y-19144D01*
X19972Y-19354D01*
X20052Y-19548D01*
X20200Y-19696D01*
X20374Y-19768D01*
X20330Y-19802D01*
X20500Y-19971D01*
X20669Y-19802D01*
X20625Y-19768D01*
X20798Y-19697D01*
X20946Y-19549D01*
X21027Y-19355D01*
X21027Y-19145D01*
X21027Y-20267D01*
X21015Y-20255D01*
X20996Y-20273D01*
X20993Y-20277D01*
X20996Y-20166D01*
X20990Y-20136D01*
X20947Y-20080D01*
X20778Y-20250D01*
X20899Y-20371D01*
X20804Y-20466D01*
X20221Y-20466D01*
X20195Y-20466D01*
X20100Y-20371D01*
X20221Y-20250D01*
X20052Y-20080D01*
X20009Y-20136D01*
X20004Y-20275D01*
X19984Y-20255D01*
X19889Y-20351D01*
X20005Y-20466D01*
X18600Y-20466D01*
X18600Y-13480D01*
X18600Y-12519D01*
X18600Y-12479D01*
X18585Y-12443D01*
X18556Y-12414D01*
X18519Y-12399D01*
X18275Y-12399D01*
X18250Y-12424D01*
X18250Y-12750D01*
X18575Y-12750D01*
X18600Y-12724D01*
X18600Y-12519D01*
X18600Y-13480D01*
X18600Y-13275D01*
X18575Y-13250D01*
X18250Y-13250D01*
X18250Y-13575D01*
X18275Y-13600D01*
X18519Y-13600D01*
X18556Y-13585D01*
X18585Y-13556D01*
X18600Y-13520D01*
X18600Y-13480D01*
X18600Y-20466D01*
X17750Y-20466D01*
X17750Y-13575D01*
X17750Y-13250D01*
X17750Y-12750D01*
X17750Y-12424D01*
X17724Y-12399D01*
X17480Y-12399D01*
X17443Y-12414D01*
X17414Y-12443D01*
X17399Y-12479D01*
X17399Y-12519D01*
X17399Y-12724D01*
X17424Y-12750D01*
X17750Y-12750D01*
X17750Y-13250D01*
X17424Y-13250D01*
X17399Y-13275D01*
X17399Y-13480D01*
X17399Y-13520D01*
X17414Y-13556D01*
X17443Y-13585D01*
X17480Y-13600D01*
X17724Y-13600D01*
X17750Y-13575D01*
X17750Y-20466D01*
X16790Y-20466D01*
X16790Y-14942D01*
X16746Y-14835D01*
X16665Y-14753D01*
X16633Y-14740D01*
X16633Y-12874D01*
X16537Y-12641D01*
X16359Y-12463D01*
X16126Y-12366D01*
X15874Y-12366D01*
X15641Y-12462D01*
X15463Y-12640D01*
X15366Y-12873D01*
X15366Y-13125D01*
X15462Y-13358D01*
X15640Y-13536D01*
X15873Y-13633D01*
X16125Y-13633D01*
X16358Y-13537D01*
X16536Y-13359D01*
X16633Y-13126D01*
X16633Y-12874D01*
X16633Y-14740D01*
X16558Y-14709D01*
X16442Y-14709D01*
X16335Y-14753D01*
X16320Y-14768D01*
X15679Y-14768D01*
X15665Y-14753D01*
X15558Y-14709D01*
X15442Y-14709D01*
X15335Y-14753D01*
X15320Y-14768D01*
X14633Y-14768D01*
X14633Y-12874D01*
X14537Y-12641D01*
X14359Y-12463D01*
X14126Y-12366D01*
X13874Y-12366D01*
X13641Y-12462D01*
X13463Y-12640D01*
X13366Y-12873D01*
X13366Y-13125D01*
X13462Y-13358D01*
X13640Y-13536D01*
X13873Y-13633D01*
X14125Y-13633D01*
X14358Y-13537D01*
X14536Y-13359D01*
X14633Y-13126D01*
X14633Y-12874D01*
X14633Y-14768D01*
X11769Y-14768D01*
X11769Y-12798D01*
X11614Y-12423D01*
X11328Y-12136D01*
X10953Y-11980D01*
X10548Y-11980D01*
X10173Y-12135D01*
X9886Y-12421D01*
X9730Y-12796D01*
X9730Y-13201D01*
X9885Y-13576D01*
X10171Y-13863D01*
X10546Y-14019D01*
X10951Y-14019D01*
X11326Y-13864D01*
X11613Y-13578D01*
X11769Y-13203D01*
X11769Y-12798D01*
X11769Y-14768D01*
X11179Y-14768D01*
X11165Y-14753D01*
X11058Y-14709D01*
X10942Y-14709D01*
X10835Y-14753D01*
X10753Y-14834D01*
X10709Y-14941D01*
X10709Y-15057D01*
X10753Y-15164D01*
X10834Y-15246D01*
X10941Y-15290D01*
X11057Y-15290D01*
X11164Y-15246D01*
X11179Y-15231D01*
X15320Y-15231D01*
X15334Y-15246D01*
X15441Y-15290D01*
X15557Y-15290D01*
X15664Y-15246D01*
X15679Y-15231D01*
X16320Y-15231D01*
X16334Y-15246D01*
X16441Y-15290D01*
X16557Y-15290D01*
X16664Y-15246D01*
X16746Y-15165D01*
X16790Y-15058D01*
X16790Y-14942D01*
X16790Y-20466D01*
X16290Y-20466D01*
X16290Y-15692D01*
X16246Y-15585D01*
X16165Y-15503D01*
X16058Y-15459D01*
X15942Y-15459D01*
X15835Y-15503D01*
X15820Y-15518D01*
X15179Y-15518D01*
X15165Y-15503D01*
X15058Y-15459D01*
X14942Y-15459D01*
X14835Y-15503D01*
X14753Y-15584D01*
X14709Y-15691D01*
X14709Y-15807D01*
X14753Y-15914D01*
X14834Y-15996D01*
X14941Y-16040D01*
X15057Y-16040D01*
X15164Y-15996D01*
X15179Y-15981D01*
X15820Y-15981D01*
X15834Y-15996D01*
X15941Y-16040D01*
X16057Y-16040D01*
X16164Y-15996D01*
X16246Y-15915D01*
X16290Y-15808D01*
X16290Y-15692D01*
X16290Y-20466D01*
X12433Y-20466D01*
X12433Y-17773D01*
X12433Y-17173D01*
X12413Y-17124D01*
X12375Y-17086D01*
X12326Y-17066D01*
X12273Y-17066D01*
X11673Y-17066D01*
X11624Y-17086D01*
X11586Y-17124D01*
X11566Y-17173D01*
X11566Y-17226D01*
X11566Y-17826D01*
X11586Y-17875D01*
X11624Y-17913D01*
X11673Y-17933D01*
X11726Y-17933D01*
X12326Y-17933D01*
X12375Y-17913D01*
X12413Y-17875D01*
X12433Y-17826D01*
X12433Y-17773D01*
X12433Y-20466D01*
X11433Y-20466D01*
X11433Y-17414D01*
X11367Y-17254D01*
X11245Y-17132D01*
X11086Y-17066D01*
X10914Y-17066D01*
X10754Y-17132D01*
X10632Y-17254D01*
X10566Y-17413D01*
X10566Y-17585D01*
X10632Y-17745D01*
X10754Y-17867D01*
X10913Y-17933D01*
X11085Y-17933D01*
X11245Y-17867D01*
X11367Y-17745D01*
X11433Y-17586D01*
X11433Y-17414D01*
X11433Y-20466D01*
X9370Y-20466D01*
X9370Y-13011D01*
X9476Y-12473D01*
X9774Y-12026D01*
X10224Y-11727D01*
X10764Y-11620D01*
X21238Y-11620D01*
X21776Y-11726D01*
X22223Y-12024D01*
X22522Y-12474D01*
X22629Y-13014D01*
X22629Y-20466D01*
X22629Y-20466D01*
G37*
G54D22*
X22629Y-20466D02*
X22269Y-20466D01*
X22269Y-12798D01*
X22114Y-12423D01*
X21828Y-12136D01*
X21453Y-11980D01*
X21048Y-11980D01*
X20673Y-12135D01*
X20386Y-12421D01*
X20230Y-12796D01*
X20230Y-13201D01*
X20385Y-13576D01*
X20671Y-13863D01*
X21046Y-14019D01*
X21451Y-14019D01*
X21826Y-13864D01*
X22113Y-13578D01*
X22269Y-13203D01*
X22269Y-12798D01*
X22269Y-20466D01*
X21027Y-20466D01*
X20996Y-20466D01*
X20994Y-20466D01*
X20996Y-20464D01*
X21027Y-20434D01*
X21110Y-20351D01*
X21027Y-20267D01*
X21027Y-19145D01*
X20947Y-18951D01*
X20799Y-18803D01*
X20605Y-18722D01*
X20395Y-18722D01*
X20201Y-18802D01*
X20053Y-18950D01*
X19972Y-19144D01*
X19972Y-19354D01*
X20052Y-19548D01*
X20200Y-19696D01*
X20374Y-19768D01*
X20330Y-19802D01*
X20500Y-19971D01*
X20669Y-19802D01*
X20625Y-19768D01*
X20798Y-19697D01*
X20946Y-19549D01*
X21027Y-19355D01*
X21027Y-19145D01*
X21027Y-20267D01*
X21015Y-20255D01*
X20996Y-20273D01*
X20993Y-20277D01*
X20996Y-20166D01*
X20990Y-20136D01*
X20947Y-20080D01*
X20778Y-20250D01*
X20899Y-20371D01*
X20804Y-20466D01*
X20221Y-20466D01*
X20195Y-20466D01*
X20100Y-20371D01*
X20221Y-20250D01*
X20052Y-20080D01*
X20009Y-20136D01*
X20004Y-20275D01*
X19984Y-20255D01*
X19889Y-20351D01*
X20005Y-20466D01*
X18600Y-20466D01*
X18600Y-13480D01*
X18600Y-12519D01*
X18600Y-12479D01*
X18585Y-12443D01*
X18556Y-12414D01*
X18519Y-12399D01*
X18275Y-12399D01*
X18250Y-12424D01*
X18250Y-12750D01*
X18575Y-12750D01*
X18600Y-12724D01*
X18600Y-12519D01*
X18600Y-13480D01*
X18600Y-13275D01*
X18575Y-13250D01*
X18250Y-13250D01*
X18250Y-13575D01*
X18275Y-13600D01*
X18519Y-13600D01*
X18556Y-13585D01*
X18585Y-13556D01*
X18600Y-13520D01*
X18600Y-13480D01*
X18600Y-20466D01*
X17750Y-20466D01*
X17750Y-13575D01*
X17750Y-13250D01*
X17750Y-12750D01*
X17750Y-12424D01*
X17724Y-12399D01*
X17480Y-12399D01*
X17443Y-12414D01*
X17414Y-12443D01*
X17399Y-12479D01*
X17399Y-12519D01*
X17399Y-12724D01*
X17424Y-12750D01*
X17750Y-12750D01*
X17750Y-13250D01*
X17424Y-13250D01*
X17399Y-13275D01*
X17399Y-13480D01*
X17399Y-13520D01*
X17414Y-13556D01*
X17443Y-13585D01*
X17480Y-13600D01*
X17724Y-13600D01*
X17750Y-13575D01*
X17750Y-20466D01*
X16790Y-20466D01*
X16790Y-14942D01*
X16746Y-14835D01*
X16665Y-14753D01*
X16633Y-14740D01*
X16633Y-12874D01*
X16537Y-12641D01*
X16359Y-12463D01*
X16126Y-12366D01*
X15874Y-12366D01*
X15641Y-12462D01*
X15463Y-12640D01*
X15366Y-12873D01*
X15366Y-13125D01*
X15462Y-13358D01*
X15640Y-13536D01*
X15873Y-13633D01*
X16125Y-13633D01*
X16358Y-13537D01*
X16536Y-13359D01*
X16633Y-13126D01*
X16633Y-12874D01*
X16633Y-14740D01*
X16558Y-14709D01*
X16442Y-14709D01*
X16335Y-14753D01*
X16320Y-14768D01*
X15679Y-14768D01*
X15665Y-14753D01*
X15558Y-14709D01*
X15442Y-14709D01*
X15335Y-14753D01*
X15320Y-14768D01*
X14633Y-14768D01*
X14633Y-12874D01*
X14537Y-12641D01*
X14359Y-12463D01*
X14126Y-12366D01*
X13874Y-12366D01*
X13641Y-12462D01*
X13463Y-12640D01*
X13366Y-12873D01*
X13366Y-13125D01*
X13462Y-13358D01*
X13640Y-13536D01*
X13873Y-13633D01*
X14125Y-13633D01*
X14358Y-13537D01*
X14536Y-13359D01*
X14633Y-13126D01*
X14633Y-12874D01*
X14633Y-14768D01*
X11769Y-14768D01*
X11769Y-12798D01*
X11614Y-12423D01*
X11328Y-12136D01*
X10953Y-11980D01*
X10548Y-11980D01*
X10173Y-12135D01*
X9886Y-12421D01*
X9730Y-12796D01*
X9730Y-13201D01*
X9885Y-13576D01*
X10171Y-13863D01*
X10546Y-14019D01*
X10951Y-14019D01*
X11326Y-13864D01*
X11613Y-13578D01*
X11769Y-13203D01*
X11769Y-12798D01*
X11769Y-14768D01*
X11179Y-14768D01*
X11165Y-14753D01*
X11058Y-14709D01*
X10942Y-14709D01*
X10835Y-14753D01*
X10753Y-14834D01*
X10709Y-14941D01*
X10709Y-15057D01*
X10753Y-15164D01*
X10834Y-15246D01*
X10941Y-15290D01*
X11057Y-15290D01*
X11164Y-15246D01*
X11179Y-15231D01*
X15320Y-15231D01*
X15334Y-15246D01*
X15441Y-15290D01*
X15557Y-15290D01*
X15664Y-15246D01*
X15679Y-15231D01*
X16320Y-15231D01*
X16334Y-15246D01*
X16441Y-15290D01*
X16557Y-15290D01*
X16664Y-15246D01*
X16746Y-15165D01*
X16790Y-15058D01*
X16790Y-14942D01*
X16790Y-20466D01*
X16290Y-20466D01*
X16290Y-15692D01*
X16246Y-15585D01*
X16165Y-15503D01*
X16058Y-15459D01*
X15942Y-15459D01*
X15835Y-15503D01*
X15820Y-15518D01*
X15179Y-15518D01*
X15165Y-15503D01*
X15058Y-15459D01*
X14942Y-15459D01*
X14835Y-15503D01*
X14753Y-15584D01*
X14709Y-15691D01*
X14709Y-15807D01*
X14753Y-15914D01*
X14834Y-15996D01*
X14941Y-16040D01*
X15057Y-16040D01*
X15164Y-15996D01*
X15179Y-15981D01*
X15820Y-15981D01*
X15834Y-15996D01*
X15941Y-16040D01*
X16057Y-16040D01*
X16164Y-15996D01*
X16246Y-15915D01*
X16290Y-15808D01*
X16290Y-15692D01*
X16290Y-20466D01*
X12433Y-20466D01*
X12433Y-17773D01*
X12433Y-17173D01*
X12413Y-17124D01*
X12375Y-17086D01*
X12326Y-17066D01*
X12273Y-17066D01*
X11673Y-17066D01*
X11624Y-17086D01*
X11586Y-17124D01*
X11566Y-17173D01*
X11566Y-17226D01*
X11566Y-17826D01*
X11586Y-17875D01*
X11624Y-17913D01*
X11673Y-17933D01*
X11726Y-17933D01*
X12326Y-17933D01*
X12375Y-17913D01*
X12413Y-17875D01*
X12433Y-17826D01*
X12433Y-17773D01*
X12433Y-20466D01*
X11433Y-20466D01*
X11433Y-17414D01*
X11367Y-17254D01*
X11245Y-17132D01*
X11086Y-17066D01*
X10914Y-17066D01*
X10754Y-17132D01*
X10632Y-17254D01*
X10566Y-17413D01*
X10566Y-17585D01*
X10632Y-17745D01*
X10754Y-17867D01*
X10913Y-17933D01*
X11085Y-17933D01*
X11245Y-17867D01*
X11367Y-17745D01*
X11433Y-17586D01*
X11433Y-17414D01*
X11433Y-20466D01*
X9370Y-20466D01*
X9370Y-13011D01*
X9476Y-12473D01*
X9774Y-12026D01*
X10224Y-11727D01*
X10764Y-11620D01*
X21238Y-11620D01*
X21776Y-11726D01*
X22223Y-12024D01*
X22522Y-12474D01*
X22629Y-13014D01*
X22629Y-20466D01*
G54D10*
G36*
X22629Y-27485D02*
X22522Y-28025D01*
X22269Y-28406D01*
X22269Y-27298D01*
X22114Y-26923D01*
X21828Y-26636D01*
X21453Y-26480D01*
X21048Y-26480D01*
X20994Y-26502D01*
X20994Y-22663D01*
X20994Y-22471D01*
X20968Y-22446D01*
X20696Y-22446D01*
X20696Y-22718D01*
X20721Y-22744D01*
X20873Y-22744D01*
X20913Y-22744D01*
X20950Y-22728D01*
X20978Y-22700D01*
X20994Y-22663D01*
X20994Y-26502D01*
X20673Y-26635D01*
X20386Y-26921D01*
X20303Y-27122D01*
X20303Y-22718D01*
X20303Y-22446D01*
X20031Y-22446D01*
X20005Y-22471D01*
X20005Y-22663D01*
X20021Y-22700D01*
X20049Y-22728D01*
X20086Y-22744D01*
X20126Y-22744D01*
X20278Y-22744D01*
X20303Y-22718D01*
X20303Y-27122D01*
X20230Y-27296D01*
X20230Y-27701D01*
X20385Y-28076D01*
X20671Y-28363D01*
X21046Y-28519D01*
X21451Y-28519D01*
X21826Y-28364D01*
X22113Y-28078D01*
X22269Y-27703D01*
X22269Y-27298D01*
X22269Y-28406D01*
X22223Y-28475D01*
X21776Y-28773D01*
X21238Y-28879D01*
X19883Y-28879D01*
X19883Y-27325D01*
X19749Y-27000D01*
X19501Y-26751D01*
X19176Y-26616D01*
X18825Y-26616D01*
X18500Y-26750D01*
X18290Y-26959D01*
X18290Y-22692D01*
X18246Y-22585D01*
X18165Y-22503D01*
X18058Y-22459D01*
X17942Y-22459D01*
X17835Y-22503D01*
X17820Y-22518D01*
X17596Y-22518D01*
X16913Y-21836D01*
X16838Y-21785D01*
X16750Y-21768D01*
X16500Y-21768D01*
X13250Y-21768D01*
X13161Y-21785D01*
X13086Y-21836D01*
X13086Y-21836D01*
X12963Y-21959D01*
X12942Y-21959D01*
X12835Y-22003D01*
X12753Y-22084D01*
X12709Y-22191D01*
X12709Y-22307D01*
X12753Y-22414D01*
X12834Y-22496D01*
X12941Y-22540D01*
X13057Y-22540D01*
X13164Y-22496D01*
X13246Y-22415D01*
X13290Y-22308D01*
X13290Y-22287D01*
X13346Y-22231D01*
X15386Y-22231D01*
X15335Y-22253D01*
X15320Y-22268D01*
X13500Y-22268D01*
X13411Y-22285D01*
X13336Y-22336D01*
X12963Y-22709D01*
X12942Y-22709D01*
X12835Y-22753D01*
X12753Y-22834D01*
X12709Y-22941D01*
X12709Y-23057D01*
X12753Y-23164D01*
X12834Y-23246D01*
X12941Y-23290D01*
X13057Y-23290D01*
X13164Y-23246D01*
X13246Y-23165D01*
X13290Y-23058D01*
X13290Y-23037D01*
X13596Y-22731D01*
X15268Y-22731D01*
X15268Y-24570D01*
X15253Y-24584D01*
X15209Y-24691D01*
X15209Y-24807D01*
X15253Y-24914D01*
X15334Y-24996D01*
X15441Y-25040D01*
X15557Y-25040D01*
X15664Y-24996D01*
X15746Y-24915D01*
X15790Y-24808D01*
X15790Y-24692D01*
X15746Y-24585D01*
X15731Y-24570D01*
X15731Y-22679D01*
X15746Y-22665D01*
X15790Y-22558D01*
X15790Y-22442D01*
X15746Y-22335D01*
X15665Y-22253D01*
X15612Y-22231D01*
X16268Y-22231D01*
X16268Y-24570D01*
X16253Y-24584D01*
X16209Y-24691D01*
X16209Y-24807D01*
X16253Y-24914D01*
X16334Y-24996D01*
X16441Y-25040D01*
X16557Y-25040D01*
X16664Y-24996D01*
X16746Y-24915D01*
X16790Y-24808D01*
X16790Y-24692D01*
X16746Y-24585D01*
X16731Y-24570D01*
X16731Y-22309D01*
X17336Y-22913D01*
X17336Y-22913D01*
X17411Y-22964D01*
X17499Y-22981D01*
X17499Y-22981D01*
X17500Y-22981D01*
X17820Y-22981D01*
X17834Y-22996D01*
X17941Y-23040D01*
X18057Y-23040D01*
X18164Y-22996D01*
X18246Y-22915D01*
X18290Y-22808D01*
X18290Y-22692D01*
X18290Y-26959D01*
X18251Y-26998D01*
X18116Y-27323D01*
X18116Y-27674D01*
X18250Y-27999D01*
X18498Y-28248D01*
X18823Y-28383D01*
X19174Y-28383D01*
X19499Y-28249D01*
X19748Y-28001D01*
X19883Y-27676D01*
X19883Y-27325D01*
X19883Y-28879D01*
X17883Y-28879D01*
X17883Y-27325D01*
X17749Y-27000D01*
X17501Y-26751D01*
X17176Y-26616D01*
X16825Y-26616D01*
X16500Y-26750D01*
X16251Y-26998D01*
X16116Y-27323D01*
X16116Y-27674D01*
X16250Y-27999D01*
X16498Y-28248D01*
X16823Y-28383D01*
X17174Y-28383D01*
X17499Y-28249D01*
X17748Y-28001D01*
X17883Y-27676D01*
X17883Y-27325D01*
X17883Y-28879D01*
X15883Y-28879D01*
X15883Y-27325D01*
X15749Y-27000D01*
X15501Y-26751D01*
X15176Y-26616D01*
X14825Y-26616D01*
X14500Y-26750D01*
X14251Y-26998D01*
X14116Y-27323D01*
X14116Y-27674D01*
X14250Y-27999D01*
X14498Y-28248D01*
X14823Y-28383D01*
X15174Y-28383D01*
X15499Y-28249D01*
X15748Y-28001D01*
X15883Y-27676D01*
X15883Y-27325D01*
X15883Y-28879D01*
X13850Y-28879D01*
X13850Y-28230D01*
X13850Y-26769D01*
X13850Y-26729D01*
X13835Y-26693D01*
X13806Y-26664D01*
X13769Y-26649D01*
X13385Y-26649D01*
X13360Y-26674D01*
X13360Y-27139D01*
X13825Y-27139D01*
X13850Y-27114D01*
X13850Y-26769D01*
X13850Y-28230D01*
X13850Y-27885D01*
X13825Y-27860D01*
X13360Y-27860D01*
X13360Y-28325D01*
X13385Y-28350D01*
X13769Y-28350D01*
X13806Y-28335D01*
X13835Y-28306D01*
X13850Y-28270D01*
X13850Y-28230D01*
X13850Y-28879D01*
X12639Y-28879D01*
X12639Y-28325D01*
X12639Y-27860D01*
X12639Y-27139D01*
X12639Y-26674D01*
X12614Y-26649D01*
X12230Y-26649D01*
X12193Y-26664D01*
X12164Y-26693D01*
X12149Y-26729D01*
X12149Y-26769D01*
X12149Y-27114D01*
X12174Y-27139D01*
X12639Y-27139D01*
X12639Y-27860D01*
X12174Y-27860D01*
X12149Y-27885D01*
X12149Y-28230D01*
X12149Y-28270D01*
X12164Y-28306D01*
X12193Y-28335D01*
X12230Y-28350D01*
X12614Y-28350D01*
X12639Y-28325D01*
X12639Y-28879D01*
X11769Y-28879D01*
X11769Y-27298D01*
X11614Y-26923D01*
X11328Y-26636D01*
X10953Y-26480D01*
X10548Y-26480D01*
X10173Y-26635D01*
X9886Y-26921D01*
X9730Y-27296D01*
X9730Y-27701D01*
X9885Y-28076D01*
X10171Y-28363D01*
X10546Y-28519D01*
X10951Y-28519D01*
X11326Y-28364D01*
X11613Y-28078D01*
X11769Y-27703D01*
X11769Y-27298D01*
X11769Y-28879D01*
X10764Y-28879D01*
X10224Y-28772D01*
X9774Y-28473D01*
X9476Y-28026D01*
X9370Y-27488D01*
X9370Y-21033D01*
X20019Y-21033D01*
X19972Y-21144D01*
X19972Y-21354D01*
X20052Y-21548D01*
X20200Y-21696D01*
X20343Y-21755D01*
X20278Y-21755D01*
X20126Y-21755D01*
X20086Y-21755D01*
X20049Y-21771D01*
X20021Y-21799D01*
X20005Y-21836D01*
X20005Y-22028D01*
X20031Y-22053D01*
X20303Y-22053D01*
X20303Y-21881D01*
X20696Y-21881D01*
X20696Y-22053D01*
X20968Y-22053D01*
X20994Y-22028D01*
X20994Y-21836D01*
X20978Y-21799D01*
X20950Y-21771D01*
X20913Y-21755D01*
X20873Y-21755D01*
X20721Y-21755D01*
X20656Y-21755D01*
X20798Y-21697D01*
X20946Y-21549D01*
X21027Y-21355D01*
X21027Y-21145D01*
X20980Y-21033D01*
X22629Y-21033D01*
X22629Y-27485D01*
X22629Y-27485D01*
G37*
G54D22*
X22629Y-27485D02*
X22522Y-28025D01*
X22269Y-28406D01*
X22269Y-27298D01*
X22114Y-26923D01*
X21828Y-26636D01*
X21453Y-26480D01*
X21048Y-26480D01*
X20994Y-26502D01*
X20994Y-22663D01*
X20994Y-22471D01*
X20968Y-22446D01*
X20696Y-22446D01*
X20696Y-22718D01*
X20721Y-22744D01*
X20873Y-22744D01*
X20913Y-22744D01*
X20950Y-22728D01*
X20978Y-22700D01*
X20994Y-22663D01*
X20994Y-26502D01*
X20673Y-26635D01*
X20386Y-26921D01*
X20303Y-27122D01*
X20303Y-22718D01*
X20303Y-22446D01*
X20031Y-22446D01*
X20005Y-22471D01*
X20005Y-22663D01*
X20021Y-22700D01*
X20049Y-22728D01*
X20086Y-22744D01*
X20126Y-22744D01*
X20278Y-22744D01*
X20303Y-22718D01*
X20303Y-27122D01*
X20230Y-27296D01*
X20230Y-27701D01*
X20385Y-28076D01*
X20671Y-28363D01*
X21046Y-28519D01*
X21451Y-28519D01*
X21826Y-28364D01*
X22113Y-28078D01*
X22269Y-27703D01*
X22269Y-27298D01*
X22269Y-28406D01*
X22223Y-28475D01*
X21776Y-28773D01*
X21238Y-28879D01*
X19883Y-28879D01*
X19883Y-27325D01*
X19749Y-27000D01*
X19501Y-26751D01*
X19176Y-26616D01*
X18825Y-26616D01*
X18500Y-26750D01*
X18290Y-26959D01*
X18290Y-22692D01*
X18246Y-22585D01*
X18165Y-22503D01*
X18058Y-22459D01*
X17942Y-22459D01*
X17835Y-22503D01*
X17820Y-22518D01*
X17596Y-22518D01*
X16913Y-21836D01*
X16838Y-21785D01*
X16750Y-21768D01*
X16500Y-21768D01*
X13250Y-21768D01*
X13161Y-21785D01*
X13086Y-21836D01*
X13086Y-21836D01*
X12963Y-21959D01*
X12942Y-21959D01*
X12835Y-22003D01*
X12753Y-22084D01*
X12709Y-22191D01*
X12709Y-22307D01*
X12753Y-22414D01*
X12834Y-22496D01*
X12941Y-22540D01*
X13057Y-22540D01*
X13164Y-22496D01*
X13246Y-22415D01*
X13290Y-22308D01*
X13290Y-22287D01*
X13346Y-22231D01*
X15386Y-22231D01*
X15335Y-22253D01*
X15320Y-22268D01*
X13500Y-22268D01*
X13411Y-22285D01*
X13336Y-22336D01*
X12963Y-22709D01*
X12942Y-22709D01*
X12835Y-22753D01*
X12753Y-22834D01*
X12709Y-22941D01*
X12709Y-23057D01*
X12753Y-23164D01*
X12834Y-23246D01*
X12941Y-23290D01*
X13057Y-23290D01*
X13164Y-23246D01*
X13246Y-23165D01*
X13290Y-23058D01*
X13290Y-23037D01*
X13596Y-22731D01*
X15268Y-22731D01*
X15268Y-24570D01*
X15253Y-24584D01*
X15209Y-24691D01*
X15209Y-24807D01*
X15253Y-24914D01*
X15334Y-24996D01*
X15441Y-25040D01*
X15557Y-25040D01*
X15664Y-24996D01*
X15746Y-24915D01*
X15790Y-24808D01*
X15790Y-24692D01*
X15746Y-24585D01*
X15731Y-24570D01*
X15731Y-22679D01*
X15746Y-22665D01*
X15790Y-22558D01*
X15790Y-22442D01*
X15746Y-22335D01*
X15665Y-22253D01*
X15612Y-22231D01*
X16268Y-22231D01*
X16268Y-24570D01*
X16253Y-24584D01*
X16209Y-24691D01*
X16209Y-24807D01*
X16253Y-24914D01*
X16334Y-24996D01*
X16441Y-25040D01*
X16557Y-25040D01*
X16664Y-24996D01*
X16746Y-24915D01*
X16790Y-24808D01*
X16790Y-24692D01*
X16746Y-24585D01*
X16731Y-24570D01*
X16731Y-22309D01*
X17336Y-22913D01*
X17336Y-22913D01*
X17411Y-22964D01*
X17499Y-22981D01*
X17499Y-22981D01*
X17500Y-22981D01*
X17820Y-22981D01*
X17834Y-22996D01*
X17941Y-23040D01*
X18057Y-23040D01*
X18164Y-22996D01*
X18246Y-22915D01*
X18290Y-22808D01*
X18290Y-22692D01*
X18290Y-26959D01*
X18251Y-26998D01*
X18116Y-27323D01*
X18116Y-27674D01*
X18250Y-27999D01*
X18498Y-28248D01*
X18823Y-28383D01*
X19174Y-28383D01*
X19499Y-28249D01*
X19748Y-28001D01*
X19883Y-27676D01*
X19883Y-27325D01*
X19883Y-28879D01*
X17883Y-28879D01*
X17883Y-27325D01*
X17749Y-27000D01*
X17501Y-26751D01*
X17176Y-26616D01*
X16825Y-26616D01*
X16500Y-26750D01*
X16251Y-26998D01*
X16116Y-27323D01*
X16116Y-27674D01*
X16250Y-27999D01*
X16498Y-28248D01*
X16823Y-28383D01*
X17174Y-28383D01*
X17499Y-28249D01*
X17748Y-28001D01*
X17883Y-27676D01*
X17883Y-27325D01*
X17883Y-28879D01*
X15883Y-28879D01*
X15883Y-27325D01*
X15749Y-27000D01*
X15501Y-26751D01*
X15176Y-26616D01*
X14825Y-26616D01*
X14500Y-26750D01*
X14251Y-26998D01*
X14116Y-27323D01*
X14116Y-27674D01*
X14250Y-27999D01*
X14498Y-28248D01*
X14823Y-28383D01*
X15174Y-28383D01*
X15499Y-28249D01*
X15748Y-28001D01*
X15883Y-27676D01*
X15883Y-27325D01*
X15883Y-28879D01*
X13850Y-28879D01*
X13850Y-28230D01*
X13850Y-26769D01*
X13850Y-26729D01*
X13835Y-26693D01*
X13806Y-26664D01*
X13769Y-26649D01*
X13385Y-26649D01*
X13360Y-26674D01*
X13360Y-27139D01*
X13825Y-27139D01*
X13850Y-27114D01*
X13850Y-26769D01*
X13850Y-28230D01*
X13850Y-27885D01*
X13825Y-27860D01*
X13360Y-27860D01*
X13360Y-28325D01*
X13385Y-28350D01*
X13769Y-28350D01*
X13806Y-28335D01*
X13835Y-28306D01*
X13850Y-28270D01*
X13850Y-28230D01*
X13850Y-28879D01*
X12639Y-28879D01*
X12639Y-28325D01*
X12639Y-27860D01*
X12639Y-27139D01*
X12639Y-26674D01*
X12614Y-26649D01*
X12230Y-26649D01*
X12193Y-26664D01*
X12164Y-26693D01*
X12149Y-26729D01*
X12149Y-26769D01*
X12149Y-27114D01*
X12174Y-27139D01*
X12639Y-27139D01*
X12639Y-27860D01*
X12174Y-27860D01*
X12149Y-27885D01*
X12149Y-28230D01*
X12149Y-28270D01*
X12164Y-28306D01*
X12193Y-28335D01*
X12230Y-28350D01*
X12614Y-28350D01*
X12639Y-28325D01*
X12639Y-28879D01*
X11769Y-28879D01*
X11769Y-27298D01*
X11614Y-26923D01*
X11328Y-26636D01*
X10953Y-26480D01*
X10548Y-26480D01*
X10173Y-26635D01*
X9886Y-26921D01*
X9730Y-27296D01*
X9730Y-27701D01*
X9885Y-28076D01*
X10171Y-28363D01*
X10546Y-28519D01*
X10951Y-28519D01*
X11326Y-28364D01*
X11613Y-28078D01*
X11769Y-27703D01*
X11769Y-27298D01*
X11769Y-28879D01*
X10764Y-28879D01*
X10224Y-28772D01*
X9774Y-28473D01*
X9476Y-28026D01*
X9370Y-27488D01*
X9370Y-21033D01*
X20019Y-21033D01*
X19972Y-21144D01*
X19972Y-21354D01*
X20052Y-21548D01*
X20200Y-21696D01*
X20343Y-21755D01*
X20278Y-21755D01*
X20126Y-21755D01*
X20086Y-21755D01*
X20049Y-21771D01*
X20021Y-21799D01*
X20005Y-21836D01*
X20005Y-22028D01*
X20031Y-22053D01*
X20303Y-22053D01*
X20303Y-21881D01*
X20696Y-21881D01*
X20696Y-22053D01*
X20968Y-22053D01*
X20994Y-22028D01*
X20994Y-21836D01*
X20978Y-21799D01*
X20950Y-21771D01*
X20913Y-21755D01*
X20873Y-21755D01*
X20721Y-21755D01*
X20656Y-21755D01*
X20798Y-21697D01*
X20946Y-21549D01*
X21027Y-21355D01*
X21027Y-21145D01*
X20980Y-21033D01*
X22629Y-21033D01*
X22629Y-27485D01*
M02*
